<?xml version="1.0" encoding="utf-8"?>
<!-- Generator: Adobe Illustrator 15.0.0, SVG Export Plug-In . SVG Version: 6.00 Build 0)  -->
<!DOCTYPE svg PUBLIC "-//W3C//DTD SVG 1.1//EN" "http://www.w3.org/Graphics/SVG/1.1/DTD/svg11.dtd">
<svg version="1.1" id="Layer_1" xmlns="http://www.w3.org/2000/svg" xmlns:xlink="http://www.w3.org/1999/xlink" x="0px" y="0px"
	 width="205px" height="59.877px" viewBox="0 0 205 59.877" enable-background="new 0 0 205 59.877" xml:space="preserve">
<g>
	<g>
		<polygon fill="#FFFFFF" points="63.502,32.151 77.744,32.151 77.744,26.539 69.851,26.539 69.851,21 75.811,21 75.811,15.387 
			69.851,15.387 69.851,10.087 77.396,10.087 77.396,4.475 63.502,4.475 		"/>
		<path fill="#FFFFFF" d="M81.562,32.151h5.996V19.415c0-1.745-0.347-4.646-0.347-4.646h0.151c0,0,0.581,2.748,1.314,4.646
			l4.762,12.736h6.657V4.475h-5.959v12.737c0,1.736,0.348,4.638,0.348,4.638h-0.159c0,0-0.583-2.748-1.352-4.602L88.256,4.475
			h-6.693V32.151z"/>
		<polygon fill="#FFFFFF" points="105.027,32.151 111.378,32.151 111.378,21.776 117.414,21.776 117.414,16.165 111.378,16.165 
			111.378,10.087 118.809,10.087 118.809,4.475 105.027,4.475 		"/>
		<path fill="#FFFFFF" d="M121.15,18.135c0,8.243,4.029,14.481,11.298,14.481c7.284,0,11.34-6.278,11.34-14.438
			c0-8.128-4.056-14.168-11.34-14.168C125.179,4.01,121.15,10.087,121.15,18.135 M127.651,18.135c0-4.754,1.512-8.047,4.797-8.047
			c3.287,0,4.77,3.25,4.77,8.092c0,4.869-1.482,8.359-4.77,8.359C129.163,26.539,127.651,23.093,127.651,18.135"/>
		<path fill="#FFFFFF" d="M147.598,32.151h6.354V22.78h1.512l3.779,9.371h6.979l-4.463-9.639c-0.566-1.201-0.96-1.667-0.96-1.667
			v-0.079c2.211-1.468,3.796-4.413,3.796-7.777c0-3.717-1.906-6.5-4.654-7.735c-1.118-0.509-2.516-0.779-3.591-0.779h-8.752V32.151z
			 M153.953,17.248v-7.161h1.422c0.51,0,1.166,0.196,1.674,0.582c0.697,0.582,1.119,1.665,1.119,2.98
			c0,2.282-1.353,3.598-3.025,3.598L153.953,17.248L153.953,17.248z"/>
		<path fill="#FFFFFF" d="M167.895,18.368c0,8.202,4.464,14.249,12.155,14.249c3.794,0,5.888-1.165,7.632-2.486l-2.631-5.375
			c-1.207,0.969-2.56,1.855-4.465,1.855c-3.897,0-6.149-4.021-6.149-8.549c0-4.34,2.095-8.054,6.237-8.054
			c1.513,0,3.241,0.849,4.029,1.78l2.63-5.452c-1.862-1.629-4.536-2.326-6.979-2.326C172.549,4.01,167.895,10.008,167.895,18.368"/>
		<polygon fill="#FFFFFF" points="190.751,32.151 205,32.151 205,26.539 197.104,26.539 197.104,21 203.066,21 203.066,15.387 
			197.104,15.387 197.104,10.087 204.651,10.087 204.651,4.475 190.751,4.475 		"/>
		<path fill="#FFFFFF" d="M63.502,54.02c1.168,0.998,2.713,1.49,4.162,1.49c3.087,0,4.631-2.137,4.631-4.562
			c0-4.299-4.985-4.178-4.985-6.389c0-0.689,0.423-1.273,1.399-1.273c0.753,0,1.751,0.459,2.25,0.906l1.229-3.012
			c-1.022-0.721-2.334-1.059-3.562-1.059c-2.981,0-4.724,1.936-4.724,4.485c0,4.24,4.954,4.438,4.954,6.479
			c0,0.678-0.437,1.262-1.353,1.262c-0.958,0-1.834-0.6-2.417-1.244L63.502,54.02z"/>
		<polygon fill="#FFFFFF" points="74,55.262 81.664,55.262 81.664,52.238 77.417,52.238 77.417,49.273 80.627,49.273 80.627,46.248 
			77.417,46.248 77.417,43.391 81.479,43.391 81.479,40.367 74,40.367 		"/>
		<path fill="#FFFFFF" d="M83.16,47.846c0,4.424,2.395,7.664,6.541,7.664c2.044,0,3.164-0.615,4.101-1.322l-1.413-2.902
			c-0.644,0.521-1.375,0.998-2.395,0.998c-2.104,0-3.31-2.166-3.31-4.605c0-2.322,1.121-4.332,3.354-4.332
			c0.808,0,1.743,0.461,2.167,0.967l1.412-2.934c-1-0.873-2.435-1.258-3.748-1.258C85.663,40.121,83.16,43.346,83.16,47.846"/>
		<path fill="#FFFFFF" d="M95.41,50.363c0,3.15,1.941,5.146,4.998,5.146c2.978,0,4.94-1.996,4.94-5.146v-9.997h-3.419v9.997
			c0,1.443-0.601,1.982-1.538,1.982c-0.959,0-1.565-0.539-1.565-1.982v-9.997H95.41L95.41,50.363L95.41,50.363z"/>
		<path fill="#FFFFFF" d="M107.948,55.262h3.411v-5.035h0.813l2.043,5.035h3.746l-2.395-5.189c-0.31-0.645-0.511-0.891-0.511-0.891
			v-0.045c1.184-0.785,2.029-2.367,2.029-4.18c0-1.996-1.015-3.5-2.491-4.162c-0.61-0.275-1.353-0.428-1.935-0.428h-4.712V55.262z
			 M111.358,47.246v-3.855h0.777c0.265,0,0.62,0.107,0.895,0.309c0.37,0.322,0.601,0.906,0.601,1.611
			c0,1.23-0.724,1.936-1.618,1.936H111.358z"/>
		<rect x="119.527" y="40.367" fill="#FFFFFF" width="3.423" height="14.895"/>
		<polygon fill="#FFFFFF" points="127.958,55.262 131.351,55.262 131.351,43.391 134.654,43.391 134.654,40.367 124.685,40.367 
			124.685,43.391 127.958,43.391 		"/>
		<path fill="#FFFFFF" d="M139.644,55.262h3.395v-6.096l3.792-8.799h-3.763l-1.106,3.592c-0.353,1.016-0.567,2.137-0.567,2.137
			h-0.076c0,0-0.215-1.121-0.554-2.137l-1.138-3.592h-3.777l3.793,8.799v6.096H139.644z"/>
	</g>
	<path fill="#FFFFFF" d="M49.793,38.425c0,15.424-18.834,21.452-24.892,21.452C18.834,59.877,0,53.85,0,38.425V0h49.793V38.425z"/>
	<path fill="#FFFFFF" d="M11.146,15.693v20.736c0,0.567,0.021,1.105,0.133,1.652c0.29,1.621,1.177,3.139,2.54,4.252
		c0.678,0.58,1.465,1,2.17,1.342c1.676,0.809,7.019,3.699,8.91,3.699c1.883,0,7.225-2.891,8.903-3.699
		c0.705-0.342,1.492-0.762,2.18-1.342c1.354-1.111,2.24-2.631,2.531-4.252c0.112-0.547,0.133-1.085,0.133-1.652V15.693H11.146z"/>
	<path fill="#ED7004" d="M37.384,37.852c-0.244,1.347-0.984,2.63-2.145,3.589c-0.564,0.482-1.244,0.852-1.937,1.188
		c-1.62,0.771-6.937,3.584-8.401,3.584c-1.474,0-6.782-2.812-8.409-3.584c-0.693-0.336-1.373-0.705-1.938-1.188
		c-1.162-0.959-1.901-2.243-2.137-3.589c-0.128-0.605-0.109-0.829-0.109-1.427V16.85h25.176v19.575
		C37.484,37.023,37.503,37.247,37.384,37.852"/>
	<path fill="#FFFFFF" d="M26.307,37.408h-2.31v-7.512l1.967-0.003l1.449,5.5l1.276-5.057l0.171-0.652l0.996,3.311l1.49-3.118
		l1.48,0.003l0.001-1.536l-1.897-0.006l-0.763,1.655l-1.307-4.708l-0.735,3.178l-0.593,2.517l-0.7-2.626l-2.836,0.005v-5.345h2.31
		c2.131,0,3.947,0.793,5.267,2.268l1.376-0.722l-1.806-3.134H17.043v1.587h0.996c0.559,0,1.017,0.457,1.017,1.015v12.354
		c0,0.566-0.458,1.023-1.017,1.023h-0.996v1.59h14.554L34,34.454l-1.467-0.607C31.286,36.011,28.974,37.408,26.307,37.408"/>
	<path fill="#FFFFFF" d="M12.074,9.083c0-0.482-0.094-1.277-0.054-1.277c0,0,0.162,0.756,0.366,1.277l1.303,3.493h1.832v-7.6h-1.639
		v3.5c0,0.474,0.094,1.271,0.055,1.271c0,0-0.164-0.749-0.374-1.263l-1.293-3.507h-1.84v7.599h1.644L12.074,9.083L12.074,9.083z
		 M7.214,9.512h1.637V7.976H7.214V6.519h2.074V4.975H5.469v7.599h3.914V11.03H7.214V9.512z M24.406,12.699
		c1.995,0,3.109-1.714,3.109-3.959c0-2.229-1.114-3.889-3.109-3.889c-2.003,0-3.111,1.667-3.111,3.881
		C21.295,10.992,22.403,12.699,24.406,12.699 M24.406,6.519c0.904,0,1.301,0.889,1.301,2.221c0,1.341-0.397,2.291-1.301,2.291
		c-0.904,0-1.317-0.941-1.317-2.298C23.089,7.423,23.501,6.519,24.406,6.519 M18.618,9.73h1.652V8.188h-1.652V6.519h2.043V4.975
		H16.87v7.599h1.747L18.618,9.73L18.618,9.73z M42.157,11.031V9.513h1.638V7.976h-1.638V6.519h2.073V4.975h-3.819v7.599h3.913V11.03
		L42.157,11.031L42.157,11.031z M30.31,10.003h0.413l1.037,2.572h1.917l-1.223-2.641c-0.157-0.337-0.266-0.461-0.266-0.484
		c0.607-0.406,1.037-1.208,1.037-2.136c0-1.02-0.515-1.785-1.271-2.12c-0.312-0.14-0.693-0.219-0.99-0.219h-2.4v7.599h1.746V10.003z
		 M30.31,6.519h0.39c0.14,0,0.32,0.055,0.458,0.156c0.188,0.164,0.305,0.46,0.305,0.818c0,0.633-0.374,0.99-0.826,0.99H30.31V6.519z
		 M37.626,11.055c-1.075,0-1.693-1.107-1.693-2.346c0-1.193,0.578-2.214,1.715-2.214c0.414,0,0.89,0.235,1.1,0.493l0.726-1.497
		c-0.507-0.452-1.241-0.639-1.91-0.639c-2.15,0-3.422,1.644-3.422,3.945c0,2.251,1.216,3.904,3.336,3.904
		c1.037,0,1.615-0.312,2.09-0.678l-0.718-1.472C38.514,10.812,38.147,11.055,37.626,11.055 M33.532,48.725l-0.356-0.766l-2.54,1.178
		l0.357,0.783l0.838-0.393l1.408,3.027l0.87-0.402l-1.416-3.029L33.532,48.725z M29.153,49.488l1.159,4.029l0.919-0.26l-1.15-4.027
		L29.153,49.488z M28.239,52.215c0.297-0.273,0.473-0.748,0.405-1.242c-0.08-0.564-0.426-0.936-0.863-1.074
		c-0.179-0.039-0.39-0.061-0.557-0.029l-1.311,0.182l0.583,4.146l0.955-0.129l-0.199-1.404l0.228-0.037l0.764,1.328l1.047-0.154
		l-0.872-1.348C28.305,52.283,28.239,52.223,28.239,52.215 M27.313,51.805l-0.179,0.02l-0.15-1.066l0.212-0.023
		c0.079-0.023,0.177,0.002,0.261,0.037c0.117,0.084,0.204,0.229,0.232,0.434C27.742,51.537,27.566,51.764,27.313,51.805
		 M35.78,46.014l-0.848,0.639l0.356,0.994c0.093,0.289,0.237,0.578,0.225,0.59c0,0-0.246-0.225-0.489-0.398l-0.865-0.602
		l-0.849,0.639l2.338,1.32l1.04,1.379l0.762-0.576l-1.039-1.365L35.78,46.014z M14.68,47.592c0.168,0.127,0.312,0.406,0.346,0.586
		l0.789-0.453c-0.096-0.344-0.328-0.641-0.606-0.846c-0.655-0.518-1.38-0.395-1.82,0.176c-0.736,0.938,0.327,1.832-0.024,2.289
		c-0.119,0.145-0.319,0.199-0.522,0.049c-0.211-0.168-0.299-0.453-0.32-0.695l-0.854,0.365c0.086,0.42,0.343,0.807,0.666,1.053
		c0.682,0.533,1.399,0.332,1.814-0.201c0.741-0.965-0.379-1.795,0.002-2.279C14.272,47.479,14.466,47.422,14.68,47.592
		 M18.017,49.578l0.391-0.756l-1.88-0.951l-1.9,3.719l1.923,0.982l0.384-0.756l-1.061-0.541l0.378-0.75l0.802,0.41l0.392-0.758
		l-0.808-0.41l0.368-0.711L18.017,49.578z M20.751,49.484c-1.14-0.316-2.068,0.354-2.417,1.57c-0.344,1.203,0.055,2.266,1.173,2.578
		c0.553,0.164,0.904,0.088,1.216-0.029l-0.162-0.904c-0.212,0.098-0.447,0.168-0.718,0.094c-0.575-0.166-0.729-0.852-0.544-1.508
		c0.18-0.633,0.642-1.076,1.246-0.9c0.215,0.061,0.438,0.252,0.507,0.42l0.612-0.689C21.461,49.809,21.104,49.59,20.751,49.484
		 M23.952,52.811c-0.028,0.406-0.207,0.539-0.471,0.525c-0.266-0.014-0.421-0.18-0.392-0.586l0.19-2.805l-0.953-0.064l-0.199,2.807
		c-0.061,0.879,0.441,1.477,1.297,1.535c0.839,0.059,1.426-0.465,1.488-1.346l0.199-2.805l-0.96-0.066L23.952,52.811z"/>
	<path fill="#231F20" d="M27.46,50.771c-0.086-0.035-0.183-0.061-0.262-0.037l-0.212,0.023l0.15,1.066l0.178-0.02
		c0.253-0.041,0.429-0.268,0.378-0.6C27.662,51,27.575,50.855,27.46,50.771 M24.406,11.031c0.903,0,1.3-0.95,1.3-2.291
		c0-1.333-0.398-2.221-1.3-2.221c-0.905,0-1.318,0.903-1.318,2.214C23.089,10.089,23.501,11.031,24.406,11.031 M2.318,2.317v36.108
		c0,13.286,16.742,19.127,22.582,19.127c5.833,0,22.575-5.842,22.575-19.127V2.317H2.318z M28.564,4.975h2.4
		c0.297,0,0.678,0.078,0.99,0.219c0.756,0.334,1.271,1.1,1.271,2.121c0,0.927-0.429,1.73-1.037,2.135
		c0,0.023,0.109,0.147,0.266,0.484l1.223,2.641H31.76l-1.037-2.572H30.31v2.572h-1.746V4.975z M24.406,4.851
		c1.994,0,3.109,1.66,3.109,3.889c0,2.246-1.115,3.959-3.109,3.959c-2.003,0-3.111-1.707-3.111-3.967
		C21.295,6.519,22.403,4.851,24.406,4.851 M16.872,4.975h3.79v1.543h-2.043v1.668h1.652V9.73h-1.652v2.844h-1.746L16.872,4.975
		L16.872,4.975z M9.382,12.575H5.469v-7.6h3.819v1.543H7.214v1.458h1.637v1.537H7.214v1.518h2.168V12.575z M10.43,4.975h1.84
		l1.294,3.507c0.21,0.515,0.374,1.264,0.374,1.264c0.039,0-0.056-0.796-0.056-1.271v-3.5h1.639v7.599h-1.832l-1.303-3.492
		c-0.203-0.521-0.365-1.278-0.365-1.278c-0.04,0,0.055,0.795,0.055,1.278v3.492h-1.645L10.43,4.975L10.43,4.975z M14.15,49.916
		c-0.415,0.533-1.132,0.732-1.814,0.201c-0.323-0.248-0.58-0.635-0.666-1.055l0.854-0.365c0.021,0.242,0.109,0.529,0.32,0.697
		c0.203,0.148,0.402,0.094,0.522-0.049c0.351-0.457-0.712-1.352,0.024-2.291c0.439-0.57,1.164-0.693,1.821-0.176
		c0.277,0.205,0.51,0.504,0.605,0.846l-0.79,0.455c-0.034-0.182-0.176-0.461-0.346-0.586c-0.213-0.172-0.408-0.113-0.528,0.043
		C13.771,48.119,14.891,48.951,14.15,49.916 M17.446,50.18l-0.393,0.758l-0.8-0.41l-0.379,0.75l1.061,0.539l-0.384,0.758
		l-1.923-0.984l1.9-3.717l1.88,0.949l-0.392,0.758l-1.01-0.52l-0.369,0.709L17.446,50.18z M21.051,50.807
		c-0.068-0.17-0.293-0.361-0.507-0.422c-0.604-0.174-1.065,0.268-1.246,0.9c-0.186,0.656-0.03,1.342,0.545,1.508
		c0.271,0.074,0.505,0.006,0.717-0.094l0.163,0.904c-0.312,0.117-0.665,0.195-1.216,0.029c-1.118-0.311-1.518-1.375-1.173-2.574
		c0.349-1.221,1.278-1.889,2.417-1.574c0.353,0.107,0.71,0.324,0.913,0.633L21.051,50.807z M24.913,52.877
		c-0.062,0.881-0.648,1.404-1.486,1.346c-0.857-0.059-1.359-0.656-1.298-1.535l0.198-2.807l0.954,0.064l-0.19,2.805
		c-0.029,0.406,0.126,0.572,0.392,0.586c0.264,0.014,0.443-0.119,0.471-0.525l0.199-2.805l0.96,0.066L24.913,52.877z M28.243,53.955
		l-0.765-1.328l-0.228,0.041l0.2,1.402l-0.955,0.127l-0.583-4.146l1.312-0.182c0.167-0.031,0.377-0.01,0.556,0.029
		c0.438,0.139,0.783,0.512,0.864,1.074c0.067,0.494-0.108,0.969-0.406,1.242c0.001,0.008,0.066,0.068,0.179,0.238l0.874,1.35
		L28.243,53.955z M30.311,53.518l-1.159-4.029l0.928-0.258l1.15,4.027L30.311,53.518z M33.24,52.555l-1.409-3.029l-0.837,0.395
		l-0.357-0.783l2.54-1.18l0.356,0.768l-0.839,0.396l1.416,3.029L33.24,52.555z M36.687,50.572l-1.04-1.377l-2.338-1.322l0.849-0.639
		l0.865,0.604c0.244,0.172,0.489,0.396,0.489,0.396c0.012-0.012-0.132-0.299-0.225-0.592l-0.356-0.99l0.847-0.641l0.63,2.619
		l1.039,1.365L36.687,50.572z M38.646,36.429c0,0.567-0.02,1.105-0.133,1.652c-0.291,1.621-1.177,3.139-2.531,4.252
		c-0.688,0.58-1.474,1-2.18,1.342c-1.677,0.809-7.019,3.699-8.903,3.699c-1.892,0-7.234-2.891-8.909-3.699
		c-0.707-0.342-1.493-0.762-2.173-1.342c-1.362-1.111-2.25-2.631-2.54-4.252c-0.111-0.547-0.132-1.085-0.132-1.652V15.694h27.5
		L38.646,36.429L38.646,36.429z M37.476,12.699c-2.119,0-3.336-1.652-3.336-3.904c0-2.301,1.271-3.944,3.422-3.944
		c0.669,0,1.403,0.187,1.91,0.639l-0.726,1.497c-0.209-0.257-0.686-0.493-1.099-0.493c-1.138,0-1.716,1.021-1.716,2.214
		c0,1.24,0.618,2.346,1.693,2.346c0.521,0,0.888-0.242,1.224-0.506l0.718,1.472C39.091,12.388,38.514,12.699,37.476,12.699
		 M44.325,12.575h-3.914v-7.6h3.819v1.543h-2.073v1.458h1.638v1.537h-1.638v1.518h2.168V12.575z M31.463,7.492
		c0-0.358-0.116-0.654-0.305-0.818c-0.14-0.102-0.319-0.156-0.458-0.156h-0.39v1.964h0.328C31.089,8.482,31.463,8.125,31.463,7.492"
		/>
</g>
</svg>
