<?xml version="1.0" encoding="utf-8"?>
<!-- Generator: Adobe Illustrator 15.0.0, SVG Export Plug-In . SVG Version: 6.00 Build 0)  -->
<!DOCTYPE svg PUBLIC "-//W3C//DTD SVG 1.1//EN" "http://www.w3.org/Graphics/SVG/1.1/DTD/svg11.dtd">
<svg version="1.1" id="Layer_1" xmlns="http://www.w3.org/2000/svg" xmlns:xlink="http://www.w3.org/1999/xlink" x="0px" y="0px"
	 width="205px" height="59.877px" viewBox="0 0 205 59.877" enable-background="new 0 0 205 59.877" xml:space="preserve">
<g>
	<path fill="#FFFFFF" d="M8.961,34.552V0.563h17.06v8.146H18.14v4.336h7.066v8.145H18.14v5.217h7.881v8.145H8.961z"/>
	<path fill="#FFFFFF" d="M29.939,34.552V0.563h8.762l4.6,11.931c0.25,0.705,0.531,1.511,0.847,2.421
		c0.315,0.91,0.664,1.959,1.045,3.148l0.948,2.993c-0.338-2.95-0.596-5.472-0.771-7.572c-0.177-2.098-0.265-3.859-0.265-5.283V0.563
		h8.85v33.988h-8.85l-4.9-12.503c-0.513-1.336-0.977-2.587-1.388-3.754c-0.413-1.167-0.774-2.278-1.085-3.334
		c0.365,2.393,0.632,4.476,0.802,6.251c0.17,1.776,0.254,3.332,0.254,4.667v8.673L29.939,34.552L29.939,34.552z"/>
	<path fill="#FFFFFF" d="M67.801,34.552h-9.179V0.563h8.894c4.433,0,7.72,0.902,9.862,2.708c2.524,2.128,3.786,5.084,3.786,8.872
		c0,4.123-1.343,7.198-4.029,9.223c-1.834,1.365-4.469,2.047-7.902,2.047h-1.432V34.552z M67.801,16.259l0.419,0.022
		c1.114,0,2.003-0.341,2.663-1.023c0.66-0.682,0.991-1.618,0.991-2.807c0-1.174-0.324-2.128-0.969-2.861
		c-0.645-0.75-1.467-1.124-2.465-1.124h-0.639V16.259z"/>
	<path fill="#FFFFFF" d="M109.363,17.675c0,5.001-1.182,9.069-3.545,12.201c-2.348,3.117-5.407,4.676-9.179,4.676
		c-3.346,0-6.217-1.197-8.608-3.592c-3.008-3.033-4.511-7.582-4.511-13.646c0-5.811,1.57-10.252,4.71-13.328
		c2.334-2.281,5.1-3.422,8.299-3.422c3.919,0,7.038,1.545,9.356,4.634C108.203,8.287,109.363,12.446,109.363,17.675z M99.831,17.752
		c0-6.029-1.086-9.043-3.258-9.043c-1.086,0-1.951,0.791-2.598,2.374c-0.631,1.469-0.945,3.626-0.945,6.476
		c0,2.805,0.296,4.981,0.892,6.528c0.593,1.548,1.418,2.321,2.476,2.321c1.085,0,1.921-0.763,2.509-2.288
		C99.522,22.594,99.831,20.473,99.831,17.752z"/>
	<path fill="#FFFFFF" d="M141.502,34.552h-8.883l-2.133-11.909c-0.414-2.303-0.723-4.299-0.932-5.987
		c-0.104-0.837-0.191-1.534-0.269-2.091c-0.072-0.559-0.125-0.983-0.152-1.277c-0.073,0.602-0.186,1.725-0.334,3.369
		c-0.067,0.836-0.147,1.716-0.241,2.641c-0.095,0.924-0.207,1.9-0.343,2.927l-1.594,12.329h-8.586l-7.572-33.989h9.068l1.495,9.355
		c0.572,3.729,0.97,6.657,1.189,8.783l0.309,3.104l0.285-2.664c0.299-3.111,0.681-6.067,1.148-8.871l1.658-9.708h7.635l1.488,8.167
		c0.709,3.8,1.326,8.299,1.852,13.493c0.16-2.333,0.336-4.403,0.527-6.207c0.189-1.805,0.402-3.442,0.639-4.909l1.674-10.545h8.959
		L141.502,34.552z"/>
	<path fill="#FFFFFF" d="M151.254,34.552V0.563h17.061v8.146h-7.881v4.336h7.066v8.145h-7.066v5.217h7.881v8.145H151.254z"/>
	<path fill="#FFFFFF" d="M196.404,34.552h-9.93l-4.535-12.107c-0.043-0.205-0.121-0.477-0.23-0.815s-0.246-0.74-0.408-1.21
		l0.066,2.246v11.886h-9.135V0.563h9.399c4.138,0,7.234,0.815,9.289,2.443c2.611,2.084,3.918,5.049,3.918,8.894
		c0,4.109-1.754,6.948-5.26,8.52L196.404,34.552z M181.412,15.818h0.615c1.059,0,1.938-0.402,2.643-1.21s1.057-1.834,1.057-3.082
		c0-2.54-1.328-3.808-3.983-3.808h-0.33L181.412,15.818L181.412,15.818z"/>
	<g>
		<path fill="#FFFFFF" d="M12.271,59.077V47.961h-3.97v-2.265h10.633v2.265h-3.961v11.116H12.271z"/>
		<path fill="#FFFFFF" d="M20.687,59.077V45.696h5.685c1.431,0,2.469,0.121,3.118,0.359c0.647,0.241,1.166,0.67,1.555,1.282
			c0.389,0.615,0.584,1.318,0.584,2.108c0,1.004-0.294,1.832-0.885,2.486c-0.59,0.655-1.473,1.066-2.646,1.238
			c0.584,0.34,1.066,0.713,1.446,1.121s0.894,1.132,1.539,2.173l1.632,2.61h-3.23l-1.954-2.912c-0.694-1.04-1.168-1.695-1.424-1.967
			c-0.255-0.271-0.526-0.457-0.812-0.559c-0.286-0.1-0.74-0.148-1.359-0.148h-0.548v5.586h-2.701V59.077z M23.388,51.354h1.999
			c1.296,0,2.104-0.055,2.428-0.164c0.322-0.108,0.575-0.297,0.758-0.565c0.182-0.267,0.273-0.603,0.273-1.003
			c0-0.45-0.12-0.812-0.36-1.091c-0.241-0.276-0.579-0.452-1.019-0.525c-0.218-0.03-0.876-0.045-1.971-0.045h-2.108V51.354z"/>
		<path fill="#FFFFFF" d="M46.24,59.077h-2.939l-1.168-3.04h-5.348l-1.104,3.04h-2.866l5.211-13.381h2.857L46.24,59.077z
			 M41.266,53.783l-1.843-4.966l-1.807,4.966H41.266z"/>
		<path fill="#FFFFFF" d="M47.591,59.077V45.696h2.701v13.381H47.591z"/>
		<path fill="#FFFFFF" d="M52.893,59.077V45.696h2.628l5.476,8.936v-8.936h2.509v13.381h-2.71l-5.394-8.725v8.725H52.893z"/>
		<path fill="#FFFFFF" d="M66.282,59.077V45.696h2.702v13.381H66.282z"/>
		<path fill="#FFFFFF" d="M71.584,59.077V45.696h2.628l5.476,8.936v-8.936h2.51v13.381h-2.71l-5.395-8.725v8.725H71.584z"/>
		<path fill="#FFFFFF" d="M91.279,54.158v-2.257h5.823v5.33c-0.566,0.549-1.386,1.031-2.459,1.447
			c-1.075,0.416-2.162,0.625-3.263,0.625c-1.4,0-2.619-0.294-3.66-0.882c-1.04-0.585-1.822-1.426-2.345-2.519
			c-0.523-1.09-0.784-2.279-0.784-3.562c0-1.395,0.291-2.632,0.875-3.716c0.584-1.082,1.439-1.912,2.565-2.491
			c0.857-0.443,1.925-0.665,3.203-0.665c1.662,0,2.958,0.349,3.893,1.044c0.934,0.697,1.534,1.659,1.802,2.889l-2.683,0.502
			c-0.188-0.655-0.542-1.176-1.063-1.555c-0.521-0.382-1.17-0.57-1.949-0.57c-1.18,0-2.118,0.373-2.815,1.123
			c-0.696,0.746-1.044,1.857-1.044,3.328c0,1.588,0.353,2.78,1.058,3.574c0.707,0.795,1.631,1.191,2.775,1.191
			c0.565,0,1.133-0.112,1.702-0.334c0.568-0.223,1.057-0.49,1.465-0.807v-1.697L91.279,54.158L91.279,54.158z"/>
		<path fill="#FFFFFF" d="M104.102,54.724l2.629-0.256c0.158,0.883,0.479,1.53,0.963,1.944c0.484,0.412,1.138,0.62,1.957,0.62
			c0.869,0,1.525-0.186,1.968-0.553c0.442-0.369,0.661-0.799,0.661-1.291c0-0.315-0.092-0.588-0.276-0.808
			c-0.188-0.223-0.51-0.417-0.974-0.581c-0.315-0.107-1.038-0.304-2.163-0.583c-1.447-0.36-2.464-0.801-3.048-1.323
			c-0.821-0.735-1.232-1.635-1.232-2.691c0-0.682,0.193-1.319,0.579-1.912c0.387-0.594,0.944-1.045,1.672-1.355
			c0.728-0.312,1.604-0.465,2.634-0.465c1.678,0,2.942,0.367,3.791,1.104c0.85,0.735,1.295,1.718,1.338,2.946l-2.701,0.119
			c-0.115-0.688-0.363-1.182-0.744-1.482c-0.379-0.303-0.951-0.452-1.711-0.452c-0.785,0-1.4,0.161-1.846,0.483
			c-0.285,0.205-0.429,0.481-0.429,0.83c0,0.316,0.136,0.588,0.401,0.812c0.343,0.287,1.168,0.585,2.48,0.896
			c1.314,0.312,2.287,0.633,2.916,0.963c0.631,0.332,1.123,0.785,1.48,1.358c0.354,0.576,0.533,1.286,0.533,2.134
			c0,0.766-0.213,1.481-0.64,2.151c-0.428,0.67-1.028,1.166-1.807,1.491c-0.779,0.326-1.75,0.488-2.912,0.488
			c-1.69,0-2.99-0.391-3.896-1.172C104.818,57.358,104.277,56.222,104.102,54.724z"/>
		<path fill="#FFFFFF" d="M117.254,59.077V45.696h9.92v2.265h-7.219v2.966h6.717v2.256h-6.717v3.641h7.473v2.255L117.254,59.077
			L117.254,59.077z"/>
		<path fill="#FFFFFF" d="M129.729,59.077V45.696h5.687c1.431,0,2.472,0.121,3.117,0.359c0.646,0.241,1.168,0.67,1.557,1.282
			c0.39,0.615,0.584,1.318,0.584,2.108c0,1.004-0.297,1.832-0.885,2.486c-0.59,0.655-1.474,1.066-2.647,1.238
			c0.586,0.34,1.067,0.713,1.446,1.121c0.382,0.408,0.894,1.132,1.537,2.173l1.635,2.61h-3.229l-1.953-2.912
			c-0.693-1.04-1.168-1.695-1.424-1.967s-0.527-0.457-0.814-0.559c-0.285-0.1-0.738-0.148-1.357-0.148h-0.549v5.586h-2.703V59.077z
			 M132.43,51.354h2c1.295,0,2.105-0.055,2.428-0.164c0.32-0.108,0.574-0.297,0.756-0.565c0.185-0.267,0.275-0.603,0.275-1.003
			c0-0.45-0.121-0.812-0.361-1.091c-0.239-0.276-0.58-0.452-1.018-0.525c-0.219-0.03-0.877-0.045-1.971-0.045h-2.109V51.354z"/>
		<path fill="#FFFFFF" d="M146.293,59.077l-4.783-13.381h2.932l3.386,9.902l3.276-9.902h2.865l-4.791,13.381H146.293z"/>
		<path fill="#FFFFFF" d="M155.264,59.077V45.696h2.701v13.381H155.264z"/>
		<path fill="#FFFFFF" d="M169.102,54.158l2.617,0.829c-0.4,1.461-1.068,2.546-2.002,3.256c-0.936,0.707-2.119,1.061-3.557,1.061
			c-1.775,0-3.236-0.604-4.379-1.82c-1.145-1.213-1.717-2.873-1.717-4.978c0-2.229,0.576-3.957,1.727-5.188
			c1.148-1.231,2.662-1.848,4.535-1.848c1.637,0,2.965,0.482,3.988,1.45c0.608,0.573,1.063,1.396,1.369,2.464l-2.675,0.639
			c-0.157-0.692-0.487-1.239-0.989-1.644c-0.504-0.399-1.113-0.601-1.832-0.601c-0.99,0-1.795,0.355-2.412,1.066
			c-0.619,0.713-0.926,1.865-0.926,3.459c0,1.691,0.303,2.896,0.912,3.614c0.606,0.72,1.397,1.077,2.372,1.077
			c0.72,0,1.335-0.229,1.853-0.686C168.504,55.854,168.875,55.138,169.102,54.158z"/>
		<path fill="#FFFFFF" d="M174.037,59.077V45.696h9.92v2.265h-7.217v2.966h6.715v2.256h-6.715v3.641h7.473v2.255L174.037,59.077
			L174.037,59.077z"/>
		<path fill="#FFFFFF" d="M185.82,54.724l2.627-0.256c0.16,0.883,0.479,1.53,0.965,1.944c0.482,0.412,1.135,0.62,1.957,0.62
			c0.869,0,1.525-0.186,1.965-0.553c0.443-0.369,0.664-0.799,0.664-1.291c0-0.315-0.094-0.588-0.279-0.808
			c-0.186-0.223-0.51-0.417-0.971-0.581c-0.318-0.107-1.039-0.304-2.164-0.583c-1.447-0.36-2.465-0.801-3.047-1.323
			c-0.822-0.735-1.232-1.635-1.232-2.691c0-0.682,0.193-1.319,0.578-1.912c0.387-0.594,0.943-1.045,1.672-1.355
			c0.725-0.312,1.604-0.465,2.631-0.465c1.683,0,2.943,0.367,3.793,1.104c0.849,0.735,1.295,1.718,1.336,2.946l-2.698,0.119
			c-0.117-0.688-0.365-1.182-0.744-1.482c-0.381-0.303-0.951-0.452-1.713-0.452c-0.783,0-1.397,0.161-1.843,0.483
			c-0.287,0.205-0.43,0.481-0.43,0.83c0,0.316,0.135,0.588,0.4,0.812c0.342,0.287,1.17,0.585,2.482,0.896
			c1.313,0.312,2.287,0.633,2.918,0.963c0.629,0.332,1.121,0.785,1.477,1.358c0.357,0.576,0.535,1.286,0.535,2.134
			c0,0.766-0.213,1.481-0.639,2.151c-0.427,0.67-1.029,1.166-1.81,1.491c-0.776,0.326-1.748,0.488-2.91,0.488
			c-1.69,0-2.989-0.391-3.896-1.172C186.537,57.358,185.996,56.222,185.82,54.724z"/>
	</g>
</g>
</svg>
