<?xml version="1.0" encoding="utf-8"?>
<!-- Generator: Adobe Illustrator 15.0.0, SVG Export Plug-In . SVG Version: 6.00 Build 0)  -->
<!DOCTYPE svg PUBLIC "-//W3C//DTD SVG 1.1//EN" "http://www.w3.org/Graphics/SVG/1.1/DTD/svg11.dtd">
<svg version="1.1" id="Layer_1" xmlns="http://www.w3.org/2000/svg" xmlns:xlink="http://www.w3.org/1999/xlink" x="0px" y="0px"
	 width="246px" height="41px" viewBox="0 0 246 41" enable-background="new 0 0 246 41" xml:space="preserve">
<g>
	<rect x="1.439" y="1.348" fill="#FFFFFF" width="204.093" height="38.3"/>
	<g>
		<g>
			<path d="M23.443,29.275H12.932V11.571h10.511v3.841h-5.727v2.784h5.304v3.84h-5.304v3.343h5.727V29.275z"/>
			<path d="M35.05,22.836v6.439h-4.785V11.571h5.803c4.81,0,7.215,1.743,7.215,5.23c0,2.053-1.001,3.639-3.003,4.762l5.161,7.713
				h-5.426l-3.757-6.438L35.05,22.836L35.05,22.836z M35.05,19.238h0.897c1.669,0,2.505-0.739,2.505-2.218
				c0-1.22-0.819-1.827-2.458-1.827H35.05V19.238z"/>
			<path d="M61.636,29.275l-0.874-3.315h-5.75l-0.897,3.315h-5.253l5.774-17.778h6.383l5.849,17.778H61.636z M59.773,22.036
				l-0.763-2.91c-0.179-0.645-0.395-1.481-0.651-2.506c-0.256-1.025-0.422-1.76-0.502-2.204c-0.074,0.414-0.218,1.092-0.428,2.036
				c-0.216,0.944-0.691,2.805-1.423,5.584H59.773z"/>
			<path d="M87.531,20.052c0,2.951-0.811,5.23-2.441,6.828c-1.626,1.595-3.912,2.396-6.858,2.396h-5.728V11.571h6.127
				c2.843,0,5.034,0.726,6.579,2.181C86.76,15.207,87.531,17.302,87.531,20.052z M82.564,20.219c0-1.623-0.32-2.826-0.962-3.609
				c-0.642-0.782-1.619-1.176-2.924-1.176h-1.395v9.917h1.07c1.45,0,2.52-0.422,3.199-1.267
				C82.226,23.244,82.564,21.956,82.564,20.219z"/>
			<path d="M94.427,29.275V11.571h4.807v17.705H94.427L94.427,29.275z"/>
			<path d="M114.667,15.24c-1.139,0-2.03,0.469-2.664,1.399c-0.638,0.934-0.958,2.219-0.958,3.859c0,3.406,1.297,5.109,3.887,5.109
				c0.782,0,1.541-0.105,2.278-0.324c0.732-0.219,1.47-0.48,2.213-0.786v4.045c-1.474,0.651-3.147,0.981-5.012,0.981
				c-2.675,0-4.722-0.777-6.146-2.33c-1.425-1.549-2.139-3.789-2.139-6.718c0-1.833,0.344-3.443,1.036-4.835
				c0.688-1.387,1.683-2.453,2.98-3.204c1.293-0.744,2.821-1.12,4.571-1.12c1.915,0,3.742,0.417,5.486,1.25l-1.465,3.766
				c-0.655-0.311-1.307-0.564-1.962-0.776C116.117,15.348,115.416,15.24,114.667,15.24z"/>
			<path d="M143.167,20.4c0,2.98-0.733,5.245-2.192,6.792c-1.463,1.555-3.602,2.33-6.42,2.33c-2.779,0-4.906-0.778-6.388-2.338
				s-2.224-3.826-2.224-6.808c0-2.946,0.738-5.2,2.209-6.75c1.476-1.556,3.615-2.334,6.425-2.334c2.819,0,4.956,0.774,6.407,2.316
				C142.441,15.148,143.167,17.414,143.167,20.4z M130.982,20.4c0,3.423,1.188,5.138,3.572,5.138c1.211,0,2.107-0.417,2.693-1.25
				c0.587-0.829,0.879-2.126,0.879-3.887c0-1.767-0.299-3.076-0.893-3.919c-0.592-0.844-1.479-1.265-2.659-1.265
				C132.182,15.216,130.982,16.942,130.982,20.4z"/>
		</g>
	</g>
	<path d="M0,0v41h245.996V0H0z M1.439,1.348h204.093v38.3H1.439V1.348z"/>
	<g>
		<g>
			<path fill="#FFFFFF" d="M222.948,14.156v-1.527c0,0,19.405-0.613,19.405,10.236c0,10.848-19.252,10.238-19.252,10.238v-1.377
				c0,0,14.974,0.151,16.81-8.1H223.71v-1.832h16.295C240.005,21.796,238.839,14.31,222.948,14.156"/>
			<path fill="#FFFFFF" d="M211.441,19.097h18.336v-1.734h-18.336c2.646-7.74,18.838-7.631,18.838-7.631V7.89
				c-6.413,0-11.103,1.224-11.103,1.224c-2.353,0.614-4.782,1.904-6.797,3.257c-1.696,1.144-3.222,2.528-3.784,4.569
				c-0.062,0.193-0.08,0.383-0.085,0.578h-0.026c-0.438,3.889,3.49,6.481,3.844,6.705c0.131,0.098,0.268,0.188,0.398,0.273
				c3.562,2.165,7.221,3.115,11.316,3.607c0.376,0.043,6.445,0.531,6.445,0.264v-1.223
				C213.275,26.939,211.441,19.097,211.441,19.097"/>
		</g>
	</g>
</g>
</svg>
