<?xml version="1.0" encoding="utf-8"?>
<!-- Generator: Adobe Illustrator 15.0.0, SVG Export Plug-In . SVG Version: 6.00 Build 0)  -->
<!DOCTYPE svg PUBLIC "-//W3C//DTD SVG 1.1//EN" "http://www.w3.org/Graphics/SVG/1.1/DTD/svg11.dtd">
<svg version="1.1" id="Layer_1" xmlns="http://www.w3.org/2000/svg" xmlns:xlink="http://www.w3.org/1999/xlink" x="0px" y="0px"
	 width="270px" height="51px" viewBox="0 0 270 51" enable-background="new 0 0 270 51" xml:space="preserve">
<g>
	<g>
		<g>
			<path d="M11.803,25.906H0V5.031h11.803v4.524H5.371v3.283h5.955v4.528H5.371v3.94h6.432V25.906z"/>
			<path d="M63.661,9.356c-1.277,0-2.274,0.551-2.991,1.648c-0.714,1.1-1.073,2.615-1.073,4.549c0,4.017,1.454,6.025,4.365,6.025
				c0.877,0,1.73-0.128,2.556-0.387c0.823-0.255,1.652-0.565,2.487-0.927v4.768c-1.658,0.772-3.536,1.158-5.629,1.158
				c-3,0-5.3-0.916-6.9-2.743c-1.6-1.826-2.4-4.47-2.4-7.923c0-2.16,0.388-4.06,1.163-5.696c0.774-1.64,1.891-2.898,3.345-3.778
				s3.164-1.319,5.132-1.319c2.148,0,4.201,0.489,6.16,1.471l-1.646,4.438c-0.733-0.36-1.468-0.661-2.202-0.913
				C65.293,9.478,64.503,9.356,63.661,9.356z"/>
			<path d="M93.033,25.906h-11.8V5.031h11.8v4.524h-6.429v3.283h5.955v4.528h-5.955v3.94h6.429V25.906z"/>
			<path d="M104.869,25.906V5.031h5.371V21.35h7.655v4.556H104.869z"/>
			<path d="M129.431,25.906V5.031h5.368V21.35h7.655v4.556H129.431z"/>
			<path d="M165.79,25.906h-11.802V5.031h11.802v4.524h-6.434v3.283h5.958v4.528h-5.958v3.94h6.434V25.906z"/>
			<path d="M182.996,18.308v7.598h-5.372V5.031h6.514c5.402,0,8.102,2.054,8.102,6.167c0,2.419-1.124,4.29-3.371,5.611l5.791,9.097
				h-6.091l-4.214-7.598H182.996z M182.996,14.066H184c1.877,0,2.816-0.869,2.816-2.613c0-1.435-0.921-2.154-2.76-2.154h-1.061
				V14.066z"/>
			<path d="M217.017,25.906l-0.977-3.916h-6.461l-1.005,3.916h-5.901l6.486-20.965h7.165l6.566,20.965H217.017z M214.926,17.367
				l-0.857-3.429c-0.199-0.759-0.442-1.745-0.729-2.954c-0.286-1.21-0.474-2.076-0.562-2.6c-0.083,0.486-0.243,1.286-0.482,2.398
				c-0.242,1.114-0.775,3.31-1.598,6.584H214.926z"/>
			<path d="M242.163,25.906h-5.37V9.643h-4.854V5.031h15.063v4.612h-4.839V25.906z"/>
			<path d="M270,25.906h-11.802V5.031H270v4.524h-6.432v3.283h5.955v4.528h-5.955v3.94H270V25.906z"/>
		</g>
		<path d="M30.151,12.961c0.147-1.696-5.126-7.836-4.918-9.484c0.117-0.947,3.845-2.901,4.741-2.559
			c0.959,0.365,3.394,9.003,4.193,9.068C35.809,10.128,42.458-0.091,44.378,0c1.314,0.062,4.201,1.669,4.21,3.436
			c0.004,1.587-11.762,9.757-12.048,11.495c-0.472,2.852,7.317,11.301,7.317,12.71c0,1.588-5.121,3.84-6.119,3.173
			c-2.064-1.379-5.29-12.019-5.768-12.136c-1.585-0.39-6.962,8.517-8.13,8.788c-1.042,0.244-3.985-2.212-3.985-3.209
			C19.856,22.133,29.974,15.036,30.151,12.961"/>
	</g>
	<g>
		<path d="M8.498,39.366v6.159c0,1.086-0.329,1.938-0.984,2.559c-0.655,0.621-1.556,0.932-2.702,0.932
			c-1.146,0-2.033-0.312-2.66-0.938c-0.627-0.626-0.941-1.484-0.941-2.578v-6.134h1.107v6.211c0,0.794,0.216,1.405,0.651,1.83
			c0.433,0.425,1.071,0.638,1.914,0.638c0.803,0,1.422-0.214,1.855-0.64c0.434-0.429,0.651-1.042,0.651-1.841v-6.198H8.498z"/>
		<path d="M17.948,48.885h-1.107v-8.536h-3.014v-0.982h7.136v0.982h-3.015V48.885z"/>
		<path d="M26.396,48.885v-9.519h1.107v9.519H26.396z"/>
		<path d="M34.115,48.885v-9.519h1.107v8.517h4.199v1.002H34.115z"/>
		<path d="M45.036,48.885v-9.519h1.107v9.519H45.036z"/>
		<path d="M55.684,48.885h-1.107v-8.536h-3.015v-0.982h7.137v0.982h-3.015V48.885z"/>
		<path d="M64.132,48.885v-9.519h1.107v9.519H64.132z"/>
		<path d="M77.158,48.885h-5.307v-9.519h5.307v0.982h-4.201v3.066h3.947v0.978h-3.947v3.503h4.201V48.885z"/>
		<path d="M88.639,46.352c0,0.839-0.305,1.492-0.911,1.961c-0.608,0.468-1.432,0.703-2.474,0.703c-1.129,0-1.997-0.146-2.604-0.437
			v-1.068c0.391,0.166,0.816,0.296,1.276,0.392c0.46,0.095,0.916,0.143,1.368,0.143c0.738,0,1.293-0.14,1.667-0.419
			c0.373-0.281,0.559-0.67,0.559-1.17c0-0.33-0.065-0.6-0.198-0.81c-0.133-0.211-0.355-0.405-0.665-0.584
			c-0.31-0.177-0.782-0.379-1.416-0.604c-0.886-0.317-1.519-0.692-1.898-1.127c-0.38-0.435-0.569-1-0.569-1.699
			c0-0.734,0.274-1.317,0.827-1.751c0.551-0.436,1.28-0.652,2.187-0.652c0.946,0,1.817,0.175,2.61,0.521l-0.345,0.964
			c-0.786-0.33-1.55-0.495-2.291-0.495c-0.586,0-1.045,0.126-1.374,0.378c-0.331,0.252-0.496,0.601-0.496,1.048
			c0,0.331,0.061,0.601,0.182,0.812c0.122,0.21,0.327,0.404,0.616,0.578c0.288,0.177,0.73,0.371,1.325,0.584
			c0.997,0.355,1.684,0.737,2.061,1.146C88.451,45.172,88.639,45.701,88.639,46.352z"/>
		<path d="M106.264,48.885l-3.229-8.438h-0.053c0.062,0.668,0.092,1.463,0.092,2.383v6.055h-1.022v-9.519h1.666l3.016,7.852h0.052
			l3.041-7.852h1.654v9.519h-1.106v-6.133c0-0.703,0.029-1.468,0.091-2.292h-0.052l-3.256,8.425H106.264z"/>
		<path d="M124.074,48.885l-1.185-3.027h-3.815l-1.173,3.027h-1.12l3.765-9.558h0.931l3.744,9.558H124.074z M122.544,44.861
			l-1.105-2.95c-0.144-0.373-0.291-0.831-0.443-1.373c-0.097,0.417-0.232,0.874-0.41,1.373l-1.121,2.95H122.544z"/>
		<path d="M137.966,48.885h-1.265l-5.201-7.988h-0.052c0.069,0.937,0.104,1.797,0.104,2.578v5.41h-1.021v-9.519h1.249l5.189,7.956
			h0.052c-0.007-0.117-0.027-0.493-0.058-1.129c-0.031-0.637-0.041-1.091-0.033-1.365v-5.462h1.036V48.885z"/>
		<path d="M150.565,48.885l-1.185-3.027h-3.815l-1.173,3.027h-1.119l3.764-9.558h0.931l3.744,9.558H150.565z M149.036,44.861
			l-1.107-2.95c-0.143-0.373-0.291-0.831-0.442-1.373c-0.096,0.417-0.232,0.874-0.41,1.373l-1.12,2.95H149.036z"/>
		<path d="M161.209,43.897h3.235v4.629c-0.504,0.162-1.017,0.282-1.538,0.365c-0.521,0.083-1.124,0.124-1.81,0.124
			c-1.44,0-2.562-0.429-3.365-1.286c-0.804-0.856-1.206-2.059-1.206-3.604c0-0.989,0.199-1.856,0.597-2.602
			c0.396-0.745,0.969-1.313,1.716-1.706c0.747-0.394,1.62-0.59,2.624-0.59c1.016,0,1.962,0.188,2.838,0.561l-0.429,0.977
			c-0.86-0.364-1.687-0.547-2.48-0.547c-1.159,0-2.064,0.345-2.716,1.036c-0.651,0.689-0.977,1.646-0.977,2.871
			c0,1.284,0.314,2.259,0.94,2.923c0.628,0.664,1.549,0.996,2.765,0.996c0.659,0,1.305-0.076,1.934-0.228v-2.93h-2.128V43.897z"/>
		<path d="M176.037,48.885h-5.308v-9.519h5.308v0.982h-4.2v3.066h3.945v0.978h-3.945v3.503h4.2V48.885z"/>
		<path d="M186.36,48.885l-3.229-8.438h-0.052c0.06,0.668,0.09,1.463,0.09,2.383v6.055h-1.022v-9.519h1.667l3.016,7.852h0.053
			l3.039-7.852h1.654v9.519h-1.107v-6.133c0-0.703,0.03-1.468,0.092-2.292h-0.053l-3.256,8.425H186.36z"/>
		<path d="M203.493,48.885h-5.307v-9.519h5.307v0.982h-4.2v3.066h3.946v0.978h-3.946v3.503h4.2V48.885z"/>
		<path d="M217.039,48.885h-1.263l-5.203-7.988h-0.052c0.07,0.937,0.104,1.797,0.104,2.578v5.41h-1.022v-9.519h1.25l5.19,7.956
			h0.051c-0.008-0.117-0.029-0.493-0.058-1.129c-0.031-0.637-0.041-1.091-0.033-1.365v-5.462h1.035V48.885z"/>
		<path d="M226.587,48.885h-1.107v-8.536h-3.014v-0.982h7.137v0.982h-3.016V48.885z"/>
	</g>
</g>
</svg>
