<?xml version="1.0" encoding="utf-8"?>
<!-- Generator: Adobe Illustrator 16.0.0, SVG Export Plug-In . SVG Version: 6.00 Build 0)  -->
<!DOCTYPE svg PUBLIC "-//W3C//DTD SVG 1.1//EN" "http://www.w3.org/Graphics/SVG/1.1/DTD/svg11.dtd">
<svg version="1.1" id="Layer_1" xmlns="http://www.w3.org/2000/svg" xmlns:xlink="http://www.w3.org/1999/xlink" x="0px" y="0px"
	 width="270px" height="51px" viewBox="0 0 270 51" enable-background="new 0 0 270 51" xml:space="preserve">
<g>
	<g>
		<g>
			<path d="M11.802,25.907H0V5.032h11.802v4.524H5.37v3.284h5.956v4.527H5.37v3.941h6.432V25.907z"/>
			<path d="M63.66,9.355c-1.277,0-2.273,0.55-2.991,1.648c-0.715,1.1-1.073,2.615-1.073,4.549c0,4.016,1.454,6.025,4.365,6.025
				c0.878,0,1.731-0.128,2.556-0.388c0.824-0.254,1.654-0.565,2.488-0.926v4.769c-1.659,0.771-3.535,1.155-5.629,1.155
				c-3.001,0-5.299-0.915-6.899-2.741c-1.6-1.827-2.401-4.471-2.401-7.923c0-2.16,0.389-4.06,1.163-5.697
				c0.776-1.639,1.891-2.898,3.347-3.779c1.454-0.88,3.164-1.319,5.131-1.319c2.148,0,4.202,0.489,6.16,1.469l-1.646,4.439
				c-0.732-0.361-1.467-0.663-2.201-0.914C65.292,9.479,64.504,9.355,63.66,9.355z"/>
			<path d="M93.034,25.907H81.231V5.032h11.803v4.524h-6.431v3.284h5.955v4.527h-5.955v3.941h6.431V25.907z"/>
			<path d="M104.87,25.907V5.032h5.369v16.319h7.656v4.557H104.87z"/>
			<path d="M129.431,25.907V5.032h5.368v16.319h7.654v4.557H129.431z"/>
			<path d="M165.791,25.907h-11.803V5.032h11.803v4.524h-6.434v3.284h5.957v4.527h-5.957v3.941h6.434V25.907z"/>
			<path d="M182.996,18.309v7.599h-5.373V5.032h6.514c5.402,0,8.104,2.054,8.104,6.167c0,2.417-1.125,4.29-3.371,5.611l5.791,9.098
				h-6.09l-4.213-7.599H182.996z M182.996,14.066H184c1.877,0,2.816-0.869,2.816-2.614c0-1.435-0.92-2.154-2.758-2.154h-1.062
				V14.066z"/>
			<path d="M217.018,25.907l-0.979-3.917h-6.459l-1.004,3.917h-5.902l6.486-20.966h7.166l6.564,20.966H217.018z M214.926,17.367
				l-0.857-3.427c-0.197-0.76-0.441-1.746-0.729-2.955c-0.285-1.209-0.473-2.076-0.562-2.599c-0.082,0.486-0.242,1.287-0.482,2.399
				c-0.238,1.114-0.773,3.309-1.598,6.583L214.926,17.367L214.926,17.367z"/>
			<path d="M242.162,25.907h-5.369V9.644h-4.854V5.032h15.062v4.612h-4.84V25.907L242.162,25.907z"/>
			<path d="M270,25.907h-11.803V5.032H270v4.524h-6.432v3.284h5.955v4.527h-5.955v3.941H270V25.907z"/>
		</g>
		<path d="M30.15,12.961c0.148-1.696-5.126-7.836-4.917-9.484c0.116-0.946,3.846-2.901,4.74-2.558
			c0.959,0.365,3.394,9.002,4.195,9.067C35.808,10.128,42.456-0.09,44.379,0c1.313,0.062,4.201,1.669,4.208,3.436
			c0.005,1.587-11.761,9.755-12.047,11.495c-0.472,2.852,7.318,11.299,7.318,12.709c0,1.586-5.123,3.84-6.119,3.172
			c-2.064-1.379-5.289-12.018-5.768-12.135c-1.584-0.389-6.962,8.516-8.13,8.79c-1.043,0.244-3.985-2.212-3.985-3.209
			C19.856,22.133,29.973,15.037,30.15,12.961"/>
	</g>
	<g>
		<g>
			<path d="M8.404,46.553c0,0.947-0.344,1.69-1.028,2.229c-0.684,0.537-1.627,0.809-2.832,0.809c-1.203,0-2.189-0.188-2.954-0.562
				v-1.645c0.485,0.228,1,0.406,1.545,0.539c0.547,0.131,1.054,0.196,1.527,0.196c0.688,0,1.197-0.131,1.524-0.394
				c0.328-0.263,0.491-0.612,0.491-1.054c0-0.399-0.151-0.737-0.452-1.013c-0.299-0.276-0.922-0.604-1.863-0.983
				c-0.971-0.393-1.655-0.843-2.052-1.348c-0.399-0.505-0.599-1.111-0.599-1.82c0-0.887,0.315-1.586,0.947-2.097
				c0.631-0.509,1.478-0.764,2.541-0.764c1.02,0,2.034,0.225,3.044,0.67l-0.554,1.419C6.743,40.34,5.898,40.14,5.157,40.14
				c-0.564,0-0.992,0.122-1.283,0.369c-0.292,0.244-0.436,0.568-0.436,0.971c0,0.277,0.057,0.514,0.175,0.71
				c0.116,0.196,0.307,0.381,0.574,0.557c0.267,0.175,0.747,0.404,1.441,0.692c0.782,0.326,1.354,0.629,1.718,0.91
				c0.365,0.28,0.631,0.599,0.8,0.952C8.319,45.655,8.404,46.072,8.404,46.553L8.404,46.553z"/>
		</g>
		<polygon points="19.465,49.443 13.445,49.443 13.445,38.801 19.465,38.801 19.465,40.271 15.186,40.271 15.186,43.17 
			19.197,43.17 19.197,44.625 15.186,44.625 15.186,47.966 19.465,47.966 19.465,49.443 		"/>
		<path d="M26.487,43.751h1.207c0.811,0,1.398-0.15,1.763-0.45c0.363-0.303,0.546-0.748,0.546-1.34c0-0.604-0.198-1.035-0.591-1.296
			c-0.393-0.263-0.985-0.395-1.775-0.395h-1.15V43.751L26.487,43.751z M26.487,45.193v4.25h-1.741V38.801h3.007
			c1.374,0,2.39,0.256,3.05,0.771c0.66,0.515,0.991,1.291,0.991,2.328c0,1.326-0.69,2.271-2.068,2.833l3.007,4.71h-1.981
			l-2.547-4.25H26.487L26.487,45.193z"/>
		<path d="M43.324,38.801h1.806l-3.728,10.643h-1.834l-3.713-10.643h1.791l2.22,6.618c0.116,0.315,0.24,0.721,0.373,1.221
			c0.13,0.496,0.215,0.866,0.254,1.108c0.063-0.368,0.159-0.796,0.292-1.282c0.13-0.484,0.238-0.843,0.32-1.077L43.324,38.801
			L43.324,38.801z"/>
		<polygon points="49.517,49.443 49.517,38.801 51.258,38.801 51.258,49.443 49.517,49.443 		"/>
		<path d="M61.576,40.14c-1,0-1.785,0.354-2.357,1.063c-0.574,0.708-0.859,1.688-0.859,2.934c0,1.307,0.274,2.295,0.826,2.964
			c0.55,0.67,1.348,1.004,2.39,1.004c0.452,0,0.89-0.045,1.311-0.135c0.421-0.089,0.861-0.205,1.317-0.346v1.491
			c-0.834,0.317-1.782,0.476-2.838,0.476c-1.56,0-2.755-0.472-3.589-1.417c-0.835-0.944-1.252-2.294-1.252-4.052
			c0-1.105,0.202-2.074,0.606-2.905c0.405-0.828,0.992-1.466,1.759-1.908c0.765-0.439,1.667-0.661,2.699-0.661
			c1.087,0,2.093,0.229,3.015,0.685l-0.627,1.449c-0.358-0.171-0.739-0.319-1.138-0.448C62.439,40.205,62.018,40.14,61.576,40.14
			L61.576,40.14z"/>
		<polygon points="75.499,49.443 69.479,49.443 69.479,38.801 75.499,38.801 75.499,40.271 71.22,40.271 71.22,43.17 75.23,43.17 
			75.23,44.625 71.22,44.625 71.22,47.966 75.499,47.966 75.499,49.443 		"/>
		<path d="M86.92,46.553c0,0.947-0.344,1.69-1.028,2.229c-0.684,0.537-1.627,0.809-2.833,0.809c-1.203,0-2.188-0.188-2.954-0.562
			v-1.645c0.484,0.228,1,0.406,1.545,0.539c0.547,0.131,1.054,0.196,1.527,0.196c0.688,0,1.197-0.131,1.524-0.394
			c0.328-0.263,0.491-0.612,0.491-1.054c0-0.399-0.15-0.737-0.452-1.013c-0.299-0.276-0.922-0.604-1.863-0.983
			c-0.971-0.393-1.655-0.843-2.052-1.348c-0.399-0.505-0.599-1.111-0.599-1.82c0-0.887,0.316-1.586,0.946-2.097
			c0.631-0.509,1.479-0.764,2.542-0.764c1.02,0,2.034,0.225,3.043,0.67l-0.554,1.419c-0.947-0.396-1.792-0.597-2.533-0.597
			c-0.564,0-0.992,0.122-1.283,0.369c-0.291,0.244-0.436,0.568-0.436,0.971c0,0.277,0.057,0.514,0.175,0.71
			c0.116,0.196,0.308,0.381,0.574,0.557c0.267,0.175,0.747,0.404,1.441,0.692c0.782,0.326,1.354,0.629,1.718,0.91
			c0.365,0.28,0.631,0.599,0.8,0.952C86.835,45.655,86.92,46.072,86.92,46.553L86.92,46.553z"/>
	</g>
</g>
</svg>
