<?xml version="1.0" encoding="utf-8"?>
<!-- Generator: Adobe Illustrator 15.0.0, SVG Export Plug-In . SVG Version: 6.00 Build 0)  -->
<!DOCTYPE svg PUBLIC "-//W3C//DTD SVG 1.1//EN" "http://www.w3.org/Graphics/SVG/1.1/DTD/svg11.dtd">
<svg version="1.1" id="Layer_1" xmlns="http://www.w3.org/2000/svg" xmlns:xlink="http://www.w3.org/1999/xlink" x="0px" y="0px"
	 width="270px" height="51px" viewBox="0 0 270 51" enable-background="new 0 0 270 51" xml:space="preserve">
<g>
	<g>
		<g>
			<path d="M11.803,25.905H0V5.031h11.803v4.524H5.37v3.283h5.956v4.528H5.37v3.94h6.433V25.905z"/>
			<path d="M63.661,9.356c-1.277,0-2.274,0.55-2.991,1.648c-0.715,1.1-1.073,2.615-1.073,4.548c0,4.018,1.454,6.025,4.364,6.025
				c0.877,0,1.731-0.128,2.556-0.386c0.823-0.256,1.653-0.565,2.486-0.927v4.768c-1.658,0.771-3.535,1.158-5.628,1.158
				c-3,0-5.299-0.915-6.899-2.743c-1.601-1.826-2.402-4.47-2.402-7.924c0-2.158,0.389-4.06,1.163-5.696
				c0.776-1.638,1.891-2.897,3.346-3.778c1.455-0.88,3.165-1.318,5.131-1.318c2.148,0,4.201,0.489,6.161,1.471l-1.646,4.438
				c-0.732-0.359-1.468-0.662-2.201-0.912C65.292,9.478,64.504,9.356,63.661,9.356z"/>
			<path d="M93.034,25.905H81.232V5.031h11.801v4.524h-6.431v3.283h5.956v4.528h-5.956v3.94h6.431V25.905z"/>
			<path d="M104.87,25.905V5.031h5.37v16.318h7.656v4.556H104.87z"/>
			<path d="M129.43,25.905V5.031h5.369v16.318h7.655v4.556H129.43z"/>
			<path d="M165.79,25.905h-11.802V5.031h11.802v4.524h-6.432v3.283h5.957v4.528h-5.957v3.94h6.432V25.905z"/>
			<path d="M182.996,18.307v7.598h-5.372V5.031h6.513c5.403,0,8.104,2.055,8.104,6.166c0,2.42-1.125,4.29-3.372,5.612l5.791,9.096
				h-6.09l-4.214-7.598H182.996z M182.996,14.067h1.005c1.877,0,2.814-0.87,2.814-2.614c0-1.435-0.919-2.155-2.759-2.155h-1.061
				V14.067z"/>
			<path d="M217.018,25.905l-0.978-3.915h-6.46l-1.005,3.915h-5.902l6.487-20.963h7.165l6.566,20.963H217.018z M214.926,17.367
				l-0.857-3.43c-0.199-0.758-0.442-1.744-0.729-2.954c-0.284-1.21-0.473-2.076-0.562-2.599c-0.082,0.485-0.243,1.285-0.481,2.399
				c-0.242,1.114-0.777,3.308-1.6,6.583H214.926z"/>
			<path d="M242.163,25.905h-5.371V9.642h-4.854V5.031h15.064v4.611h-4.84V25.905z"/>
			<path d="M270,25.905h-11.802V5.031H270v4.524h-6.431v3.283h5.954v4.528h-5.954v3.94H270V25.905z"/>
		</g>
		<path d="M30.15,12.962c0.147-1.698-5.126-7.837-4.917-9.486c0.116-0.946,3.844-2.9,4.74-2.557
			c0.959,0.364,3.394,9.002,4.194,9.066C35.809,10.128,42.457-0.091,44.379,0c1.313,0.062,4.2,1.669,4.208,3.436
			c0.006,1.586-11.761,9.756-12.046,11.495c-0.473,2.851,7.317,11.301,7.317,12.71c0,1.587-5.122,3.84-6.119,3.173
			c-2.064-1.38-5.29-12.018-5.769-12.137c-1.584-0.389-6.961,8.518-8.13,8.788c-1.042,0.245-3.985-2.21-3.985-3.209
			C19.856,22.133,29.973,15.036,30.15,12.962"/>
	</g>
	<g>
		<path d="M2.416,48.887H1.309v-9.52h5.307v0.984h-4.2v3.483h3.946v0.982H2.416V48.887z"/>
		<path d="M18.176,48.887l-1.185-3.027h-3.816l-1.172,3.027h-1.12l3.764-9.559h0.932l3.743,9.559H18.176z M16.646,44.863
			l-1.107-2.949c-0.144-0.374-0.291-0.832-0.442-1.374c-0.096,0.416-0.233,0.873-0.411,1.374l-1.12,2.949H16.646z"/>
		<path d="M28.707,40.221c-1.046,0-1.872,0.349-2.477,1.044c-0.606,0.697-0.908,1.651-0.908,2.863c0,1.245,0.291,2.207,0.875,2.888
			c0.584,0.679,1.416,1.019,2.497,1.019c0.664,0,1.422-0.118,2.273-0.358v0.97c-0.661,0.248-1.475,0.371-2.442,0.371
			c-1.402,0-2.484-0.424-3.246-1.275s-1.143-2.061-1.143-3.627c0-0.981,0.184-1.84,0.551-2.579c0.367-0.737,0.896-1.307,1.588-1.705
			c0.693-0.399,1.507-0.599,2.445-0.599c0.999,0,1.872,0.182,2.618,0.547l-0.47,0.95C30.148,40.391,29.427,40.221,28.707,40.221z"/>
		<path d="M37.044,48.887v-9.52h1.107v9.52H37.044z"/>
		<path d="M44.763,48.887v-9.52h1.107v8.517h4.198v1.003H44.763z"/>
		<path d="M55.684,48.887v-9.52h1.107v9.52H55.684z"/>
		<path d="M66.333,48.887h-1.107v-8.535h-3.014v-0.984h7.135v0.984h-3.014V48.887z"/>
		<path d="M77.202,44.128l2.541-4.761h1.197l-3.178,5.828v3.691h-1.119v-3.639l-3.172-5.881h1.212L77.202,44.128z"/>
		<path d="M97.926,48.887l-3.229-8.438h-0.052c0.061,0.669,0.091,1.464,0.091,2.384v6.055h-1.021v-9.52h1.667l3.014,7.853h0.052
			l3.041-7.853h1.654v9.52h-1.107v-6.133c0-0.704,0.032-1.468,0.091-2.293h-0.052l-3.256,8.426H97.926z"/>
		<path d="M115.737,48.887l-1.186-3.027h-3.815l-1.172,3.027h-1.119l3.764-9.559h0.931l3.744,9.559H115.737z M114.208,44.863
			l-1.107-2.949c-0.143-0.374-0.291-0.832-0.443-1.374c-0.095,0.416-0.231,0.873-0.41,1.374l-1.119,2.949H114.208z"/>
		<path d="M129.628,48.887h-1.262l-5.203-7.988h-0.053c0.07,0.937,0.104,1.797,0.104,2.578v5.41h-1.022v-9.52h1.25l5.19,7.957h0.052
			c-0.009-0.117-0.027-0.493-0.059-1.129c-0.031-0.637-0.042-1.091-0.033-1.364v-5.464h1.035V48.887z"/>
		<path d="M142.229,48.887l-1.186-3.027h-3.814l-1.172,3.027h-1.119l3.762-9.559h0.932l3.742,9.559H142.229z M140.7,44.863
			l-1.107-2.949c-0.142-0.374-0.291-0.832-0.442-1.374c-0.095,0.416-0.231,0.873-0.411,1.374l-1.119,2.949H140.7z"/>
		<path d="M152.872,43.9h3.234v4.629c-0.502,0.161-1.016,0.281-1.537,0.364c-0.521,0.082-1.123,0.123-1.81,0.123
			c-1.44,0-2.563-0.428-3.364-1.285c-0.805-0.857-1.207-2.06-1.207-3.604c0-0.99,0.2-1.857,0.597-2.603
			c0.397-0.744,0.968-1.312,1.717-1.706c0.745-0.393,1.62-0.588,2.623-0.588c1.015,0,1.962,0.187,2.839,0.56l-0.43,0.977
			c-0.859-0.364-1.686-0.547-2.48-0.547c-1.159,0-2.064,0.345-2.717,1.035c-0.65,0.689-0.976,1.647-0.976,2.872
			c0,1.284,0.314,2.259,0.94,2.923c0.627,0.664,1.549,0.996,2.766,0.996c0.658,0,1.304-0.076,1.933-0.229V44.89h-2.128V43.9z"/>
		<path d="M167.699,48.887h-5.307v-9.52h5.307v0.984H163.5v3.065h3.945v0.978H163.5v3.502h4.199V48.887z"/>
		<path d="M178.022,48.887l-3.229-8.438h-0.053c0.061,0.669,0.092,1.464,0.092,2.384v6.055h-1.023v-9.52h1.667l3.015,7.853h0.053
			l3.04-7.853h1.654v9.52h-1.107v-6.133c0-0.704,0.03-1.468,0.092-2.293h-0.052l-3.256,8.426H178.022z"/>
		<path d="M195.157,48.887h-5.308v-9.52h5.308v0.984h-4.201v3.065h3.947v0.978h-3.947v3.502h4.201V48.887z"/>
		<path d="M208.702,48.887h-1.262l-5.205-7.988h-0.052c0.07,0.937,0.104,1.797,0.104,2.578v5.41h-1.021v-9.52h1.25l5.189,7.957
			h0.053c-0.009-0.117-0.028-0.493-0.059-1.129c-0.031-0.637-0.042-1.091-0.033-1.364v-5.464h1.035V48.887z"/>
		<path d="M218.25,48.887h-1.106v-8.535h-3.014v-0.984h7.136v0.984h-3.016V48.887z"/>
	</g>
</g>
</svg>
