<?xml version="1.0" encoding="utf-8"?>
<!-- Generator: Adobe Illustrator 15.0.0, SVG Export Plug-In . SVG Version: 6.00 Build 0)  -->
<!DOCTYPE svg PUBLIC "-//W3C//DTD SVG 1.1//EN" "http://www.w3.org/Graphics/SVG/1.1/DTD/svg11.dtd">
<svg version="1.1" id="Layer_1" xmlns="http://www.w3.org/2000/svg" xmlns:xlink="http://www.w3.org/1999/xlink" x="0px" y="0px"
	 width="270px" height="51px" viewBox="0 0 270 51" enable-background="new 0 0 270 51" xml:space="preserve">
<g>
	<g>
		<g>
			<path d="M11.803,25.906H0V5.031h11.803v4.524H5.371v3.283h5.955v4.528H5.371v3.94h6.432V25.906z"/>
			<path d="M63.661,9.356c-1.277,0-2.274,0.551-2.991,1.648c-0.714,1.1-1.073,2.615-1.073,4.549c0,4.017,1.454,6.025,4.365,6.025
				c0.877,0,1.73-0.128,2.556-0.387c0.823-0.255,1.652-0.565,2.487-0.927v4.768c-1.658,0.772-3.536,1.158-5.629,1.158
				c-3,0-5.3-0.916-6.9-2.743c-1.6-1.826-2.4-4.47-2.4-7.923c0-2.16,0.388-4.06,1.163-5.696c0.774-1.64,1.891-2.898,3.345-3.778
				s3.164-1.319,5.132-1.319c2.148,0,4.201,0.489,6.16,1.471l-1.646,4.438c-0.733-0.359-1.468-0.661-2.202-0.912
				C65.293,9.479,64.503,9.356,63.661,9.356z"/>
			<path d="M93.033,25.906h-11.8V5.031h11.8v4.524h-6.43v3.283h5.955v4.528h-5.955v3.94h6.43V25.906z"/>
			<path d="M104.869,25.906V5.031h5.371V21.35h7.655v4.556H104.869z"/>
			<path d="M129.431,25.906V5.031h5.368V21.35h7.655v4.556H129.431z"/>
			<path d="M165.79,25.906h-11.802V5.031h11.802v4.524h-6.434v3.283h5.958v4.528h-5.958v3.94h6.434V25.906z"/>
			<path d="M182.996,18.309v7.597h-5.372V5.031h6.514c5.402,0,8.102,2.054,8.102,6.167c0,2.419-1.124,4.29-3.371,5.611l5.791,9.097
				h-6.091l-4.214-7.597H182.996z M182.996,14.066H184c1.877,0,2.816-0.868,2.816-2.613c0-1.434-0.921-2.154-2.76-2.154h-1.061
				V14.066z"/>
			<path d="M217.017,25.906l-0.977-3.916h-6.461l-1.005,3.916h-5.901l6.486-20.964h7.165l6.566,20.964H217.017z M214.926,17.367
				l-0.857-3.429c-0.199-0.759-0.442-1.745-0.729-2.954c-0.286-1.21-0.474-2.076-0.562-2.599c-0.083,0.485-0.243,1.285-0.482,2.398
				c-0.242,1.113-0.775,3.309-1.598,6.583H214.926z"/>
			<path d="M242.163,25.906h-5.37V9.643h-4.854V5.031h15.063v4.612h-4.839V25.906z"/>
			<path d="M270,25.906h-11.802V5.031H270v4.524h-6.432v3.283h5.955v4.528h-5.955v3.94H270V25.906z"/>
		</g>
		<path d="M30.151,12.962c0.147-1.697-5.126-7.837-4.918-9.485c0.117-0.946,3.845-2.901,4.741-2.558
			c0.959,0.364,3.394,9.002,4.193,9.067C35.809,10.128,42.458-0.091,44.378,0c1.314,0.062,4.201,1.669,4.21,3.436
			c0.004,1.587-11.762,9.757-12.048,11.495c-0.472,2.852,7.317,11.301,7.317,12.711c0,1.587-5.121,3.839-6.119,3.172
			c-2.064-1.379-5.29-12.019-5.768-12.136c-1.585-0.389-6.962,8.517-8.13,8.788c-1.042,0.244-3.985-2.211-3.985-3.209
			C19.856,22.133,29.974,15.036,30.151,12.962"/>
	</g>
	<g>
		<path d="M1.309,39.362h2.69c1.263,0,2.176,0.188,2.74,0.566c0.564,0.377,0.847,0.975,0.847,1.791c0,0.564-0.158,1.029-0.471,1.396
			c-0.316,0.366-0.775,0.604-1.378,0.713v0.065c1.445,0.247,2.168,1.007,2.168,2.278c0,0.852-0.288,1.516-0.864,1.993
			c-0.575,0.477-1.378,0.716-2.412,0.716H1.309V39.362z M2.416,43.438H4.24c0.78,0,1.343-0.123,1.686-0.368
			c0.344-0.245,0.515-0.659,0.515-1.24c0-0.533-0.192-0.919-0.573-1.156c-0.383-0.236-0.99-0.354-1.824-0.354H2.416V43.438z
			 M2.416,44.376v3.562h1.986c0.769,0,1.347-0.149,1.735-0.446s0.583-0.763,0.583-1.396c0-0.592-0.2-1.025-0.597-1.303
			c-0.396-0.278-1.001-0.417-1.813-0.417H2.416z"/>
		<path d="M15.057,44.923v3.959h-1.106v-9.52h2.609c1.168,0,2.031,0.224,2.589,0.67c0.558,0.448,0.836,1.12,0.836,2.02
			c0,1.258-0.638,2.109-1.915,2.552l2.585,4.278h-1.309l-2.306-3.959H15.057z M15.057,43.973h1.517c0.782,0,1.355-0.156,1.72-0.466
			c0.364-0.311,0.547-0.776,0.547-1.396c0-0.63-0.186-1.083-0.557-1.361c-0.371-0.277-0.967-0.417-1.787-0.417h-1.439V43.973z"/>
		<path d="M32.177,48.882l-1.185-3.027h-3.814l-1.172,3.027h-1.12l3.763-9.559h0.932l3.743,9.559H32.177z M30.648,44.857
			l-1.107-2.949c-0.144-0.373-0.292-0.832-0.443-1.374c-0.095,0.417-0.232,0.874-0.41,1.374l-1.12,2.949H30.648z"/>
		<path d="M46.068,48.882h-1.262l-5.203-7.989h-0.052c0.069,0.938,0.105,1.797,0.105,2.578v5.411h-1.023v-9.52h1.251l5.19,7.957
			h0.051c-0.008-0.118-0.028-0.494-0.059-1.13c-0.03-0.636-0.041-1.091-0.032-1.364v-5.463h1.035V48.882z"/>
		<path d="M60.285,44.03c0,1.571-0.427,2.773-1.28,3.605c-0.853,0.83-2.08,1.246-3.682,1.246h-2.638v-9.52h2.918
			c1.48,0,2.63,0.41,3.45,1.23C59.875,41.413,60.285,42.56,60.285,44.03z M59.114,44.069c0-1.241-0.312-2.177-0.936-2.806
			c-0.623-0.63-1.547-0.944-2.776-0.944h-1.609v7.605h1.348c1.32,0,2.311-0.325,2.976-0.975
			C58.781,46.303,59.114,45.341,59.114,44.069z"/>
		<path d="M78.085,48.882l-3.229-8.438h-0.052c0.06,0.668,0.091,1.463,0.091,2.383v6.056h-1.023v-9.52h1.667l3.014,7.853h0.052
			l3.041-7.853h1.654v9.52h-1.107v-6.134c0-0.703,0.03-1.467,0.092-2.292h-0.053l-3.255,8.426H78.085z"/>
		<path d="M95.897,48.882l-1.186-3.027h-3.816l-1.172,3.027h-1.12l3.764-9.559h0.932l3.743,9.559H95.897z M94.366,44.857
			l-1.107-2.949c-0.144-0.373-0.29-0.832-0.442-1.374c-0.095,0.417-0.232,0.874-0.41,1.374l-1.12,2.949H94.366z"/>
		<path d="M109.788,48.882h-1.264l-5.203-7.989h-0.051c0.068,0.938,0.104,1.797,0.104,2.578v5.411h-1.022v-9.52h1.25l5.189,7.957
			h0.053c-0.01-0.118-0.028-0.494-0.059-1.13c-0.031-0.636-0.041-1.091-0.033-1.364v-5.463h1.036V48.882z"/>
		<path d="M122.39,48.882l-1.186-3.027h-3.815l-1.172,3.027h-1.12l3.764-9.559h0.932l3.743,9.559H122.39z M120.859,44.857
			l-1.106-2.949c-0.145-0.373-0.292-0.832-0.443-1.374c-0.096,0.417-0.231,0.874-0.41,1.374l-1.12,2.949H120.859z"/>
		<path d="M133.031,43.895h3.237v4.63c-0.504,0.16-1.018,0.28-1.538,0.363c-0.521,0.083-1.124,0.124-1.81,0.124
			c-1.44,0-2.562-0.429-3.366-1.286c-0.804-0.856-1.205-2.059-1.205-3.604c0-0.989,0.198-1.856,0.596-2.602s0.97-1.312,1.716-1.706
			c0.746-0.393,1.622-0.589,2.624-0.589c1.016,0,1.962,0.188,2.84,0.56l-0.43,0.978c-0.86-0.365-1.688-0.547-2.48-0.547
			c-1.16,0-2.065,0.344-2.717,1.035c-0.65,0.689-0.977,1.647-0.977,2.871c0,1.284,0.313,2.26,0.941,2.924
			c0.627,0.664,1.549,0.995,2.765,0.995c0.659,0,1.304-0.075,1.933-0.228v-2.93h-2.129V43.895z"/>
		<path d="M147.858,48.882h-5.306v-9.52h5.306v0.983h-4.199v3.066h3.945v0.977h-3.945v3.503h4.199V48.882z"/>
		<path d="M158.182,48.882l-3.229-8.438h-0.053c0.062,0.668,0.092,1.463,0.092,2.383v6.056h-1.022v-9.52h1.666l3.016,7.853h0.052
			l3.041-7.853h1.653v9.52h-1.106v-6.134c0-0.703,0.03-1.467,0.091-2.292h-0.052l-3.255,8.426H158.182z"/>
		<path d="M175.315,48.882h-5.307v-9.52h5.307v0.983h-4.199v3.066h3.945v0.977h-3.945v3.503h4.199V48.882z"/>
		<path d="M188.86,48.882h-1.263l-5.202-7.989h-0.052c0.068,0.938,0.104,1.797,0.104,2.578v5.411h-1.022v-9.52h1.25l5.19,7.957
			h0.053c-0.01-0.118-0.028-0.494-0.061-1.13c-0.029-0.636-0.041-1.091-0.031-1.364v-5.463h1.034V48.882z"/>
		<path d="M198.409,48.882h-1.106v-8.536h-3.016v-0.983h7.136v0.983h-3.014V48.882z"/>
	</g>
</g>
</svg>
