<?xml version="1.0" encoding="utf-8"?>
<!-- Generator: Adobe Illustrator 15.0.0, SVG Export Plug-In . SVG Version: 6.00 Build 0)  -->
<!DOCTYPE svg PUBLIC "-//W3C//DTD SVG 1.1//EN" "http://www.w3.org/Graphics/SVG/1.1/DTD/svg11.dtd">
<svg version="1.1" id="Layer_1" xmlns="http://www.w3.org/2000/svg" xmlns:xlink="http://www.w3.org/1999/xlink" x="0px" y="0px"
	 width="270px" height="51px" viewBox="0 0 270 51" enable-background="new 0 0 270 51" xml:space="preserve">
<g>
	<g>
		<g>
			<path d="M11.802,25.906H0V5.031h11.802v4.524H5.37v3.284h5.956v4.527H5.37v3.941h6.432V25.906z"/>
			<path d="M63.66,9.355c-1.277,0-2.273,0.55-2.991,1.648c-0.715,1.1-1.073,2.615-1.073,4.549c0,4.016,1.454,6.025,4.365,6.025
				c0.878,0,1.731-0.128,2.556-0.388c0.824-0.254,1.654-0.565,2.488-0.926v4.768c-1.659,0.772-3.535,1.157-5.629,1.157
				c-3.001,0-5.299-0.916-6.899-2.742c-1.6-1.827-2.401-4.471-2.401-7.923c0-2.16,0.389-4.06,1.163-5.697
				c0.776-1.639,1.891-2.898,3.347-3.779c1.454-0.88,3.164-1.319,5.131-1.319c2.148,0,4.202,0.489,6.16,1.469l-1.646,4.439
				c-0.732-0.361-1.467-0.663-2.201-0.914C65.292,9.479,64.504,9.355,63.66,9.355z"/>
			<path d="M93.034,25.906H81.231V5.031h11.803v4.524h-6.431v3.284h5.955v4.527h-5.955v3.941h6.431V25.906z"/>
			<path d="M104.87,25.906V5.031h5.369V21.35h7.656v4.556H104.87z"/>
			<path d="M129.431,25.906V5.031h5.368V21.35h7.655v4.556H129.431z"/>
			<path d="M165.791,25.906h-11.803V5.031h11.803v4.524h-6.434v3.284h5.958v4.527h-5.958v3.941h6.434V25.906z"/>
			<path d="M182.996,18.308v7.598h-5.372V5.031h6.513c5.402,0,8.104,2.054,8.104,6.167c0,2.417-1.125,4.29-3.372,5.611l5.792,9.097
				h-6.091l-4.213-7.598H182.996z M182.996,14.066H184c1.878,0,2.816-0.869,2.816-2.614c0-1.435-0.92-2.154-2.758-2.154h-1.062
				V14.066z"/>
			<path d="M217.018,25.906l-0.979-3.916h-6.459l-1.004,3.916h-5.902l6.486-20.965h7.166l6.564,20.965H217.018z M214.926,17.366
				l-0.857-3.427c-0.198-0.76-0.441-1.746-0.729-2.955c-0.286-1.209-0.473-2.076-0.562-2.599c-0.082,0.486-0.243,1.287-0.482,2.399
				c-0.24,1.114-0.775,3.309-1.599,6.583H214.926z"/>
			<path d="M242.163,25.906h-5.37V9.643h-4.854V5.031h15.063v4.612h-4.84V25.906z"/>
			<path d="M270,25.906h-11.802V5.031H270v4.524h-6.431v3.284h5.955v4.527h-5.955v3.941H270V25.906z"/>
		</g>
		<path d="M30.15,12.961c0.148-1.696-5.126-7.836-4.917-9.484c0.116-0.946,3.846-2.901,4.74-2.558
			c0.959,0.365,3.394,9.002,4.195,9.067C35.808,10.128,42.456-0.091,44.379,0c1.313,0.062,4.201,1.669,4.208,3.436
			c0.005,1.587-11.761,9.755-12.047,11.495c-0.472,2.852,7.318,11.3,7.318,12.709c0,1.587-5.123,3.84-6.119,3.172
			c-2.064-1.378-5.289-12.018-5.768-12.135c-1.584-0.389-6.962,8.517-8.13,8.789c-1.043,0.244-3.985-2.212-3.985-3.209
			C19.856,22.133,29.973,15.036,30.15,12.961"/>
	</g>
	<g>
		<path d="M8.535,48.891H7.428v-4.482H2.416v4.482H1.309v-9.523h1.107v4.052h5.013v-4.052h1.107V48.891z"/>
		<path d="M23.411,44.114c0,1.523-0.386,2.724-1.156,3.596c-0.771,0.874-1.843,1.311-3.213,1.311c-1.403,0-2.485-0.429-3.247-1.286
			s-1.143-2.07-1.143-3.634c0-1.55,0.382-2.75,1.146-3.604c0.764-0.852,1.848-1.28,3.256-1.28c1.366,0,2.434,0.437,3.204,1.303
			C23.026,41.389,23.411,42.586,23.411,44.114z M15.825,44.114c0,1.291,0.274,2.269,0.823,2.936
			c0.549,0.666,1.346,0.998,2.394,0.998c1.055,0,1.85-0.33,2.39-0.994c0.538-0.665,0.806-1.644,0.806-2.939
			c0-1.28-0.268-2.252-0.803-2.914c-0.537-0.662-1.331-0.993-2.379-0.993c-1.056,0-1.858,0.333-2.407,1.001
			C16.1,41.874,15.825,42.844,15.825,44.114z"/>
		<path d="M29.534,48.891v-9.523h1.107v8.52h4.199v1.004H29.534z"/>
		<path d="M48.055,44.036c0,1.572-0.427,2.775-1.281,3.607c-0.852,0.83-2.08,1.247-3.681,1.247h-2.638v-9.523h2.918
			c1.48,0,2.63,0.41,3.451,1.23C47.644,41.418,48.055,42.563,48.055,44.036z M46.882,44.075c0-1.241-0.312-2.178-0.935-2.806
			c-0.623-0.631-1.548-0.945-2.776-0.945h-1.609v7.607h1.348c1.32,0,2.312-0.324,2.976-0.974
			C46.55,46.309,46.882,45.349,46.882,44.075z"/>
		<path d="M54.177,48.891v-9.523h1.106v9.523H54.177z"/>
		<path d="M69.332,48.891h-1.263l-5.202-7.994h-0.052c0.069,0.938,0.104,1.798,0.104,2.58v5.414h-1.022v-9.523h1.251l5.189,7.96
			h0.051c-0.007-0.117-0.028-0.495-0.058-1.131c-0.03-0.636-0.042-1.092-0.033-1.364v-5.465h1.035V48.891z"/>
		<path d="M80.137,43.9h3.236v4.632c-0.504,0.161-1.016,0.281-1.537,0.363c-0.521,0.084-1.125,0.125-1.811,0.125
			c-1.441,0-2.563-0.429-3.366-1.286c-0.804-0.857-1.205-2.061-1.205-3.607c0-0.989,0.199-1.856,0.596-2.602
			c0.397-0.744,0.97-1.313,1.716-1.706c0.747-0.393,1.621-0.589,2.624-0.589c1.016,0,1.961,0.188,2.838,0.56L82.8,40.767
			c-0.86-0.365-1.687-0.547-2.481-0.547c-1.159,0-2.064,0.346-2.714,1.037c-0.652,0.689-0.978,1.646-0.978,2.87
			c0,1.287,0.314,2.262,0.941,2.927c0.626,0.664,1.549,0.994,2.764,0.994c0.659,0,1.304-0.076,1.934-0.226v-2.932h-2.129V43.9z"/>
		<path d="M95.03,46.355c0,0.84-0.303,1.492-0.911,1.962c-0.608,0.469-1.432,0.703-2.474,0.703c-1.129,0-1.998-0.146-2.605-0.437
			v-1.069c0.391,0.166,0.816,0.297,1.276,0.391c0.46,0.097,0.917,0.143,1.367,0.143c0.738,0,1.294-0.139,1.667-0.418
			c0.373-0.28,0.56-0.67,0.56-1.17c0-0.331-0.066-0.6-0.199-0.811c-0.132-0.212-0.353-0.405-0.665-0.584
			c-0.31-0.177-0.782-0.379-1.415-0.605c-0.887-0.318-1.519-0.692-1.898-1.127c-0.379-0.434-0.569-1.001-0.569-1.699
			c0-0.735,0.275-1.317,0.827-1.753c0.55-0.434,1.279-0.65,2.188-0.65c0.946,0,1.817,0.174,2.61,0.521l-0.344,0.964
			c-0.786-0.33-1.55-0.495-2.292-0.495c-0.586,0-1.044,0.127-1.374,0.378c-0.331,0.253-0.495,0.602-0.495,1.049
			c0,0.329,0.06,0.6,0.181,0.812c0.121,0.21,0.328,0.404,0.616,0.579c0.29,0.176,0.73,0.37,1.326,0.582
			c0.998,0.357,1.685,0.738,2.06,1.147C94.843,45.175,95.03,45.703,95.03,46.355z"/>
	</g>
</g>
</svg>
