<?xml version="1.0" encoding="utf-8"?>
<!-- Generator: Adobe Illustrator 15.0.0, SVG Export Plug-In . SVG Version: 6.00 Build 0)  -->
<!DOCTYPE svg PUBLIC "-//W3C//DTD SVG 1.1//EN" "http://www.w3.org/Graphics/SVG/1.1/DTD/svg11.dtd">
<svg version="1.1" id="Layer_1" xmlns="http://www.w3.org/2000/svg" xmlns:xlink="http://www.w3.org/1999/xlink" x="0px" y="0px"
	 width="146px" height="98px" viewBox="0 0 146 98" enable-background="new 0 0 146 98" xml:space="preserve">
<g>
	<polygon fill="#BEBD00" points="0.176,58.901 0.176,79.3 5.618,79.3 5.618,70.893 18.217,70.893 18.217,67.709 5.618,67.709 
		5.618,62.172 18.91,62.172 18.91,58.901 	"/>
	<rect x="22.118" y="58.903" fill="#BEBD00" width="5.442" height="20.397"/>
	<path fill="#BEBD00" d="M49.928,66.055c0-1.446-0.187-2.375-0.557-2.809c-0.543-0.631-1.745-0.95-3.602-0.95h-7.971v6.91h7.627
		c1.692,0,2.861-0.233,3.52-0.703C49.596,68.036,49.928,67.22,49.928,66.055 M55.502,65.2c0,2.079-0.43,3.494-1.283,4.247
		c-0.631,0.574-1.919,1.012-3.865,1.318v0.123c1.604,0,2.81,0.345,3.601,1.039c0.8,0.691,1.206,1.661,1.206,2.904v4.469h-5.441
		v-4.159c0-0.898-0.372-1.574-1.122-2.021c-0.765-0.434-1.828-0.646-3.171-0.646h-7.627v6.826h-5.276V58.899h13.762
		c3.312,0,5.686,0.451,7.117,1.348C54.804,61.165,55.502,62.816,55.502,65.2"/>
	<path fill="#BEBD00" d="M81.435,72.998c0,2.695-0.783,4.451-2.354,5.263c-1.459,0.758-4.585,1.132-9.388,1.132
		c-4.55,0-7.466-0.352-8.75-1.067c-1.489-0.816-2.228-2.661-2.228-5.535h5.11c0,1.552,0.341,2.516,1.02,2.903
		c0.684,0.383,2.373,0.574,5.061,0.574c2.485,0,4.077-0.119,4.761-0.365c0.995-0.361,1.499-1.217,1.499-2.567
		c0-1.196-0.479-1.996-1.418-2.381c-0.685-0.287-1.908-0.432-3.687-0.432h-1.879c-3.775,0-6.318-0.297-7.63-0.884
		c-1.863-0.837-2.796-2.56-2.796-5.177c0-2.343,0.818-3.891,2.45-4.644c1.463-0.671,4.37-1.007,8.741-1.007
		c4.48,0,7.423,0.416,8.83,1.253c1.313,0.77,1.977,2.371,1.977,4.804h-5.152c0-1.223-0.357-2.044-1.067-2.453
		c-0.716-0.408-2.259-0.607-4.629-0.607c-2.378,0-3.93,0.173-4.668,0.522c-0.749,0.342-1.124,1.062-1.124,2.174
		c0,1.032,0.29,1.742,0.86,2.133c0.544,0.408,1.547,0.614,2.999,0.614h1.413c0.488,0,0.978-0.012,1.455-0.03
		c3.52,0,5.976,0.274,7.38,0.83C80.364,68.886,81.435,70.537,81.435,72.998"/>
	<polygon fill="#BEBD00" points="104.752,62.355 96.442,62.355 96.442,79.301 90.96,79.301 90.96,62.355 82.767,62.355 
		82.767,58.901 104.752,58.901 	"/>
	<polygon fill="#BEBD00" points="0,84.595 0,86.269 3.97,86.269 3.97,94.477 6.63,94.477 6.63,86.269 10.652,86.269 10.652,84.595 	
		"/>
	<polygon fill="#BEBD00" points="11.635,84.595 11.635,94.477 21,94.477 21,92.919 14.167,92.919 14.167,90.119 20.609,90.119 
		20.609,88.738 14.167,88.738 14.167,86.165 20.938,86.165 20.938,84.595 	"/>
	<path fill="#BEBD00" d="M34.289,90.933c0,1.462-0.366,2.427-1.1,2.905c-0.735,0.478-2.28,0.711-4.633,0.711
		c-2.026,0-3.423-0.205-4.201-0.622c-1.049-0.562-1.572-1.677-1.572-3.36v-2.018c0-1.521,0.391-2.575,1.182-3.156
		c0.774-0.575,2.3-0.859,4.592-0.859c2.365,0,3.869,0.172,4.504,0.507c0.778,0.402,1.168,1.361,1.168,2.871h-2.622
		c0-0.806-0.137-1.299-0.411-1.479c-0.276-0.176-1.089-0.268-2.451-0.268c-1.382,0-2.264,0.114-2.636,0.327
		c-0.388,0.225-0.582,0.803-0.582,1.731v2.312c0,1.012,0.197,1.665,0.603,1.952c0.401,0.291,1.324,0.429,2.759,0.429
		c1.219,0,2.001-0.113,2.349-0.355c0.346-0.233,0.519-0.605,0.519-1.11v-0.179v-0.159c-0.029-0.082-0.041-0.145-0.041-0.18H34.289z"
		/>
	<polygon fill="#BEBD00" points="44.938,84.595 44.938,88.633 38.547,88.633 38.547,84.595 35.933,84.595 35.933,94.477 
		38.547,94.477 38.547,90.252 44.938,90.252 44.938,94.477 47.582,94.477 47.582,84.595 	"/>
	<polygon fill="#BEBD00" points="60.182,84.595 60.182,92.867 60.096,92.867 54.312,84.595 49.975,84.595 49.975,94.477 
		52.441,94.477 52.441,86.203 52.523,86.203 58.312,94.477 62.676,94.477 62.676,84.595 	"/>
	<rect x="65.094" y="84.595" fill="#BEBD00" width="2.633" height="9.888"/>
	<path fill="#BEBD00" d="M81.246,90.933c0,1.462-0.37,2.427-1.102,2.905c-0.736,0.478-2.282,0.711-4.637,0.711
		c-2.023,0-3.422-0.205-4.197-0.622c-1.049-0.562-1.572-1.677-1.572-3.36v-2.018c0-1.521,0.39-2.575,1.177-3.156
		c0.773-0.575,2.306-0.859,4.593-0.859c2.367,0,3.874,0.172,4.512,0.507c0.773,0.402,1.159,1.361,1.159,2.871h-2.615
		c0-0.806-0.138-1.299-0.416-1.479c-0.275-0.176-1.09-0.268-2.454-0.268c-1.38,0-2.259,0.114-2.632,0.327
		c-0.391,0.225-0.588,0.803-0.588,1.731v2.312c0,1.012,0.204,1.665,0.604,1.952c0.406,0.291,1.33,0.429,2.766,0.429
		c1.221,0,1.999-0.113,2.347-0.355c0.347-0.233,0.516-0.605,0.516-1.11v-0.179v-0.159c-0.027-0.082-0.038-0.145-0.038-0.18H81.246z"
		/>
	<path fill="#BEBD00" d="M88.037,86.043l2.383,5.129h-4.728L88.037,86.043z M86.063,84.595l-4.565,9.882h2.741l0.831-1.896h5.933
		l0.895,1.896h2.679l-4.653-9.882H86.063z"/>
	<polygon fill="#BEBD00" points="95.845,84.595 95.845,94.477 104.876,94.477 104.876,92.819 98.524,92.819 98.524,84.595 	"/>
	<path fill="#CBC826" d="M58.805,9.791c0,0,59.695,20.624,70.672,82.784c0,0,6.638-45.155-40.074-70.83
		c0,0-12.611-7.711-29.565-12.048L58.805,9.791z"/>
	<path fill="#BEBD00" d="M58.805,9.791c0,0,59.695,20.624,70.672,82.784c0,0,6.638-45.155-40.074-70.83
		c0,0-12.611-7.711-29.565-12.048L58.805,9.791z"/>
	<path fill="#706F6F" d="M63.129,0.102c0,0,68.015,23.502,80.524,94.317c0,0,7.567-51.439-45.654-80.694
		c0,0-14.371-8.784-33.693-13.725L63.129,0.102z"/>
</g>
</svg>
