<?xml version="1.0" encoding="utf-8"?>
<!-- Generator: Adobe Illustrator 15.0.1, SVG Export Plug-In . SVG Version: 6.00 Build 0)  -->
<!DOCTYPE svg PUBLIC "-//W3C//DTD SVG 1.1//EN" "http://www.w3.org/Graphics/SVG/1.1/DTD/svg11.dtd">
<svg version="1.1" id="Layer_1" xmlns="http://www.w3.org/2000/svg" xmlns:xlink="http://www.w3.org/1999/xlink" x="0px" y="0px"
	 width="85.754px" height="90px" viewBox="7.623 8 85.754 90" enable-background="new 7.623 8 85.754 90" xml:space="preserve">
<g>
	<path fill="#BEBD00" d="M34.701,34.404c-8.318,1.117-11.01,8.762-11.549,10.651v-9.183l-1.989,1.235V85.95h1.989V53.578
		c0-5.814,3.785-15.028,10.273-17.01c1.299-0.399,1.317-0.297,1.317-0.297L34.701,34.404z"/>
	<path fill="#BEBD00" d="M91.588,53.655c-0.041-0.72-0.133-1.462-0.305-2.235c-0.17-0.767-1.83-7.181-9.168-7.181
		c-7.332,0-8.992,6.021-8.992,6.021V8h-1.908v60.801h1.908V57.543c0-1.568,0.203-2.645,0.629-3.965
		c0.217-0.692,2.018-7.357,8.283-7.357s7.443,5.586,7.541,6.56c0.102,0.968,0.16,1.773,0.16,2.408V85.95h1.896V55.541
		C91.633,55.002,91.627,54.379,91.588,53.655z"/>
	<path fill="#BEBD00" d="M16.035,15.967c1.278-3.353,3.524-4.663,5.497-5.404c1.444-0.536,2.772-0.641,2.772-0.641V8
		c-1.412,0-3.812,0.666-5.337,1.604c-3.18,1.822-4.609,4.855-5.222,6.608c-0.633,1.778-0.988,3.845-0.988,5.403
		c0,2.826,0,5.709,0,6.184h-0.039H7.623v1.831h5.095v56.32h2.105V29.63h19.838v-1.831H14.875c0-0.313,0-1.781,0-5.788
		C14.875,19.762,15.378,17.69,16.035,15.967z"/>
	<path fill="#BEBD00" d="M65.639,57.615c-1.684-1.801-3.824-2.473-7.76-3.594c-3.072-0.877-4.15-3.098-4.129-4.881
		c0.012-1.307,0.596-2.511,1.689-3.48c0.791-0.717,2.123-1.122,3.633-1.122c1.109,0,2.219,0.221,3.098,0.615
		c0.883,0.397,1.998,1.263,2.314,3.152l0.008,0.054c0.064,0.365,0.143,1.217,0.145,1.229l0.01,0.258h2.029v-0.278
		c0-2.381-0.854-4.193-2.543-5.379c-1.553-1.104-3.443-1.404-4.744-1.454c-0.135-0.006-0.252-0.012-0.387-0.012
		c-3.562,0-7.402,2.069-7.402,6.606c0,4.844,4.66,6.21,8.059,7.205c0.375,0.109,0.738,0.215,1.074,0.32
		c3.977,1.227,4.568,4.016,4.568,5.566c0,2.519-1.613,5.47-6.166,5.47c-4.285,0-5.686-2.419-6.141-3.858
		c-0.25-0.797-0.338-2.187-0.34-2.191l-0.018-0.259h-1.981v0.268c0,0.071,0.007,1.538,0.417,2.87
		c0.703,2.302,3.17,4.996,7.777,4.995c0.117,0,0.225,0.004,0.342,0c5.572-0.153,7.504-3.319,8.129-5.948
		C67.803,61.796,67.074,59.154,65.639,57.615z"/>
	<path fill="#BEBD00" d="M44.417,45.021c-1.383-1.524-3.18-2.301-5.345-2.301c-6.808,0-9.22,7.321-9.22,13.587
		c0,2.238,0.442,13.4,9.277,13.4c7.042,0,8.217-7.615,8.227-7.696l0.053-0.354l-1.796-0.052l-0.057,0.252
		c-0.054,0.242-1.338,5.997-6.417,5.997c-5.03,0-7.337-5.556-7.42-11.166h15.828l0.014-0.295
		C47.576,56.082,47.897,48.87,44.417,45.021z M31.764,54.748c0.103-1.776,0.901-10.284,7.155-10.284c1.645,0,3.031,0.59,4.113,1.742
		c2.42,2.576,2.696,7.292,2.726,8.542H31.764z"/>
	<g>
		<path fill="#9D9D9C" d="M60.15,81.052c0.066,0.246-0.111,0.384-0.248,0.534l-1.355,1.409c-1.41,1.385-3.039,2.697-5.061,3.012
			c-0.885,0.152-1.879,0.109-2.516-0.629c-0.492-0.603-0.602-1.383-0.529-2.137c0.14-1.873,1.241-3.683,2.481-5.062
			c0.635-0.671,1.383-1.451,2.338-1.628c0.74-0.102,1.383,0.328,1.629,1.026c0.137,0.329,0.316,1.178-0.324,1.067
			c-0.318-0.068-0.318-0.314-0.344-0.562c-0.041-0.218-0.15-0.43-0.287-0.572c-0.287-0.287-0.713-0.138-1.027,0.04
			c-0.496,0.246-0.891,0.671-1.277,1.054c-0.707,0.781-1.311,1.63-1.771,2.561c-0.354,0.699-0.6,1.519-0.641,2.299
			c-0.035,0.635,0.109,1.41,0.781,1.697c0.426,0.178,0.957,0.141,1.416,0.069c0.496-0.101,0.959-0.249,1.42-0.453
			c1.838-0.823,3.262-2.45,4.645-3.902C59.654,80.66,60.039,80.764,60.15,81.052z"/>
		<path fill="#9D9D9C" d="M71.59,81.229c-0.041,0.179-0.178,0.289-0.246,0.383c-0.355,0.398-0.711,0.782-1.029,1.179
			c-0.777,0.877-1.555,1.833-2.516,2.587c-0.67,0.561-1.602,1.055-2.477,0.629c-1-0.425-0.959-1.56-0.822-2.478
			c-0.672,0.851-1.49,1.698-2.438,2.201c-0.822,0.386-1.914,0.602-2.697,0.072c-0.643-0.425-0.889-1.205-0.889-1.958
			c0.041-0.876,0.398-1.766,0.82-2.546c0.533-1.067,1.307-1.984,2.189-2.791c0.713-0.684,1.523-1.285,2.41-1.711
			c1.096-0.521,2.342-0.808,3.547-0.671c0.207,0.041,0.424,0.067,0.637,0.15c0.566,0.173,0.074,0.946-0.076,1.273
			c-0.424,0.959-0.875,1.833-1.383,2.764c-0.135,0.275-0.314,0.562-0.492,0.851c-0.137,0.273-0.283,0.527-0.385,0.849
			c-0.176,0.534-0.354,1.054-0.465,1.629c-0.068,0.424-0.135,0.958,0.068,1.383c0.15,0.276,0.533,0.384,0.85,0.313
			c0.396-0.067,0.711-0.288,0.998-0.492c0.383-0.318,0.781-0.67,1.094-1.028c0.92-0.923,1.768-1.954,2.627-2.941
			C71.191,80.587,71.66,80.874,71.59,81.229z M63.16,83.886c0.668-0.671,1.23-1.493,1.764-2.3c0.18-0.219,0.287-0.465,0.398-0.712
			l0.314-0.671c0.178-0.466,0.383-0.892,0.604-1.313c0.354-0.671,0.709-1.316,1.094-1.944c-1.094-0.15-2.189,0.136-3.148,0.603
			c-0.918,0.453-1.697,1.095-2.41,1.807c-0.85,0.807-1.602,1.766-2.053,2.833c-0.289,0.671-0.535,1.52-0.357,2.259
			c0.068,0.328,0.248,0.643,0.562,0.78c0.396,0.151,0.848,0.074,1.244-0.027C61.955,84.979,62.584,84.447,63.16,83.886z"/>
		<path fill="#9D9D9C" d="M78.135,80.874c0.178,0.216,0.107,0.424-0.029,0.602c-0.398,0.467-0.781,0.919-1.205,1.343
			c-0.672,0.645-1.424,1.279-2.271,1.709c-0.705,0.385-1.479,0.632-2.301,0.673c-0.209,0.027-0.424,0.027-0.639,0.027
			c-0.102,0-0.211,0-0.318-0.027c-0.029,0.027-0.029,0.101-0.029,0.136c-0.109,0.395,0,0.823,0.029,1.205
			c0.246,2.197,0.779,4.53,0.107,6.694c-0.424,1.347-1.451,2.724-2.943,2.765c-0.885,0-1.627-0.534-1.834-1.383
			c-0.15-0.67,0.029-1.383,0.176-2.012c0.428-1.805,1.168-3.545,1.879-5.283l2.504-5.775c-0.344,0.04-0.561-0.384-0.312-0.673
			l0.355-0.386l0.422-0.43c0.109-0.172,0.316-0.321,0.395-0.525c0.172-0.329,0.32-0.643,0.455-0.999l0.533-1.274
			c0.959-2.367,1.945-4.749,2.943-7.118c0.357-0.89,0.74-1.771,1.137-2.653c0.346-0.781,0.918-1.523,1.807-1.781
			c0.672-0.204,1.41-0.027,1.875,0.535c0.562,0.67,0.492,1.628,0.246,2.449c-0.465,1.342-1.312,2.615-2.162,3.792
			c-1.027,1.45-2.162,2.861-3.301,4.286l-1.629,1.873l-0.738,0.851l-0.316,0.354c-0.148,0.179-0.217,0.289-0.285,0.467
			c-0.67,1.478-1.314,2.97-1.941,4.462c0.135-0.328,0.518-0.328,0.846-0.328c0.273,0,0.561,0,0.877-0.027
			c0.574-0.069,1.135-0.246,1.67-0.494c1.342-0.685,2.451-1.888,3.398-3.01C77.682,80.738,77.963,80.695,78.135,80.874z
			 M70.742,87.881c-0.082-0.49-0.152-0.985-0.18-1.519c-0.076-0.382-0.076-0.806,0-1.233c-0.602,1.375-1.203,2.752-1.738,4.178
			c-0.422,1.064-0.848,2.163-1.135,3.258c-0.068,0.313-0.139,0.671-0.178,1.027c-0.068,0.356-0.109,0.739,0.068,1.094
			c0.287,0.576,1.025,0.576,1.531,0.357c1.451-0.602,1.877-2.477,1.877-3.898C71.016,90.045,70.879,88.99,70.742,87.881z
			 M73.781,77.727c1.312-1.561,2.627-3.122,3.857-4.792c0.576-0.738,1.098-1.519,1.631-2.329c0.398-0.64,0.752-1.284,1.025-1.982
			c0.246-0.643,0.467-1.778-0.355-2.135c-0.697-0.313-1.449,0.329-1.805,0.892c-0.248,0.39-0.426,0.849-0.602,1.272l-0.562,1.352
			c-0.465,1.059-0.891,2.152-1.34,3.264L73.781,77.727z"/>
		<path fill="#9D9D9C" d="M85.51,81.722l-0.848,0.961c-0.508,0.532-1,1.026-1.561,1.518c-1.135,0.96-2.629,1.959-4.189,1.78
			c-0.738-0.11-1.379-0.508-1.695-1.205c-0.357-0.822-0.248-1.78-0.068-2.628c0.424-1.766,1.416-3.505,2.766-4.75
			c0.559-0.52,1.23-0.984,1.984-1.122c0.807-0.15,1.764,0.068,2.053,0.918c0.355,1.272-0.85,2.365-1.777,3.012
			c-0.811,0.492-1.658,0.848-2.549,1.136c-0.287,0.096-0.561,0.179-0.848,0.246l-0.426,0.104c-0.066,0-0.137,0.031-0.217,0.031
			c-0.029,0-0.029,0.141-0.07,0.141c-0.178,0.571-0.273,1.176-0.273,1.776c0.029,0.382,0.096,0.849,0.385,1.165
			c0.244,0.219,0.561,0.355,0.889,0.355c0.672,0.069,1.34-0.18,1.943-0.461c0.822-0.457,1.561-1.06,2.273-1.729
			c0.422-0.398,0.807-0.85,1.203-1.279l0.629-0.775c0.152-0.177,0.398-0.219,0.576-0.083C86.004,81.121,85.689,81.476,85.51,81.722z
			 M80.115,78.288c-0.67,0.739-1.203,1.599-1.627,2.518c1.451-0.356,3.084-0.919,4.115-2.027c0.277-0.271,0.525-0.628,0.602-1.026
			c0.074-0.628-0.529-0.778-1.062-0.701C81.361,77.124,80.65,77.727,80.115,78.288z"/>
	</g>
</g>
</svg>
