<?xml version="1.0" encoding="utf-8"?>
<!-- Generator: Adobe Illustrator 15.0.0, SVG Export Plug-In . SVG Version: 6.00 Build 0)  -->
<!DOCTYPE svg PUBLIC "-//W3C//DTD SVG 1.1//EN" "http://www.w3.org/Graphics/SVG/1.1/DTD/svg11.dtd">
<svg version="1.1" id="Layer_1" xmlns="http://www.w3.org/2000/svg" xmlns:xlink="http://www.w3.org/1999/xlink" x="0px" y="0px"
	 width="250px" height="60px" viewBox="0 0 250 60" enable-background="new 0 0 250 60" xml:space="preserve">
<g>
	<g>
		<path fill="#FFFFFF" d="M14.3,44.668V26.096c0-6.191,5.018-11.209,11.208-11.209h7.225c6.19,0,11.209,5.019,11.209,11.209v7.224
			c0,6.189-5.019,11.209-11.209,11.209l-17.841,0.023L14.86,59.55h25.333c10.832,0,19.616-8.782,19.616-19.616V19.616
			C59.809,8.782,51.025,0,40.193,0H19.617C8.783,0,0,8.782,0,19.616l0.016,25.118L14.3,44.668z"/>
		<path fill="#FFFFFF" d="M106.58,14.881v18.573c0,6.19-5.019,11.208-11.209,11.208h-7.226c-6.188,0-11.205-5.018-11.205-11.208
			v-7.226c0-6.19,5.017-11.209,11.205-11.209l17.842-0.024L106.018,0h-25.33C69.855,0,61.071,8.782,61.071,19.616v20.317
			c0,10.834,8.784,19.615,19.617,19.615h20.574c10.836,0,19.62-8.781,19.62-19.615l-0.019-25.119L106.58,14.881z"/>
	</g>
	<g>
		<rect x="128.895" y="14.884" fill="#FFFFFF" width="4.941" height="18.976"/>
		<g>
			<path fill="#FFFFFF" d="M137.07,33.859h4.52v-7.521c0-1.515,0.743-2.95,2.445-2.95c2.471,0,2.259,1.913,2.259,3.8v6.671h4.519
				v-8.85c0-1.993-0.371-5.344-4.971-5.344c-1.646,0-3.509,0.877-4.33,2.286h-0.055v-1.887h-4.387V33.859L137.07,33.859z"/>
			<path fill="#FFFFFF" d="M162.13,20.066h-2.791v-4.172h-4.519v4.172h-2.285v2.924h2.285v6.139c0,3.747,0.982,4.862,4.836,4.862
				c0.826,0,1.648-0.105,2.474-0.132v-3.32c-0.397,0-0.798,0.053-1.17,0.053c-0.983,0-1.621-0.24-1.621-1.33V22.99h2.791V20.066z"/>
			<path fill="#FFFFFF" d="M178.119,28.066c0.213-4.678-2.262-8.399-7.203-8.399c-4.064,0-7.439,3.03-7.439,7.257
				c0,4.624,3.056,7.334,7.547,7.334c3.082,0,6.033-1.382,6.855-4.57h-4.225c-0.426,1.009-1.487,1.516-2.578,1.516
				c-1.914,0-3.004-1.252-3.084-3.137L178.119,28.066L178.119,28.066z M167.992,25.541c0.267-1.675,1.33-2.817,2.924-2.817
				c1.516,0,2.605,1.275,2.686,2.817H167.992z"/>
			<path fill="#FFFFFF" d="M180.527,33.859h4.519v-6.831c0-1.728,1.168-3.27,3.401-3.27c0.611,0,1.141,0.106,1.729,0.267v-4.12
				c-0.348-0.08-0.718-0.106-1.064-0.106c-1.939,0-3.482,0.931-4.146,2.685h-0.053v-2.419h-4.386V33.859L180.527,33.859z"/>
			<path fill="#FFFFFF" d="M191.686,38.484h4.516v-6.113h0.053c0.932,1.248,2.232,1.887,3.936,1.887c3.906,0,5.817-3.4,5.817-6.99
				c0-3.88-1.833-7.602-6.165-7.602c-1.595,0-2.923,0.693-3.801,1.994h-0.055v-1.594h-4.301V38.484z M198.805,23.122
				c1.992,0,2.687,1.941,2.687,3.695c0,1.887-0.693,3.986-2.712,3.986c-2.047,0-2.738-1.568-2.738-3.986
				C196.04,23.973,197.582,23.122,198.805,23.122"/>
			<path fill="#FFFFFF" d="M212.461,24.319c0.214-1.171,1.008-1.729,2.26-1.729c0.932,0,2.178,0.4,2.178,1.435
				c0,0.852-0.426,1.116-1.192,1.276c-3.138,0.637-8.026,0.292-8.026,4.784c0,2.845,2.072,4.172,4.7,4.172
				c1.647,0,3.375-0.479,4.548-1.7c0.053,0.452,0.106,0.877,0.264,1.303h4.547c-0.532-1.09-0.532-2.365-0.532-3.535v-6.032
				c0-3.908-3.162-4.626-6.431-4.626c-1.57,0-3.16,0.267-4.387,0.957c-1.225,0.719-2.072,1.886-2.15,3.696H212.461z M212.193,29.898
				c0-1.089,0.854-1.513,1.861-1.753c0.984-0.267,2.153-0.346,2.791-0.745c0.105,2.844-0.613,4.066-2.767,4.066
				C213.072,31.467,212.193,31.016,212.193,29.898"/>
			<path fill="#FFFFFF" d="M224.334,33.859h4.518v-6.831c0-1.728,1.168-3.27,3.403-3.27c0.61,0,1.144,0.106,1.726,0.267v-4.12
				c-0.344-0.08-0.717-0.106-1.062-0.106c-1.938,0-3.481,0.931-4.146,2.685h-0.053v-2.419h-4.386L224.334,33.859L224.334,33.859z"/>
		</g>
		<polygon fill="#FFFFFF" points="235.488,33.859 240.006,33.859 240.006,29.447 241.174,28.305 244.552,33.859 250,33.859 
			244.312,25.274 249.359,20.066 244.127,20.066 240.006,24.664 240.006,14.884 235.488,14.884 		"/>
	</g>
</g>
</svg>
