<?xml version="1.0" encoding="utf-8"?>
<!-- Generator: Adobe Illustrator 15.0.0, SVG Export Plug-In . SVG Version: 6.00 Build 0)  -->
<!DOCTYPE svg PUBLIC "-//W3C//DTD SVG 1.1//EN" "http://www.w3.org/Graphics/SVG/1.1/DTD/svg11.dtd">
<svg version="1.1" id="Layer_1" xmlns="http://www.w3.org/2000/svg" xmlns:xlink="http://www.w3.org/1999/xlink" x="0px" y="0px"
	 width="115px" height="155px" viewBox="0 0 115 155" enable-background="new 0 0 115 155" xml:space="preserve">
<g>
	<g>
		<rect fill="#BEBD00" width="115" height="115.001"/>
		<rect x="83.908" y="28.468" fill="#FFFFFF" width="11.571" height="51.235"/>
		<polygon fill="#FFFFFF" points="66.814,79.7 78.385,79.7 78.385,28.468 66.814,28.468 66.814,48.304 57.001,48.304 57.001,28.468 
			45.429,28.468 45.429,79.7 57.001,79.7 57.001,59.87 66.814,59.87 		"/>
		<path fill="#FFFFFF" d="M18.92,81.408v11.229c13.833-1.124,21.083-9.366,20.985-23.881V28.468H28.341v40.281
			C28.341,76.615,25.341,80.655,18.92,81.408"/>
	</g>
	<g>
		<rect y="116.31" fill="#969200" width="115" height="39.205"/>
		<g>
			<path fill="#FFFFFF" d="M18.213,134.327c0,1.029-0.304,1.825-0.91,2.385c-0.608,0.562-1.47,0.843-2.589,0.843h-0.699v3.057h-2.49
				v-9.215h3.189c1.163,0,2.039,0.255,2.622,0.763C17.919,132.667,18.213,133.39,18.213,134.327z M14.015,135.523h0.454
				c0.374,0,0.67-0.104,0.892-0.314c0.219-0.209,0.331-0.499,0.331-0.87c0-0.621-0.345-0.932-1.033-0.932h-0.643V135.523z"/>
			<path fill="#FFFFFF" d="M26.688,137.259v3.353h-2.489v-9.215h3.019c2.504,0,3.756,0.907,3.756,2.722
				c0,1.068-0.521,1.894-1.564,2.479l2.686,4.014h-2.823l-1.955-3.353H26.688z M26.688,135.387h0.467
				c0.87,0,1.305-0.385,1.305-1.153c0-0.636-0.427-0.952-1.281-0.952h-0.491V135.387z"/>
			<path fill="#FFFFFF" d="M46.076,135.99c0,1.552-0.382,2.73-1.142,3.538c-0.76,0.806-1.875,1.209-3.34,1.209
				c-1.445,0-2.553-0.404-3.324-1.216c-0.77-0.812-1.156-1.992-1.156-3.543c0-1.534,0.383-2.704,1.149-3.515
				c0.767-0.809,1.882-1.214,3.345-1.214c1.465,0,2.579,0.402,3.334,1.205C45.698,133.257,46.076,134.437,46.076,135.99z
				 M39.734,135.99c0,1.783,0.62,2.674,1.859,2.674c0.631,0,1.099-0.217,1.403-0.65c0.305-0.432,0.458-1.107,0.458-2.023
				c0-0.919-0.155-1.6-0.465-2.038c-0.308-0.439-0.769-0.658-1.382-0.658C40.358,133.294,39.734,134.193,39.734,135.99z"/>
			<path fill="#FFFFFF" d="M51.533,143.504c-0.454,0-0.884-0.043-1.291-0.132v-1.935c0.133,0.025,0.276,0.053,0.428,0.086
				c0.152,0.03,0.315,0.046,0.492,0.046c0.411,0,0.706-0.123,0.882-0.372c0.176-0.246,0.265-0.673,0.265-1.272v-8.528h2.501v8.313
				c0,1.248-0.273,2.192-0.818,2.834C53.445,143.184,52.626,143.504,51.533,143.504z"/>
			<path fill="#FFFFFF" d="M66.792,140.611H61.32v-9.215h5.471v1.998h-2.982v1.449h2.761v1.998h-2.761v1.739h2.982V140.611z"/>
			<path fill="#FFFFFF" d="M77.026,133.306c-0.592,0-1.056,0.243-1.387,0.729c-0.332,0.484-0.498,1.154-0.498,2.007
				c0,1.771,0.674,2.659,2.023,2.659c0.407,0,0.803-0.058,1.185-0.169c0.381-0.114,0.767-0.252,1.154-0.411v2.105
				c-0.769,0.341-1.639,0.511-2.609,0.511c-1.392,0-2.458-0.403-3.2-1.209c-0.74-0.808-1.112-1.974-1.112-3.499
				c0-0.955,0.179-1.792,0.54-2.515c0.358-0.725,0.875-1.279,1.55-1.669c0.674-0.387,1.468-0.581,2.378-0.581
				c0.996,0,1.949,0.215,2.856,0.648l-0.764,1.961c-0.339-0.159-0.68-0.295-1.021-0.404
				C77.782,133.361,77.417,133.306,77.026,133.306z"/>
			<path fill="#FFFFFF" d="M89.882,140.611h-2.489v-7.18h-2.251v-2.035h6.984v2.035h-2.244V140.611z"/>
			<path fill="#FFFFFF" d="M103.987,137.813c0,0.571-0.146,1.078-0.435,1.521c-0.291,0.444-0.707,0.79-1.254,1.034
				c-0.546,0.248-1.188,0.369-1.923,0.369c-0.614,0-1.127-0.044-1.542-0.13c-0.417-0.086-0.85-0.234-1.298-0.449v-2.219
				c0.474,0.243,0.966,0.433,1.48,0.57c0.514,0.137,0.983,0.204,1.413,0.204c0.369,0,0.641-0.064,0.812-0.191
				c0.172-0.129,0.258-0.294,0.258-0.495c0-0.126-0.034-0.236-0.104-0.331c-0.069-0.095-0.18-0.19-0.333-0.286
				c-0.152-0.098-0.561-0.295-1.225-0.593c-0.603-0.273-1.052-0.538-1.354-0.796c-0.298-0.256-0.521-0.549-0.667-0.881
				c-0.145-0.332-0.216-0.725-0.216-1.18c0-0.849,0.308-1.511,0.926-1.984c0.617-0.475,1.466-0.712,2.546-0.712
				c0.955,0,1.926,0.221,2.918,0.661l-0.763,1.922c-0.86-0.395-1.604-0.592-2.231-0.592c-0.325,0-0.558,0.057-0.706,0.17
				c-0.148,0.114-0.22,0.255-0.22,0.422c0,0.182,0.093,0.343,0.279,0.485c0.188,0.144,0.695,0.403,1.524,0.781
				c0.794,0.358,1.345,0.741,1.653,1.151C103.833,136.675,103.987,137.189,103.987,137.813z"/>
		</g>
	</g>
	<g>
		<polygon fill="#FFFFFF" points="115,116.31 0,116.31 0,115.001 115,115.001 115,116.31 		"/>
	</g>
</g>
</svg>
