<?xml version="1.0" encoding="utf-8"?>
<!-- Generator: Adobe Illustrator 15.0.0, SVG Export Plug-In . SVG Version: 6.00 Build 0)  -->
<!DOCTYPE svg PUBLIC "-//W3C//DTD SVG 1.1//EN" "http://www.w3.org/Graphics/SVG/1.1/DTD/svg11.dtd">
<svg version="1.1" id="Layer_1" xmlns="http://www.w3.org/2000/svg" xmlns:xlink="http://www.w3.org/1999/xlink" x="0px" y="0px"
	 width="115px" height="155px" viewBox="0 0 115 155" enable-background="new 0 0 115 155" xml:space="preserve">
<g>
	<g>
		<rect fill="#BEBD00" width="115" height="115"/>
		<rect x="83.909" y="28.467" fill="#FFFFFF" width="11.571" height="51.235"/>
		<polygon fill="#FFFFFF" points="66.815,79.699 78.386,79.699 78.386,28.467 66.815,28.467 66.815,48.304 57.002,48.304 
			57.002,28.467 45.43,28.467 45.43,79.699 57.002,79.699 57.002,59.87 66.815,59.87 		"/>
		<path fill="#FFFFFF" d="M18.919,81.405v11.231c13.835-1.124,21.085-9.368,20.986-23.882V28.467H28.342v40.282
			C28.342,76.614,25.342,80.653,18.919,81.405"/>
	</g>
	<g>
		<rect y="116.308" fill="#969200" width="115" height="39.205"/>
		<g>
			<path fill="#FFFFFF" d="M19.828,137.257v3.352h-2.49v-9.213h3.02c2.504,0,3.755,0.907,3.755,2.722
				c0,1.067-0.52,1.892-1.563,2.479l2.685,4.013h-2.824l-1.954-3.352H19.828z M19.828,135.385h0.467
				c0.869,0,1.305-0.386,1.305-1.153c0-0.636-0.426-0.953-1.281-0.953h-0.491V135.385z"/>
			<path fill="#FFFFFF" d="M39.031,140.608h-5.47v-9.213h5.47v1.997h-2.979v1.448h2.761v1.998h-2.761v1.74h2.979V140.608z"/>
			<path fill="#FFFFFF" d="M52.198,140.608h-2.489v-7.179h-2.251v-2.034h6.984v2.034h-2.244V140.608z"/>
			<path fill="#FFFFFF" d="M68.9,140.608l-0.454-1.726h-2.996l-0.465,1.726H62.25l3.008-9.251h3.32l3.045,9.251H68.9z
				 M67.93,136.839l-0.398-1.511c-0.093-0.335-0.206-0.771-0.338-1.306c-0.133-0.532-0.219-0.916-0.26-1.147
				c-0.039,0.215-0.113,0.569-0.225,1.059c-0.11,0.492-0.359,1.463-0.742,2.905H67.93z"/>
			<path fill="#FFFFFF" d="M80.104,140.608v-9.213h2.505v9.213H80.104z"/>
			<path fill="#FFFFFF" d="M92.086,140.608v-9.213h2.49v7.204h3.548v2.009H92.086z"/>
		</g>
	</g>
	<g>
		<polygon fill="#FFFFFF" points="115,116.308 0,116.308 0,115 115,115 115,116.308 		"/>
	</g>
</g>
</svg>
