<?xml version="1.0" encoding="utf-8"?>
<!-- Generator: Adobe Illustrator 15.0.0, SVG Export Plug-In . SVG Version: 6.00 Build 0)  -->
<!DOCTYPE svg PUBLIC "-//W3C//DTD SVG 1.1//EN" "http://www.w3.org/Graphics/SVG/1.1/DTD/svg11.dtd">
<svg version="1.1" id="Layer_1" xmlns="http://www.w3.org/2000/svg" xmlns:xlink="http://www.w3.org/1999/xlink" x="0px" y="0px"
	 width="115px" height="155px" viewBox="0 0 115 155" enable-background="new 0 0 115 155" xml:space="preserve">
<g>
	<g>
		<rect fill="#BEBD00" width="115" height="115.001"/>
		<rect x="83.908" y="28.468" fill="#FFFFFF" width="11.571" height="51.235"/>
		<polygon fill="#FFFFFF" points="66.814,79.7 78.385,79.7 78.385,28.468 66.814,28.468 66.814,48.304 57.001,48.304 57.001,28.468 
			45.429,28.468 45.429,79.7 57.001,79.7 57.001,59.87 66.814,59.87 		"/>
		<path fill="#FFFFFF" d="M18.92,81.408v11.229c13.833-1.124,21.083-9.366,20.985-23.881V28.468H28.341v40.281
			C28.341,76.615,25.341,80.655,18.92,81.408"/>
	</g>
	<g>
		<rect y="116.31" fill="#969200" width="115" height="39.205"/>
		<g>
			<path fill="#FFFFFF" d="M27.385,133.306c-0.593,0-1.055,0.243-1.387,0.729c-0.331,0.484-0.498,1.154-0.498,2.007
				c0,1.771,0.674,2.659,2.024,2.659c0.406,0,0.803-0.058,1.185-0.169c0.382-0.114,0.767-0.252,1.152-0.411v2.105
				c-0.769,0.341-1.639,0.511-2.609,0.511c-1.39,0-2.458-0.403-3.199-1.209c-0.741-0.808-1.113-1.974-1.113-3.499
				c0-0.955,0.18-1.792,0.541-2.515c0.358-0.725,0.876-1.279,1.55-1.669c0.674-0.387,1.468-0.581,2.38-0.581
				c0.996,0,1.946,0.215,2.854,0.648l-0.762,1.961c-0.34-0.159-0.681-0.295-1.021-0.404
				C28.141,133.361,27.776,133.306,27.385,133.306z"/>
			<path fill="#FFFFFF" d="M47.056,137.259v3.353h-2.489v-9.215h3.019c2.504,0,3.756,0.907,3.756,2.722
				c0,1.068-0.521,1.894-1.564,2.479l2.686,4.014H49.64l-1.954-3.353H47.056z M47.056,135.387h0.467
				c0.869,0,1.305-0.385,1.305-1.153c0-0.636-0.427-0.952-1.281-0.952h-0.491V135.387z"/>
			<path fill="#FFFFFF" d="M71.682,140.611h-5.47v-9.215h5.47v1.998h-2.981v1.449h2.761v1.998h-2.761v1.739h2.981V140.611z"/>
			<path fill="#FFFFFF" d="M92.23,137.813c0,0.571-0.146,1.078-0.435,1.521c-0.291,0.444-0.708,0.79-1.254,1.034
				c-0.546,0.248-1.188,0.369-1.923,0.369c-0.612,0-1.128-0.044-1.544-0.13c-0.415-0.086-0.848-0.234-1.298-0.449v-2.219
				c0.475,0.243,0.969,0.433,1.48,0.57c0.514,0.137,0.984,0.204,1.413,0.204c0.371,0,0.641-0.064,0.814-0.191
				c0.173-0.129,0.258-0.294,0.258-0.495c0-0.126-0.034-0.236-0.103-0.331c-0.07-0.095-0.182-0.19-0.335-0.286
				c-0.153-0.098-0.562-0.295-1.227-0.593c-0.6-0.273-1.052-0.538-1.351-0.796c-0.3-0.256-0.523-0.549-0.668-0.881
				c-0.146-0.332-0.218-0.725-0.218-1.18c0-0.849,0.308-1.511,0.926-1.984c0.619-0.475,1.467-0.712,2.546-0.712
				c0.955,0,1.928,0.221,2.919,0.661l-0.764,1.922c-0.86-0.395-1.604-0.592-2.231-0.592c-0.322,0-0.558,0.057-0.706,0.17
				c-0.146,0.114-0.219,0.255-0.219,0.422c0,0.182,0.093,0.343,0.28,0.485c0.185,0.144,0.693,0.403,1.521,0.781
				c0.794,0.358,1.345,0.741,1.656,1.151C92.076,136.675,92.23,137.189,92.23,137.813z"/>
		</g>
	</g>
	<g>
		<polygon fill="#FFFFFF" points="115,116.31 0,116.31 0,115.001 115,115.001 115,116.31 		"/>
	</g>
</g>
</svg>
