<?xml version="1.0" encoding="utf-8"?>
<!-- Generator: Adobe Illustrator 15.0.0, SVG Export Plug-In . SVG Version: 6.00 Build 0)  -->
<!DOCTYPE svg PUBLIC "-//W3C//DTD SVG 1.1//EN" "http://www.w3.org/Graphics/SVG/1.1/DTD/svg11.dtd">
<svg version="1.1" id="Layer_1" xmlns="http://www.w3.org/2000/svg" xmlns:xlink="http://www.w3.org/1999/xlink" x="0px" y="0px"
	 width="115px" height="155px" viewBox="0 0 115 155" enable-background="new 0 0 115 155" xml:space="preserve">
<g>
	<g>
		<rect fill="#BEBD00" width="115" height="115"/>
		<rect x="83.909" y="28.468" fill="#FFFFFF" width="11.571" height="51.234"/>
		<polygon fill="#FFFFFF" points="66.815,79.699 78.384,79.699 78.384,28.468 66.815,28.468 66.815,48.304 57,48.304 57,28.468 
			45.43,28.468 45.43,79.699 57,79.699 57,59.87 66.815,59.87 		"/>
		<path fill="#FFFFFF" d="M18.919,81.407v11.229c13.835-1.125,21.085-9.366,20.985-23.881V28.468H28.341v40.28
			C28.341,76.614,25.341,80.654,18.919,81.407"/>
	</g>
	<g>
		<rect y="116.308" fill="#969200" width="115" height="39.205"/>
		<g>
			<path fill="#FFFFFF" d="M17.373,137.812c0,0.57-0.146,1.077-0.435,1.52c-0.291,0.445-0.708,0.79-1.254,1.034
				c-0.545,0.248-1.186,0.369-1.923,0.369c-0.612,0-1.127-0.044-1.542-0.13c-0.417-0.086-0.849-0.234-1.3-0.449v-2.219
				c0.477,0.244,0.969,0.433,1.481,0.57c0.512,0.137,0.983,0.204,1.411,0.204c0.371,0,0.641-0.064,0.814-0.191
				c0.173-0.129,0.258-0.294,0.258-0.495c0-0.126-0.034-0.236-0.103-0.331c-0.07-0.094-0.182-0.19-0.335-0.286
				c-0.153-0.097-0.561-0.295-1.227-0.592c-0.6-0.273-1.052-0.539-1.35-0.796c-0.302-0.257-0.525-0.55-0.668-0.882
				c-0.146-0.332-0.219-0.725-0.219-1.18c0-0.849,0.309-1.511,0.926-1.984c0.618-0.474,1.468-0.712,2.546-0.712
				c0.955,0,1.928,0.221,2.919,0.662l-0.763,1.922c-0.862-0.396-1.604-0.593-2.231-0.593c-0.323,0-0.558,0.058-0.707,0.17
				c-0.146,0.115-0.219,0.255-0.219,0.423c0,0.182,0.093,0.342,0.28,0.484c0.186,0.144,0.694,0.404,1.521,0.782
				c0.794,0.357,1.345,0.741,1.656,1.15C17.218,136.673,17.373,137.188,17.373,137.812z"/>
			<path fill="#FFFFFF" d="M24.153,140.609h-2.489v-7.18h-2.251v-2.035h6.984v2.035h-2.244V140.609z"/>
			<path fill="#FFFFFF" d="M31.495,137.257v3.353h-2.49v-9.215h3.02c2.504,0,3.757,0.907,3.757,2.723
				c0,1.067-0.521,1.893-1.563,2.479l2.685,4.014H34.08l-1.955-3.353H31.495z M31.495,135.385h0.466c0.87,0,1.304-0.385,1.304-1.153
				c0-0.636-0.425-0.952-1.278-0.952h-0.492V135.385z"/>
			<path fill="#FFFFFF" d="M46.867,131.395v5.547c0,1.205-0.342,2.139-1.025,2.803c-0.683,0.661-1.667,0.991-2.952,0.991
				c-1.257,0-2.221-0.321-2.896-0.964c-0.673-0.643-1.012-1.567-1.012-2.773v-5.604h2.503v5.407c0,0.652,0.123,1.125,0.366,1.42
				c0.242,0.295,0.603,0.44,1.076,0.44c0.509,0,0.877-0.146,1.108-0.438c0.229-0.292,0.342-0.771,0.342-1.435v-5.396H46.867z"/>
			<path fill="#FFFFFF" d="M54.197,133.304c-0.592,0-1.056,0.243-1.387,0.73c-0.333,0.483-0.5,1.153-0.5,2.006
				c0,1.772,0.676,2.659,2.025,2.659c0.406,0,0.801-0.058,1.185-0.169c0.381-0.114,0.765-0.252,1.152-0.41v2.104
				c-0.769,0.341-1.639,0.511-2.609,0.511c-1.391,0-2.458-0.403-3.199-1.209c-0.743-0.807-1.113-1.974-1.113-3.499
				c0-0.954,0.18-1.792,0.538-2.515c0.36-0.724,0.877-1.279,1.551-1.669c0.675-0.386,1.467-0.581,2.38-0.581
				c0.996,0,1.946,0.215,2.855,0.648l-0.763,1.961c-0.339-0.159-0.68-0.295-1.021-0.403
				C54.953,133.359,54.588,133.304,54.197,133.304z"/>
			<path fill="#FFFFFF" d="M63.826,140.609h-2.49v-7.18h-2.25v-2.035h6.984v2.035h-2.244V140.609z"/>
			<path fill="#FFFFFF" d="M76.513,131.395v5.547c0,1.205-0.342,2.139-1.025,2.803c-0.683,0.661-1.667,0.991-2.954,0.991
				c-1.257,0-2.223-0.321-2.896-0.964c-0.675-0.643-1.012-1.567-1.012-2.773v-5.604h2.503v5.407c0,0.652,0.121,1.125,0.365,1.42
				c0.243,0.295,0.601,0.44,1.078,0.44c0.508,0,0.876-0.146,1.105-0.438c0.23-0.292,0.345-0.771,0.345-1.435v-5.396H76.513z"/>
			<path fill="#FFFFFF" d="M82.226,137.257v3.353h-2.487v-9.215h3.017c2.506,0,3.756,0.907,3.756,2.723
				c0,1.067-0.52,1.893-1.562,2.479l2.685,4.014H84.81l-1.953-3.353H82.226z M82.226,135.385h0.467c0.87,0,1.307-0.385,1.307-1.153
				c0-0.636-0.428-0.952-1.281-0.952h-0.492V135.385z"/>
			<path fill="#FFFFFF" d="M95.236,140.609h-5.471v-9.215h5.471v1.998h-2.982v1.45h2.761v1.997h-2.761v1.739h2.982V140.609z"/>
			<path fill="#FFFFFF" d="M104.167,137.812c0,0.57-0.146,1.077-0.437,1.52c-0.289,0.445-0.707,0.79-1.254,1.034
				c-0.546,0.248-1.188,0.369-1.923,0.369c-0.612,0-1.126-0.044-1.543-0.13c-0.415-0.086-0.85-0.234-1.298-0.449v-2.219
				c0.474,0.244,0.967,0.433,1.48,0.57c0.514,0.137,0.983,0.204,1.413,0.204c0.369,0,0.641-0.064,0.812-0.191
				c0.172-0.129,0.258-0.294,0.258-0.495c0-0.126-0.033-0.236-0.103-0.331c-0.069-0.094-0.18-0.19-0.333-0.286
				c-0.153-0.097-0.562-0.295-1.227-0.592c-0.601-0.273-1.052-0.539-1.353-0.796c-0.299-0.257-0.522-0.55-0.668-0.882
				c-0.145-0.332-0.216-0.725-0.216-1.18c0-0.849,0.308-1.511,0.926-1.984c0.617-0.474,1.466-0.712,2.546-0.712
				c0.954,0,1.926,0.221,2.919,0.662l-0.764,1.922c-0.86-0.396-1.604-0.593-2.231-0.593c-0.323,0-0.558,0.058-0.706,0.17
				c-0.147,0.115-0.22,0.255-0.22,0.423c0,0.182,0.094,0.342,0.279,0.484c0.188,0.144,0.696,0.404,1.524,0.782
				c0.794,0.357,1.345,0.741,1.653,1.15C104.01,136.673,104.167,137.188,104.167,137.812z"/>
		</g>
	</g>
	<g>
		<polygon fill="#FFFFFF" points="115,116.308 0,116.308 0,115 115,115 115,116.308 		"/>
	</g>
</g>
</svg>
