<?xml version="1.0" encoding="utf-8"?>
<!-- Generator: Adobe Illustrator 15.0.0, SVG Export Plug-In . SVG Version: 6.00 Build 0)  -->
<!DOCTYPE svg PUBLIC "-//W3C//DTD SVG 1.1//EN" "http://www.w3.org/Graphics/SVG/1.1/DTD/svg11.dtd">
<svg version="1.1" id="Layer_1" xmlns="http://www.w3.org/2000/svg" xmlns:xlink="http://www.w3.org/1999/xlink" x="0px" y="0px"
	 width="115px" height="155px" viewBox="0 0 115 155" enable-background="new 0 0 115 155" xml:space="preserve">
<g>
	<g>
		<rect fill="#BEBD00" width="115" height="115"/>
		<rect x="83.907" y="28.468" fill="#FFFFFF" width="11.571" height="51.234"/>
		<polygon fill="#FFFFFF" points="66.814,79.699 78.384,79.699 78.384,28.468 66.814,28.468 66.814,48.304 56.999,48.304 
			56.999,28.468 45.43,28.468 45.43,79.699 56.999,79.699 56.999,59.87 66.814,59.87 		"/>
		<path fill="#FFFFFF" d="M18.919,81.407v11.229c13.833-1.125,21.083-9.366,20.985-23.881V28.468H28.339v40.28
			C28.339,76.614,25.341,80.654,18.919,81.407"/>
	</g>
	<g>
		<rect y="116.308" fill="#969200" width="115" height="39.205"/>
		<g>
			<path fill="#FFFFFF" d="M16.897,140.61l-0.454-1.728H13.45l-0.466,1.728h-2.735l3.005-9.253h3.323l3.042,9.253H16.897z
				 M15.926,136.84l-0.395-1.513c-0.095-0.334-0.206-0.77-0.339-1.305c-0.132-0.532-0.219-0.916-0.26-1.146
				c-0.039,0.213-0.112,0.568-0.224,1.06c-0.111,0.49-0.359,1.461-0.74,2.904H15.926z"/>
			<path fill="#FFFFFF" d="M32.311,135.807c0,1.539-0.423,2.724-1.27,3.556c-0.847,0.831-2.038,1.248-3.572,1.248H24.49v-9.216
				h3.188c1.479,0,2.62,0.378,3.426,1.134C31.909,133.285,32.311,134.377,32.311,135.807z M29.726,135.895
				c0-0.845-0.167-1.47-0.501-1.878c-0.335-0.408-0.84-0.611-1.521-0.611h-0.726v5.162h0.554c0.757,0,1.311-0.22,1.664-0.658
				C29.55,137.47,29.726,136.799,29.726,135.895z"/>
			<path fill="#FFFFFF" d="M43.01,131.395h2.785l-3.02,9.216h-2.929l-3.008-9.216h2.799l1.255,4.672
				c0.261,1.037,0.404,1.76,0.428,2.166c0.028-0.295,0.088-0.661,0.177-1.102c0.087-0.44,0.165-0.789,0.232-1.04L43.01,131.395z"/>
			<path fill="#FFFFFF" d="M50.662,140.61v-9.216h2.504v9.216H50.662z"/>
			<path fill="#FFFFFF" d="M65.055,137.812c0,0.57-0.145,1.077-0.434,1.52c-0.291,0.445-0.709,0.79-1.255,1.034
				c-0.545,0.248-1.187,0.369-1.922,0.369c-0.614,0-1.129-0.044-1.546-0.13c-0.415-0.086-0.847-0.234-1.298-0.449v-2.219
				c0.475,0.244,0.969,0.433,1.482,0.57c0.511,0.137,0.983,0.204,1.411,0.204c0.369,0,0.64-0.064,0.813-0.191
				c0.173-0.129,0.259-0.294,0.259-0.495c0-0.126-0.036-0.236-0.104-0.331c-0.07-0.094-0.181-0.19-0.335-0.286
				c-0.153-0.097-0.562-0.295-1.225-0.592c-0.601-0.273-1.052-0.538-1.353-0.796c-0.3-0.257-0.524-0.55-0.667-0.882
				c-0.146-0.332-0.219-0.725-0.219-1.18c0-0.849,0.311-1.511,0.927-1.984c0.618-0.474,1.467-0.712,2.547-0.712
				c0.952,0,1.925,0.221,2.917,0.662l-0.762,1.922c-0.863-0.396-1.607-0.593-2.231-0.593c-0.325,0-0.561,0.058-0.707,0.17
				c-0.147,0.115-0.22,0.255-0.22,0.423c0,0.182,0.093,0.342,0.28,0.484c0.188,0.144,0.693,0.404,1.521,0.782
				c0.794,0.357,1.345,0.741,1.656,1.15C64.9,136.673,65.055,137.188,65.055,137.812z"/>
			<path fill="#FFFFFF" d="M78.976,135.988c0,1.552-0.382,2.731-1.142,3.538c-0.76,0.806-1.875,1.209-3.34,1.209
				c-1.445,0-2.553-0.404-3.324-1.216c-0.771-0.812-1.157-1.992-1.157-3.542c0-1.534,0.384-2.705,1.149-3.515
				c0.767-0.809,1.882-1.214,3.345-1.214c1.465,0,2.579,0.402,3.334,1.205C78.598,133.255,78.976,134.435,78.976,135.988z
				 M72.634,135.988c0,1.783,0.62,2.674,1.859,2.674c0.63,0,1.099-0.216,1.403-0.649c0.305-0.433,0.458-1.108,0.458-2.024
				c0-0.918-0.154-1.6-0.465-2.037c-0.308-0.439-0.769-0.658-1.382-0.658C73.258,133.293,72.634,134.191,72.634,135.988z"/>
			<path fill="#FFFFFF" d="M87.001,137.257v3.354h-2.49v-9.216h3.02c2.503,0,3.757,0.907,3.757,2.723
				c0,1.067-0.522,1.893-1.563,2.479l2.685,4.015h-2.824l-1.954-3.354H87.001z M87.001,135.385h0.466
				c0.87,0,1.304-0.385,1.304-1.153c0-0.636-0.426-0.952-1.278-0.952h-0.492V135.385z"/>
			<path fill="#FFFFFF" d="M100.409,134.811l1.588-3.416h2.697l-3.029,5.616v3.6h-2.509v-3.524l-3.033-5.691h2.71L100.409,134.811z"
				/>
		</g>
	</g>
	<g>
		<polygon fill="#FFFFFF" points="115,116.308 0,116.308 0,115 115,115 115,116.308 		"/>
	</g>
</g>
</svg>
