<?xml version="1.0" encoding="utf-8"?>
<!-- Generator: Adobe Illustrator 15.0.0, SVG Export Plug-In . SVG Version: 6.00 Build 0)  -->
<!DOCTYPE svg PUBLIC "-//W3C//DTD SVG 1.1//EN" "http://www.w3.org/Graphics/SVG/1.1/DTD/svg11.dtd">
<svg version="1.1" id="Layer_1" xmlns="http://www.w3.org/2000/svg" xmlns:xlink="http://www.w3.org/1999/xlink" x="0px" y="0px"
	 width="246px" height="41px" viewBox="0 0 246 41" enable-background="new 0 0 246 41" xml:space="preserve">
<g>
	<path d="M0,0v41.02h246V0H0z M1.439,1.435h204.124v38.15H1.439V1.435z"/>
	<rect x="1.439" y="1.435" fill="#ED7004" width="204.124" height="38.15"/>
	<g>
		<path fill="#FFFFFF" d="M225.604,14.176c5.593,0,10.46-5.606,12.47-13.553h-2.827c-1.507,4.793-5.285,8.12-9.632,8.12
			c-4.322,0-7.995-3.356-9.569-8.12h-2.911C215.203,8.569,220.007,14.176,225.604,14.176z"/>
		<path fill="#FFFFFF" d="M233.967,21.181c0,5.95,4.647,11.051,11.313,13.476v-1.037v-1.696c-4.407-1.648-7.5-5.864-7.502-10.771
			c0-4.848,3.124-9.009,7.502-10.671V7.684C238.579,10.092,233.967,15.24,233.967,21.181z"/>
		<path fill="#FFFFFF" d="M225.902,27.624c-5.39,0-10.094,5.223-12.246,12.744h2.608c1.656-4.421,5.269-7.459,9.464-7.46
			c4.115,0,7.624,3.064,9.286,7.46h3.141C236.062,32.844,231.354,27.624,225.902,27.624z"/>
		<path fill="#FFFFFF" d="M205.587,6.715c-0.016,0.226-0.022,0.455-0.022,0.657v2.811c4.338,1.684,7.312,5.833,7.314,10.69
			c0,4.798-3.004,8.895-7.314,10.59v2.156c0,0.286,0.018,0.576,0.042,0.895c7.292-2.231,12.491-7.608,12.491-13.895
			C218.098,14.299,212.888,8.907,205.587,6.715z"/>
	</g>
	<g>
		<g>
			<path fill="#FFFFFF" d="M28.098,30.031h-5.403l-3.497-6.759l-1.423,0.845v5.914h-4.807V12.335h4.807v7.69
				c0.243-0.478,0.729-1.252,1.46-2.269l3.719-5.421h5.244l-5.598,7.933L28.098,30.031z"/>
			<path fill="#FFFFFF" d="M44.585,30.031l-0.865-3.33h-5.755l-0.883,3.33h-5.263l5.774-17.779h6.379l5.859,17.779H44.585z
				 M42.735,22.797l-0.781-2.901c-0.164-0.664-0.387-1.5-0.638-2.51c-0.25-1.039-0.437-1.771-0.497-2.223
				c-0.084,0.428-0.222,1.087-0.442,2.036c-0.22,0.949-0.696,2.825-1.427,5.599H42.735z"/>
			<path fill="#FFFFFF" d="M63.277,30.031h-4.789V16.232h-4.323v-3.896h13.426v3.896h-4.315V30.031z"/>
			<path fill="#FFFFFF" d="M84.695,30.031l-0.866-3.33h-5.757l-0.881,3.33h-5.264l5.775-17.779h6.378l5.857,17.779H84.695z
				 M82.845,22.797l-0.783-2.901c-0.164-0.664-0.385-1.5-0.636-2.51c-0.252-1.039-0.436-1.771-0.498-2.223
				c-0.084,0.428-0.222,1.087-0.441,2.036c-0.22,0.949-0.697,2.825-1.428,5.599H82.845z"/>
			<path fill="#FFFFFF" d="M112.425,30.031h-6.268l-6.471-12.479h-0.113c0.146,1.952,0.233,3.465,0.233,4.51v7.969h-4.231V12.335
				h6.248l6.424,12.293h0.085c-0.114-1.789-0.186-3.223-0.186-4.305v-7.988h4.278V30.031z"/>
			<path fill="#FFFFFF" d="M127.081,19.672h7.653v9.533c-2.095,0.715-4.372,1.068-6.846,1.068c-2.735,0-4.857-0.802-6.335-2.381
				c-1.478-1.577-2.246-3.84-2.246-6.76c0-2.864,0.822-5.073,2.465-6.687c1.614-1.583,3.897-2.389,6.85-2.389
				c1.109,0,2.163,0.108,3.155,0.326c0.982,0.217,1.835,0.478,2.586,0.81l-1.518,3.747c-1.282-0.623-2.669-0.949-4.2-0.949
				c-1.409,0-2.49,0.46-3.243,1.382c-0.753,0.892-1.159,2.195-1.159,3.88c0,1.663,0.35,2.909,1.047,3.771
				c0.698,0.89,1.685,1.306,2.99,1.306c0.712,0,1.357-0.052,1.953-0.186v-2.8h-3.153V19.672z"/>
			<path fill="#FFFFFF" d="M152.936,30.031l-0.887-3.33h-5.755l-0.911,3.33h-5.246l5.769-17.779h6.396l5.834,17.779H152.936z
				 M151.064,22.797l-0.762-2.901c-0.183-0.664-0.406-1.5-0.657-2.51c-0.25-1.039-0.435-1.771-0.496-2.223
				c-0.103,0.428-0.222,1.087-0.442,2.036c-0.22,0.949-0.695,2.825-1.428,5.599H151.064z"/>
		</g>
	</g>
</g>
</svg>
