<?xml version="1.0" encoding="utf-8"?>
<!-- Generator: Adobe Illustrator 16.0.0, SVG Export Plug-In . SVG Version: 6.00 Build 0)  -->
<!DOCTYPE svg PUBLIC "-//W3C//DTD SVG 1.1//EN" "http://www.w3.org/Graphics/SVG/1.1/DTD/svg11.dtd">
<svg version="1.1" id="Layer_1" xmlns="http://www.w3.org/2000/svg" xmlns:xlink="http://www.w3.org/1999/xlink" x="0px" y="0px"
	 width="205px" height="59.877px" viewBox="0 0 205 59.877" enable-background="new 0 0 205 59.877" xml:space="preserve">
<g>
	<path fill-rule="evenodd" clip-rule="evenodd" fill="#787973" d="M159.012,1.398c0.119,0.082,0.259,0.079,0.394,0.084
		c1.911,0.076,3.787,0.388,5.639,0.854c0.561,0.141,1.119,0.293,1.674,0.454c0.392,0.114,0.375,0.097,0.375,0.482
		c0,1.657,0,3.315-0.001,4.972c0,0.099-0.011,0.199-0.016,0.308c-0.144,0.02-0.236-0.056-0.333-0.105
		c-0.686-0.354-1.384-0.682-2.097-0.977c-1.155-0.478-2.343-0.858-3.569-1.099c-1.105-0.216-2.223-0.327-3.351-0.288
		c-1.771,0.061-3.497,0.352-5.145,1.02c-3.292,1.333-5.567,3.674-6.875,6.966c-0.438,1.102-0.709,2.248-0.877,3.419
		c-0.169,1.172-0.192,2.354-0.132,3.533c0.104,2.042,0.492,4.026,1.278,5.923c0.693,1.676,1.653,3.177,2.938,4.463
		c1.644,1.645,3.605,2.732,5.849,3.322c0.704,0.186,1.418,0.314,2.14,0.389c0.485,0.049,0.974,0.068,1.461,0.082
		c0.566,0.018,1.134,0.027,1.7,0.045c1.101,0.033,2.203,0.045,3.303,0.016c0.909-0.023,1.805-0.172,2.672-0.465
		c0.453-0.152,0.886-0.352,1.288-0.611c0.809-0.521,1.374-1.24,1.726-2.133c0.679-1.721,1.359-3.44,2.037-5.16
		c1.862-4.716,3.725-9.432,5.587-14.148c0.736-1.868,1.473-3.735,2.206-5.604c0.246-0.624,0.444-1.262,0.555-1.925
		c0.062-0.371,0.088-0.745,0.027-1.118c-0.083-0.498-0.324-0.916-0.668-1.278c-0.071-0.074-0.145-0.145-0.219-0.215
		c-0.062-0.06-0.128-0.117-0.231-0.211c0.105-0.008,0.158-0.017,0.211-0.017c2.508,0,5.018,0,7.526,0
		c0.045,0,0.091,0.003,0.136,0.002c0.104-0.002,0.173,0.046,0.212,0.14c0.051,0.126,0.102,0.252,0.15,0.38
		c1.178,3.095,2.354,6.191,3.532,9.286c2.043,5.375,4.088,10.75,6.132,16.125c0.614,1.611,1.223,3.225,1.845,4.833
		c0.419,1.082,0.938,2.113,1.624,3.057c0.57,0.785,1.227,1.488,1.942,2.141c0.075,0.066,0.149,0.137,0.225,0.207
		c0.007,0.008,0.008,0.021,0.019,0.055c-0.039,0.012-0.075,0.029-0.113,0.031c-0.09,0.006-0.182,0.002-0.272,0.002
		c-3.064,0-6.13,0-9.195,0c-0.122,0-0.245-0.004-0.359-0.008c-0.042-0.088,0.018-0.121,0.053-0.158
		c0.197-0.221,0.405-0.43,0.593-0.658c0.173-0.209,0.339-0.428,0.482-0.658c0.216-0.348,0.277-0.73,0.234-1.143
		c-0.063-0.627-0.251-1.221-0.467-1.805c-1.079-2.926-2.162-5.852-3.244-8.777c-0.169-0.454-0.136-0.415-0.609-0.415
		c-4.246,0-8.491,0-12.736,0c-0.136,0-0.271,0.009-0.421,0.014c-0.055,0.111-0.111,0.208-0.153,0.311
		c-1.148,2.863-2.297,5.727-3.443,8.592c-0.273,0.682-0.4,1.393-0.41,2.125c-0.005,0.371,0.098,0.717,0.275,1.041
		c0.247,0.453,0.576,0.842,0.929,1.213c0.084,0.09,0.168,0.178,0.264,0.279c-0.1,0.07-0.192,0.045-0.277,0.045
		c-1.135,0.004-2.271,0.002-3.405,0.002c-1.374,0-2.747,0-4.121,0c-2.691,0-5.381,0.008-8.07-0.006
		c-0.771-0.004-1.542-0.066-2.312-0.109c-0.442-0.023-0.884-0.053-1.324-0.1c-0.519-0.057-1.036-0.123-1.551-0.207
		c-0.839-0.137-1.668-0.32-2.486-0.561c-1.49-0.434-2.828-1.16-4.062-2.09c-3.19-2.402-5.327-5.535-6.483-9.347
		c-0.267-0.88-0.461-1.778-0.596-2.687c-0.079-0.527-0.106-1.06-0.165-1.59c-0.059-0.532-0.059-1.065-0.057-1.599
		c0.009-1.632,0.255-3.23,0.711-4.796c1.376-4.724,4.693-8.826,8.754-11.231c1.881-1.114,3.892-1.894,6.028-2.351
		c0.721-0.153,1.446-0.285,2.182-0.347c0.564-0.048,1.13-0.088,1.695-0.131c0.146-0.011,0.297,0,0.429-0.084
		C158.467,1.398,158.739,1.398,159.012,1.398z M188.066,21.419c-0.063-0.191-0.109-0.341-0.163-0.489
		c-1.36-3.714-2.722-7.428-4.083-11.143c-0.253-0.691-0.504-1.384-0.762-2.075c-0.041-0.108-0.047-0.247-0.196-0.307
		c-0.133,0.121-0.166,0.293-0.227,0.447c-1.387,3.486-2.771,6.974-4.155,10.461c-0.368,0.927-0.735,1.855-1.102,2.783
		c-0.039,0.102-0.108,0.201-0.055,0.329c0.145,0.082,0.307,0.055,0.462,0.055c3.245,0.002,6.489,0.001,9.733,0.001
		c0.103,0,0.205,0.001,0.306-0.007C187.891,21.47,187.954,21.447,188.066,21.419z"/>
	<path fill-rule="evenodd" clip-rule="evenodd" fill="#263B7D" d="M89.603,58.479c0.006-0.113,0.018-0.227,0.018-0.34
		c0.002-1.348,0.001-2.697,0.001-4.047c0-0.121,0-0.246,0-0.363c0.131-0.094,0.258-0.066,0.378-0.057
		c0.049,0.004,0.103,0.045,0.139,0.084c0.07,0.074,0.131,0.156,0.194,0.236c0.818,1.029,1.637,2.059,2.457,3.086
		c0.069,0.086,0.144,0.168,0.223,0.264c0.099-0.088,0.07-0.184,0.07-0.268c0.003-0.996,0.001-1.994,0.003-2.992
		c0-0.121-0.019-0.248,0.027-0.375c0.167-0.07,0.332-0.025,0.474-0.031c0.109,0.125,0.076,0.244,0.076,0.354
		c0.003,0.93,0.001,1.857,0.001,2.787c0,0.443,0.003,0.887-0.001,1.328c-0.002,0.109-0.027,0.221-0.041,0.334
		c-0.159,0-0.318,0-0.477,0c-0.044-0.076-0.081-0.158-0.135-0.229c-0.288-0.363-0.58-0.727-0.871-1.09
		c-0.56-0.699-1.119-1.398-1.681-2.098c-0.06-0.074-0.105-0.172-0.236-0.199c-0.007,0.082-0.018,0.146-0.018,0.213
		c-0.002,1.1-0.002,2.199-0.001,3.301c0,0.033,0.009,0.068,0.013,0.102C90.011,58.479,89.807,58.479,89.603,58.479z"/>
	<path fill-rule="evenodd" clip-rule="evenodd" fill="#263B7D" d="M128.224,58.479c0.006-0.113,0.019-0.227,0.019-0.34
		c0.001-1.348,0-2.697,0-4.047c0-0.121,0-0.246,0-0.363c0.132-0.094,0.259-0.066,0.378-0.057c0.05,0.004,0.104,0.045,0.141,0.084
		c0.062,0.064,0.115,0.139,0.172,0.211c0.818,1.027,1.637,2.057,2.457,3.086c0.076,0.094,0.138,0.205,0.258,0.275
		c0.085-0.074,0.057-0.17,0.057-0.254c0.002-0.996,0.001-1.994,0.002-2.992c0-0.121-0.019-0.248,0.028-0.379
		c0.167-0.053,0.33-0.045,0.486-0.01c0.096,0.107,0.062,0.227,0.062,0.336c0.004,0.93,0.003,1.857,0.003,2.787
		c0,0.443,0.003,0.887-0.003,1.328c-0.001,0.109-0.025,0.221-0.04,0.334c-0.158,0-0.317,0-0.476,0
		c-0.046-0.076-0.082-0.158-0.137-0.229c-0.287-0.363-0.579-0.727-0.87-1.09c-0.561-0.699-1.12-1.398-1.682-2.098
		c-0.06-0.074-0.104-0.172-0.235-0.199c-0.008,0.082-0.018,0.146-0.02,0.213c-0.001,1.1-0.001,2.199,0,3.301
		c0,0.033,0.009,0.068,0.013,0.102C128.632,58.479,128.428,58.479,128.224,58.479z"/>
	<path fill-rule="evenodd" clip-rule="evenodd" fill="#263B7D" d="M164.188,58.479c0.004-0.205,0.009-0.408,0.009-0.613
		c0-1.258,0-2.518,0-3.775c0-0.123,0-0.246,0-0.367c0.146-0.09,0.282-0.051,0.433-0.055c0.076,0.09,0.158,0.182,0.235,0.277
		c0.826,1.037,1.651,2.078,2.479,3.113c0.076,0.094,0.13,0.213,0.246,0.264c0.1-0.059,0.066-0.146,0.067-0.221
		c0.002-0.691,0.001-1.383,0.001-2.074c0-0.34-0.001-0.68,0.001-1.021c0.001-0.1,0.013-0.197,0.021-0.301
		c0.174-0.055,0.327-0.039,0.503-0.012c0.014,0.066,0.034,0.129,0.037,0.191c0.008,0.113,0.005,0.229,0.005,0.342
		c0,1.27,0,2.539-0.002,3.809c0,0.148-0.009,0.295-0.015,0.443c-0.159,0-0.318,0-0.478,0c-0.056-0.084-0.106-0.172-0.169-0.25
		c-0.451-0.566-0.904-1.131-1.356-1.697c-0.396-0.494-0.791-0.988-1.188-1.482c-0.053-0.064-0.097-0.146-0.205-0.168
		c-0.05,0.123-0.034,0.236-0.034,0.346c-0.001,0.961,0,1.922-0.003,2.885c0,0.121-0.026,0.244-0.041,0.367
		C164.552,58.479,164.37,58.479,164.188,58.479z"/>
	<path fill-rule="evenodd" clip-rule="evenodd" fill="#263B7D" d="M74.344,58.479c-0.072-0.115-0.209-0.125-0.314-0.186
		c-0.513-0.301-0.75-0.811-0.631-1.385c0.058-0.277,0.207-0.502,0.405-0.695c0.146-0.143,0.305-0.27,0.475-0.42
		c-0.032-0.055-0.06-0.111-0.097-0.162c-0.093-0.129-0.197-0.25-0.284-0.383c-0.382-0.584-0.141-1.305,0.534-1.553
		c0.357-0.129,0.713-0.123,1.063,0.023c0.559,0.234,0.755,0.832,0.449,1.355c-0.128,0.219-0.318,0.381-0.519,0.531
		c-0.097,0.074-0.221,0.121-0.284,0.254c0.031,0.041,0.058,0.092,0.096,0.131c0.345,0.359,0.693,0.719,1.041,1.076
		c0.013,0.012,0.042,0.01,0.081,0.021c0.217-0.312,0.227-0.691,0.291-1.043c0.145-0.055,0.264-0.055,0.38-0.012
		c0.081,0.377,0.02,0.656-0.323,1.455c0.038,0.053,0.078,0.119,0.129,0.176c0.186,0.199,0.379,0.393,0.563,0.592
		c0.06,0.064,0.099,0.146,0.147,0.223c-0.227,0-0.454,0-0.681,0c-0.167-0.182-0.322-0.377-0.508-0.512
		c-0.295,0.168-0.569,0.322-0.841,0.48c-0.008,0.004-0.009,0.02-0.013,0.031C75.116,58.479,74.73,58.479,74.344,58.479z
		 M75.994,57.601c-0.216-0.301-1.159-1.283-1.379-1.438c-0.19,0.115-0.353,0.27-0.494,0.447c-0.404,0.508-0.225,1.152,0.381,1.381
		C75.02,58.188,75.59,58.042,75.994,57.601z M74.773,55.485c0.242-0.131,0.447-0.287,0.625-0.479
		c0.053-0.057,0.094-0.129,0.125-0.199c0.118-0.275,0.018-0.557-0.246-0.695c-0.203-0.107-0.417-0.107-0.627-0.033
		c-0.354,0.125-0.563,0.539-0.306,0.914C74.465,55.169,74.595,55.339,74.773,55.485z"/>
	<path fill-rule="evenodd" clip-rule="evenodd" fill="#263B7D" d="M41.376,58.479c0.006-0.113,0.018-0.227,0.018-0.34
		c0.002-1.35,0-2.699,0.002-4.051c0-0.123,0.003-0.246,0.006-0.387c0.094-0.014,0.169-0.035,0.244-0.035
		c0.579-0.004,1.158,0.002,1.737-0.004c0.805-0.004,1.301,0.582,1.451,1.162c0.096,0.379,0.047,0.744-0.125,1.092
		c-0.124,0.252-0.309,0.447-0.557,0.58c-0.077,0.041-0.155,0.082-0.254,0.135c0.05,0.094,0.087,0.172,0.134,0.246
		c0.272,0.434,0.546,0.863,0.818,1.295c0.059,0.096,0.141,0.182,0.136,0.307c-0.205,0-0.409,0-0.613,0
		c-0.341-0.547-0.683-1.094-1.022-1.639c-0.061-0.1-0.148-0.129-0.258-0.129c-0.305,0.004-0.611,0-0.917,0.004
		c-0.053,0-0.106,0.018-0.202,0.037c0.006,0.58-0.015,1.152,0.014,1.727C41.785,58.479,41.581,58.479,41.376,58.479z M42.006,56.163
		c0.043,0.02,0.063,0.035,0.084,0.035c0.463,0.004,0.928,0.016,1.391,0.006c0.309-0.006,0.529-0.178,0.675-0.445
		c0.088-0.16,0.137-0.336,0.145-0.518c0.021-0.494-0.339-1.096-0.98-1.068c-0.362,0.016-0.724,0.002-1.086,0.004
		c-0.075,0.002-0.151,0.021-0.219,0.031C41.966,54.489,41.96,55.835,42.006,56.163z"/>
	<path fill-rule="evenodd" clip-rule="evenodd" fill="#263B7D" d="M103.089,58.479c0.003-0.229,0.008-0.455,0.008-0.68
		c0.001-1.238,0.001-2.475,0.001-3.711c0-0.125,0-0.248,0-0.383c0.086-0.018,0.15-0.039,0.215-0.039c0.601-0.004,1.202-0.01,1.804,0
		c0.758,0.014,1.381,0.607,1.445,1.363c0.023,0.275-0.002,0.543-0.113,0.799c-0.128,0.291-0.322,0.52-0.604,0.67
		c-0.078,0.041-0.154,0.084-0.251,0.135c0.063,0.113,0.115,0.211,0.174,0.307c0.259,0.412,0.523,0.822,0.78,1.236
		c0.06,0.096,0.102,0.201,0.151,0.303c-0.204,0-0.408,0-0.613,0c-0.188-0.299-0.37-0.598-0.563-0.891
		c-0.19-0.291-0.352-0.604-0.563-0.855c-0.52-0.045-1.009-0.033-1.265,0.035c-0.006,0.092-0.017,0.189-0.018,0.289
		c-0.002,0.363,0.003,0.725-0.002,1.088c-0.002,0.111-0.027,0.221-0.041,0.334C103.452,58.479,103.271,58.479,103.089,58.479z
		 M103.716,54.194c-0.018,0.066-0.034,0.098-0.034,0.129c-0.001,0.58-0.001,1.158,0.001,1.736c0,0.041,0.024,0.082,0.034,0.111
		c0.04,0.016,0.061,0.029,0.081,0.029c0.453,0.006,0.908,0.014,1.361,0.006c0.339-0.006,0.572-0.195,0.717-0.494
		c0.129-0.266,0.149-0.547,0.073-0.83c-0.121-0.439-0.464-0.699-0.927-0.705c-0.362-0.004-0.726-0.002-1.089,0
		C103.867,54.177,103.801,54.187,103.716,54.194z"/>
	<path fill-rule="evenodd" clip-rule="evenodd" fill="#263B7D" d="M59.223,58.479c0.003-0.229,0.008-0.455,0.008-0.68
		c0.001-1.238,0-2.475,0-3.711c0-0.125,0-0.248,0-0.383c0.086-0.018,0.151-0.039,0.215-0.039c0.601-0.004,1.203-0.01,1.804,0
		c0.757,0.014,1.38,0.607,1.445,1.363c0.024,0.275-0.001,0.543-0.114,0.799c-0.127,0.291-0.322,0.52-0.604,0.67
		c-0.077,0.041-0.154,0.084-0.25,0.135c0.063,0.113,0.115,0.211,0.174,0.307c0.259,0.412,0.523,0.822,0.78,1.236
		c0.059,0.096,0.102,0.201,0.151,0.303c-0.205,0-0.409,0-0.613,0c-0.188-0.299-0.37-0.598-0.563-0.891
		c-0.191-0.291-0.353-0.604-0.564-0.855c-0.52-0.045-1.009-0.033-1.264,0.035c-0.006,0.092-0.017,0.189-0.017,0.289
		c-0.003,0.363,0.001,0.725-0.003,1.088c-0.001,0.111-0.027,0.221-0.041,0.334C59.586,58.479,59.404,58.479,59.223,58.479z
		 M59.847,56.194c0.125,0.008,0.236,0.018,0.348,0.02c0.294,0.002,0.589,0,0.885,0c0.09,0,0.182-0.004,0.271-0.012
		c0.242-0.021,0.432-0.139,0.566-0.336c0.24-0.357,0.282-0.742,0.105-1.133c-0.164-0.361-0.444-0.562-0.856-0.559
		c-0.374,0.004-0.749,0-1.123,0.002c-0.064,0.002-0.129,0.018-0.188,0.025C59.8,54.474,59.792,55.81,59.847,56.194z"/>
	<path fill-rule="evenodd" clip-rule="evenodd" fill="#263B7D" d="M6.706,58.479c-0.01-1.588-0.003-3.174-0.005-4.777
		c0.1-0.016,0.176-0.035,0.25-0.035c0.579-0.004,1.157-0.006,1.735-0.002c0.634,0.006,1.079,0.32,1.338,0.883
		c0.259,0.561,0.199,1.107-0.174,1.602c-0.1,0.133-0.248,0.23-0.381,0.332c-0.071,0.055-0.158,0.086-0.26,0.137
		c0.031,0.074,0.05,0.15,0.089,0.211c0.276,0.443,0.557,0.881,0.833,1.324c0.066,0.105,0.123,0.217,0.184,0.326
		c-0.227,0-0.454,0-0.681,0c0.001-0.023,0.011-0.051,0.001-0.066c-0.33-0.525-0.662-1.051-0.992-1.576
		c-0.062-0.098-0.15-0.125-0.259-0.125c-0.316,0.004-0.632,0.002-0.948,0.006c-0.042,0-0.084,0.02-0.125,0.031
		c-0.063,0.127-0.043,0.252-0.045,0.375c-0.007,0.451-0.011,0.902-0.016,1.355C7.069,58.479,6.887,58.479,6.706,58.479z
		 M7.315,54.196c-0.056,0.27-0.078,1.26-0.045,1.824c0.004,0.053,0.025,0.104,0.034,0.143c0.041,0.02,0.062,0.037,0.081,0.037
		c0.463,0.004,0.927,0.014,1.39,0.006c0.309-0.008,0.528-0.18,0.675-0.447c0.144-0.26,0.174-0.537,0.113-0.822
		c-0.102-0.471-0.462-0.754-0.948-0.76c-0.362-0.004-0.724-0.002-1.086,0C7.463,54.177,7.396,54.188,7.315,54.196z"/>
	<path fill-rule="evenodd" clip-rule="evenodd" fill="#263B7D" d="M188.233,58.479c-0.011-0.125-0.028-0.248-0.028-0.373
		c-0.002-1.34-0.002-2.68-0.001-4.02c0-0.123,0.01-0.244,0.017-0.385c0.095-0.014,0.171-0.035,0.246-0.035
		c0.578-0.004,1.158,0,1.736-0.004c1.062-0.004,1.623,1.068,1.46,1.818c-0.106,0.486-0.351,0.857-0.81,1.068
		c-0.03,0.014-0.062,0.029-0.09,0.045c-0.011,0.006-0.016,0.018-0.024,0.027c-0.034,0.104,0.045,0.168,0.092,0.242
		c0.335,0.539,0.674,1.076,1.012,1.615c-0.227,0-0.453,0-0.681,0c-0.026-0.061-0.045-0.127-0.08-0.184
		c-0.173-0.277-0.35-0.553-0.526-0.83c-0.126-0.201-0.256-0.398-0.381-0.6c-0.058-0.094-0.128-0.154-0.244-0.152
		c-0.34,0.002-0.678,0.002-1.018,0.006c-0.03,0-0.061,0.023-0.085,0.033c-0.016,0.027-0.035,0.047-0.035,0.064
		c-0.007,0.555-0.011,1.107-0.015,1.662C188.597,58.479,188.414,58.479,188.233,58.479z M188.814,56.163
		c0.027,0.012,0.057,0.037,0.088,0.037c0.475,0.002,0.95,0.014,1.426-0.002c0.282-0.008,0.482-0.176,0.62-0.416
		c0.115-0.201,0.168-0.418,0.155-0.65c-0.029-0.559-0.429-0.949-0.986-0.955c-0.362-0.004-0.724-0.002-1.087,0.002
		c-0.075,0-0.148,0.023-0.216,0.035C188.763,54.528,188.765,55.888,188.814,56.163z"/>
	<path fill-rule="evenodd" clip-rule="evenodd" fill="#263B7D" d="M47.303,58.479c-0.059-0.031-0.115-0.066-0.176-0.088
		c-0.972-0.367-1.483-1.088-1.591-2.1c-0.076-0.711,0.125-1.354,0.601-1.891c0.596-0.672,1.342-0.904,2.215-0.684
		c0.418,0.107,0.756,0.357,1.039,0.68c0.805,0.922,0.83,2.309,0.06,3.26c-0.271,0.334-0.611,0.57-1.017,0.717
		c-0.083,0.031-0.164,0.068-0.246,0.105C47.893,58.479,47.598,58.479,47.303,58.479z M49.432,56.071
		c-0.003-0.506-0.146-0.961-0.475-1.35c-0.651-0.768-1.779-0.74-2.403,0.021c-0.603,0.738-0.598,1.912,0.008,2.646
		c0.613,0.742,1.757,0.787,2.402,0C49.278,57.007,49.422,56.562,49.432,56.071z"/>
	<path fill-rule="evenodd" clip-rule="evenodd" fill="#263B7D" d="M124.682,58.479c-0.051-0.025-0.098-0.059-0.149-0.074
		c-0.844-0.266-1.357-0.854-1.58-1.686c-0.248-0.928-0.021-1.758,0.65-2.445c0.805-0.828,2.152-0.877,3.021,0.002
		c0.918,0.928,0.978,2.453,0.123,3.439c-0.273,0.316-0.612,0.535-1.006,0.674c-0.062,0.02-0.116,0.059-0.174,0.09
		C125.271,58.479,124.978,58.479,124.682,58.479z M125.102,54.163c-0.461-0.014-0.845,0.184-1.154,0.527
		c-0.673,0.744-0.667,1.998,0,2.746c0.604,0.68,1.661,0.707,2.291,0.035c0.684-0.73,0.721-1.994,0.065-2.746
		C125.991,54.366,125.604,54.155,125.102,54.163z"/>
	<path fill-rule="evenodd" clip-rule="evenodd" fill="#263B7D" d="M140.825,58.479c-0.05-0.025-0.098-0.059-0.15-0.074
		c-0.844-0.266-1.355-0.854-1.579-1.686c-0.248-0.928-0.021-1.758,0.649-2.445c0.805-0.828,2.152-0.877,3.022,0.002
		c0.918,0.928,0.978,2.453,0.124,3.439c-0.275,0.316-0.613,0.535-1.008,0.674c-0.062,0.02-0.116,0.059-0.174,0.09
		C141.416,58.479,141.12,58.479,140.825,58.479z M139.589,55.86c-0.007,0.58,0.094,0.947,0.292,1.287
		c0.624,1.07,2.081,1.104,2.735,0.012c0.188-0.307,0.286-0.645,0.3-0.998c0.022-0.564-0.134-1.074-0.524-1.498
		c-0.643-0.697-1.745-0.678-2.356,0.09C139.734,55.132,139.597,55.565,139.589,55.86z"/>
	<path fill-rule="evenodd" clip-rule="evenodd" fill="#263B7D" d="M12.631,58.479c-0.05-0.025-0.097-0.059-0.15-0.074
		c-0.843-0.266-1.355-0.854-1.578-1.686c-0.249-0.928-0.021-1.758,0.649-2.445c0.805-0.828,2.152-0.877,3.022,0.002
		c0.918,0.928,0.977,2.453,0.123,3.439c-0.274,0.316-0.612,0.535-1.006,0.674c-0.061,0.02-0.116,0.059-0.173,0.09
		C13.222,58.479,12.927,58.479,12.631,58.479z M11.395,55.897c-0.001,0.611,0.139,1.051,0.393,1.4
		c0.191,0.262,0.434,0.467,0.742,0.572c0.614,0.209,1.254,0.076,1.722-0.471c0.315-0.367,0.463-0.807,0.475-1.281
		c0.014-0.539-0.142-1.029-0.51-1.438c-0.647-0.719-1.765-0.699-2.379,0.08C11.538,55.14,11.4,55.575,11.395,55.897z"/>
	<path fill-rule="evenodd" clip-rule="evenodd" fill="#263B7D" d="M86.06,58.479c-0.05-0.025-0.098-0.059-0.15-0.074
		c-0.843-0.266-1.356-0.854-1.579-1.686c-0.248-0.928-0.021-1.758,0.65-2.445c0.804-0.828,2.152-0.877,3.022,0.002
		c0.918,0.928,0.977,2.453,0.123,3.439c-0.274,0.316-0.612,0.535-1.007,0.674c-0.061,0.02-0.116,0.059-0.173,0.09
		C86.65,58.479,86.355,58.479,86.06,58.479z M84.822,55.954c-0.002,0.508,0.107,0.895,0.33,1.25
		c0.615,0.984,1.995,1.039,2.665,0.014c0.21-0.32,0.321-0.676,0.336-1.055c0.023-0.553-0.127-1.055-0.5-1.475
		c-0.651-0.732-1.783-0.713-2.402,0.09C84.963,55.151,84.831,55.577,84.822,55.954z"/>
	<path fill-rule="evenodd" clip-rule="evenodd" fill="#263B7D" d="M160.646,58.479c-0.051-0.025-0.098-0.059-0.15-0.074
		c-0.844-0.266-1.355-0.854-1.578-1.686c-0.248-0.928-0.021-1.758,0.648-2.445c0.806-0.828,2.152-0.877,3.022,0.002
		c0.918,0.928,0.978,2.453,0.124,3.439c-0.274,0.316-0.612,0.535-1.008,0.674c-0.061,0.02-0.116,0.059-0.174,0.09
		C161.237,58.479,160.941,58.479,160.646,58.479z M161.107,54.163c-0.561-0.012-0.978,0.229-1.297,0.652
		c-0.543,0.723-0.536,1.787,0.011,2.508c0.196,0.26,0.442,0.457,0.754,0.557c0.652,0.207,1.272,0.025,1.712-0.506
		c0.291-0.355,0.435-0.771,0.451-1.221c0.021-0.604-0.155-1.145-0.604-1.568C161.843,54.312,161.499,54.155,161.107,54.163z"/>
	<path fill-rule="evenodd" clip-rule="evenodd" fill="#263B7D" d="M55.136,58.479c-0.009-1.588-0.005-3.172-0.002-4.764
		c0.062-0.02,0.103-0.047,0.144-0.047c0.952-0.002,1.904-0.002,2.856,0c0.032,0,0.065,0.014,0.109,0.023
		c0.076,0.148,0.064,0.295,0.004,0.469c-0.113,0.004-0.225,0.014-0.335,0.014c-0.612,0.002-1.224,0-1.836,0.002
		c-0.111,0-0.225-0.018-0.327,0.031c-0.071,0.279-0.072,1.248,0.001,1.531c0.228,0.059,0.465,0.023,0.7,0.027
		c0.25,0.006,0.5,0.002,0.748,0.002c0.237,0,0.473,0.002,0.7,0.002c0.076,0.203,0.078,0.203,0.024,0.438
		c-0.077,0.008-0.163,0.027-0.249,0.027c-0.51,0.004-1.02,0.002-1.531,0.002c-0.124,0-0.247,0.006-0.375,0.01
		c-0.024,0.051-0.06,0.09-0.06,0.129c-0.004,0.477-0.003,0.953-0.001,1.428c0,0.031,0.022,0.062,0.043,0.117
		c0.091,0.008,0.19,0.02,0.289,0.02c0.646,0.002,1.292,0,1.938,0.002c0.11,0,0.222,0.01,0.335,0.014
		c0.062,0.188,0.04,0.355,0.025,0.523C57.27,58.479,56.203,58.479,55.136,58.479z"/>
	<path fill-rule="evenodd" clip-rule="evenodd" fill="#263B7D" d="M37.153,58.479c0.006-0.113,0.018-0.227,0.019-0.34
		c0.001-1.348,0-2.697,0-4.045c0-0.123,0-0.246,0-0.383c0.084-0.018,0.147-0.045,0.21-0.045c0.59-0.004,1.179-0.008,1.769,0
		c1.004,0.01,1.558,0.998,1.44,1.74c-0.045,0.283-0.14,0.549-0.321,0.777c-0.261,0.326-0.592,0.521-1.02,0.525
		c-0.374,0.002-0.749,0-1.123,0.004c-0.11,0-0.227-0.025-0.328,0.041c-0.061,0.242-0.076,1.068-0.034,1.725
		C37.562,58.479,37.358,58.479,37.153,58.479z M37.779,54.194c-0.048,0.361-0.027,0.688-0.023,1.014
		c0.003,0.324-0.04,0.648,0.035,0.98c0.106,0.01,0.194,0.023,0.283,0.023c0.317,0.004,0.634,0.002,0.95,0.002
		c0.079-0.002,0.158-0.006,0.237-0.014c0.255-0.027,0.443-0.158,0.579-0.371c0.1-0.154,0.155-0.326,0.176-0.508
		c0.062-0.539-0.294-1.199-1.024-1.148c-0.304,0.02-0.611,0.002-0.917,0.004C37.988,54.177,37.898,54.188,37.779,54.194z"/>
	<path fill-rule="evenodd" clip-rule="evenodd" fill="#263B7D" d="M136.125,58.479c-0.071-0.031-0.142-0.066-0.215-0.088
		c-0.329-0.096-0.641-0.229-0.922-0.426c-0.055-0.039-0.103-0.088-0.155-0.133c0.04-0.168,0.132-0.295,0.235-0.441
		c0.071,0.041,0.138,0.074,0.198,0.117c0.548,0.373,1.15,0.523,1.808,0.443c0.111-0.016,0.225-0.043,0.328-0.084
		c0.251-0.096,0.414-0.268,0.442-0.551c0.028-0.287-0.073-0.518-0.326-0.658c-0.166-0.092-0.348-0.166-0.53-0.223
		c-0.27-0.084-0.549-0.141-0.82-0.223c-0.205-0.061-0.411-0.131-0.604-0.223c-0.397-0.191-0.589-0.516-0.582-0.957
		c0.008-0.568,0.268-0.975,0.779-1.215c0.121-0.057,0.255-0.1,0.387-0.123c0.672-0.129,1.31-0.051,1.895,0.328
		c0.063,0.039,0.119,0.096,0.188,0.152c-0.072,0.152-0.134,0.295-0.258,0.412c-0.095-0.059-0.177-0.115-0.265-0.166
		c-0.463-0.27-0.96-0.332-1.479-0.234c-0.397,0.074-0.638,0.352-0.652,0.721c-0.011,0.26,0.085,0.471,0.32,0.592
		c0.15,0.078,0.311,0.139,0.473,0.186c0.283,0.08,0.574,0.137,0.857,0.219c0.206,0.061,0.411,0.131,0.604,0.223
		c0.417,0.201,0.634,0.539,0.64,1.004c0.004,0.465-0.166,0.844-0.573,1.088c-0.125,0.076-0.27,0.119-0.402,0.18
		c-0.05,0.021-0.096,0.053-0.143,0.08C136.942,58.479,136.534,58.479,136.125,58.479z"/>
	<path fill-rule="evenodd" clip-rule="evenodd" fill="#263B7D" d="M95.801,58.479c-0.084-0.031-0.166-0.068-0.251-0.094
		c-0.381-0.119-0.745-0.268-1.056-0.545c0.03-0.178,0.137-0.307,0.24-0.457c0.078,0.051,0.143,0.092,0.206,0.135
		c0.55,0.369,1.153,0.52,1.811,0.43c0.132-0.018,0.268-0.057,0.388-0.115c0.469-0.236,0.514-0.844,0.082-1.145
		c-0.128-0.088-0.279-0.152-0.427-0.203c-0.236-0.078-0.48-0.133-0.72-0.203c-0.217-0.062-0.437-0.121-0.648-0.203
		c-0.146-0.055-0.286-0.137-0.416-0.225c-0.175-0.119-0.29-0.293-0.331-0.5c-0.121-0.611,0.073-1.164,0.635-1.484
		c0.622-0.354,1.891-0.342,2.566,0.307c-0.042,0.148-0.127,0.275-0.239,0.418c-0.071-0.045-0.135-0.086-0.2-0.127
		c-0.473-0.303-0.991-0.381-1.535-0.283c-0.454,0.082-0.699,0.408-0.662,0.846c0.015,0.18,0.092,0.33,0.244,0.426
		c0.113,0.072,0.238,0.135,0.366,0.176c0.249,0.076,0.504,0.133,0.755,0.201c0.186,0.049,0.375,0.092,0.556,0.156
		c0.149,0.053,0.296,0.119,0.431,0.199c0.338,0.199,0.514,0.498,0.526,0.896c0.019,0.623-0.248,1.033-0.827,1.268
		c-0.09,0.037-0.209,0.02-0.268,0.127C96.618,58.479,96.209,58.479,95.801,58.479z"/>
	<path fill-rule="evenodd" clip-rule="evenodd" fill="#263B7D" d="M170.387,58.479c-0.084-0.031-0.165-0.068-0.251-0.094
		c-0.381-0.117-0.744-0.268-1.054-0.543c0.023-0.184,0.146-0.303,0.225-0.469c0.091,0.061,0.155,0.102,0.219,0.145
		c0.551,0.369,1.154,0.52,1.812,0.43c0.133-0.018,0.268-0.057,0.387-0.115c0.471-0.236,0.515-0.842,0.083-1.145
		c-0.129-0.088-0.278-0.152-0.429-0.203c-0.234-0.078-0.479-0.133-0.719-0.203c-0.217-0.062-0.438-0.121-0.648-0.203
		c-0.146-0.055-0.286-0.137-0.416-0.225c-0.176-0.119-0.29-0.293-0.331-0.5c-0.128-0.641,0.099-1.195,0.665-1.5
		c0.612-0.33,1.861-0.324,2.535,0.322c-0.041,0.148-0.127,0.275-0.239,0.42c-0.071-0.047-0.135-0.088-0.198-0.129
		c-0.475-0.301-0.992-0.381-1.537-0.283c-0.439,0.078-0.682,0.389-0.663,0.811c0.01,0.209,0.097,0.375,0.273,0.48
		c0.116,0.07,0.242,0.125,0.371,0.164c0.239,0.072,0.483,0.127,0.724,0.193c0.207,0.057,0.416,0.111,0.619,0.182
		c0.128,0.043,0.252,0.105,0.367,0.174c0.338,0.201,0.514,0.498,0.526,0.896c0.019,0.623-0.247,1.033-0.827,1.268
		c-0.09,0.037-0.209,0.02-0.267,0.127C171.204,58.479,170.796,58.479,170.387,58.479z"/>
	<path fill-rule="evenodd" clip-rule="evenodd" fill="#263B7D" d="M109.015,58.479c-0.06-0.029-0.117-0.064-0.18-0.086
		c-0.58-0.186-0.963-0.576-1.174-1.141c-0.124-0.334-0.184-0.682-0.188-1.033c-0.012-0.783-0.004-1.566-0.003-2.348
		c0-0.055,0.012-0.109,0.019-0.172c0.178-0.055,0.343-0.041,0.501-0.016c0.087,0.096,0.057,0.203,0.057,0.301
		c0.003,0.691-0.003,1.383,0.006,2.074c0.002,0.238,0.034,0.475,0.068,0.709c0.033,0.227,0.12,0.438,0.25,0.627
		c0.233,0.338,0.551,0.531,0.965,0.559c0.834,0.055,1.362-0.332,1.544-1.154c0.051-0.23,0.069-0.473,0.073-0.707
		c0.012-0.67,0.007-1.34,0.009-2.008c0.001-0.123,0.011-0.246,0.015-0.369c0.186-0.078,0.349-0.055,0.533-0.029
		c0.01,0.088,0.023,0.164,0.023,0.24c0.002,0.748,0,1.496,0,2.246c0,0.33-0.046,0.656-0.148,0.971
		c-0.205,0.635-0.604,1.08-1.264,1.264c-0.053,0.016-0.101,0.047-0.151,0.072C109.651,58.479,109.333,58.479,109.015,58.479z"/>
	<path fill-rule="evenodd" clip-rule="evenodd" fill="#263B7D" d="M2.482,58.479c-0.036-1.658-0.022-4.438,0.028-4.783
		c0.07-0.01,0.146-0.029,0.221-0.029c0.556-0.004,1.112-0.008,1.668-0.002c0.682,0.008,1.205,0.402,1.422,1.062
		c0.201,0.609-0.016,1.336-0.514,1.717c-0.223,0.17-0.473,0.266-0.757,0.266c-0.375,0-0.749,0-1.123,0.004
		c-0.111,0-0.227-0.025-0.347,0.049c-0.078,0.279-0.024,0.574-0.036,0.865c-0.011,0.283-0.011,0.566-0.017,0.852
		C2.846,58.479,2.665,58.479,2.482,58.479z M3.075,54.198c-0.05,0.242-0.027,0.457-0.031,0.67c-0.003,0.227-0.005,0.453,0.001,0.678
		c0.005,0.211-0.036,0.426,0.047,0.643c0.099,0.01,0.187,0.023,0.275,0.025c0.317,0.002,0.634,0,0.951,0
		c0.067,0,0.136-0.004,0.203-0.008c0.295-0.025,0.507-0.176,0.648-0.434c0.161-0.293,0.184-0.605,0.094-0.92
		c-0.123-0.43-0.452-0.67-0.907-0.676c-0.351-0.004-0.702-0.002-1.052,0C3.238,54.177,3.171,54.188,3.075,54.198z"/>
	<path fill-rule="evenodd" clip-rule="evenodd" fill="#263B7D" d="M50.913,58.479c-0.036-1.658-0.021-4.436,0.027-4.779
		c0.059-0.012,0.124-0.033,0.188-0.033c0.578-0.004,1.157-0.01,1.735,0c0.771,0.012,1.401,0.623,1.455,1.393
		c0.024,0.35-0.037,0.68-0.223,0.979c-0.264,0.424-0.635,0.672-1.148,0.672c-0.362,0.002-0.726,0-1.089,0.004
		c-0.111,0-0.227-0.025-0.329,0.039c-0.074,0.09-0.053,0.195-0.054,0.295c-0.003,0.342,0,0.684-0.002,1.021
		c0,0.137-0.01,0.273-0.014,0.41C51.276,58.479,51.094,58.479,50.913,58.479z M51.517,56.188c0.104,0.01,0.192,0.023,0.28,0.025
		c0.316,0.002,0.633,0,0.95,0c0.068,0,0.136-0.004,0.204-0.008c0.295-0.025,0.507-0.176,0.648-0.432
		c0.161-0.293,0.185-0.607,0.095-0.922c-0.122-0.43-0.453-0.67-0.907-0.676c-0.362-0.004-0.724-0.002-1.086,0.002
		c-0.063,0-0.127,0.02-0.182,0.029C51.459,54.503,51.456,55.851,51.517,56.188z"/>
	<path fill-rule="evenodd" clip-rule="evenodd" fill="#263B7D" d="M149.544,58.479c-0.059-0.029-0.115-0.068-0.176-0.088
		c-0.578-0.193-0.959-0.586-1.166-1.15c-0.133-0.355-0.179-0.729-0.183-1.104c-0.009-0.725-0.004-1.451-0.002-2.176
		c0-0.088,0.021-0.174,0.033-0.266c0.174-0.051,0.328-0.035,0.475-0.016c0.09,0.094,0.061,0.203,0.062,0.301
		c0.003,0.691,0.003,1.383,0.002,2.074c0,0.309,0.031,0.613,0.129,0.904c0.052,0.158,0.123,0.318,0.218,0.457
		c0.222,0.328,0.539,0.502,0.938,0.537c0.986,0.086,1.423-0.518,1.552-1.146c0.055-0.266,0.079-0.539,0.084-0.809
		c0.013-0.635,0.004-1.27,0.004-1.906c0-0.123,0-0.246,0-0.369c0.183-0.092,0.347-0.059,0.528-0.039
		c0.014,0.086,0.035,0.16,0.035,0.236c0.002,0.75,0.003,1.498-0.002,2.244c-0.001,0.273-0.026,0.545-0.096,0.809
		c-0.185,0.707-0.576,1.223-1.306,1.434c-0.039,0.012-0.072,0.047-0.109,0.072C150.224,58.479,149.884,58.479,149.544,58.479z"/>
	<path fill-rule="evenodd" clip-rule="evenodd" fill="#263B7D" d="M25.982,58.479c0.203-0.506,0.404-1.012,0.609-1.516
		c0.394-0.965,0.789-1.93,1.185-2.896c0.051-0.125,0.108-0.246,0.164-0.373c0.154-0.049,0.299-0.027,0.459-0.023
		c0.033,0.057,0.075,0.109,0.1,0.17c0.598,1.457,1.194,2.916,1.787,4.377c0.033,0.08,0.038,0.174,0.056,0.262
		c-0.182,0-0.363,0-0.545,0c-0.231-0.465-0.37-0.971-0.605-1.418c-0.386-0.041-1.77-0.033-2.041,0.012
		c-0.19,0.459-0.388,0.926-0.555,1.406C26.391,58.479,26.187,58.479,25.982,58.479z M29.028,56.548
		c-0.018-0.193-0.116-0.361-0.18-0.541c-0.065-0.18-0.138-0.357-0.208-0.537s-0.135-0.361-0.21-0.537
		c-0.073-0.17-0.113-0.359-0.233-0.523c-0.039,0.043-0.071,0.064-0.082,0.094c-0.263,0.65-0.523,1.299-0.783,1.951
		c-0.011,0.029-0.001,0.066-0.001,0.098C27.61,56.608,28.755,56.606,29.028,56.548z"/>
	<path fill-rule="evenodd" clip-rule="evenodd" fill="#263B7D" d="M179.173,58.479c0.031-0.098,0.052-0.199,0.09-0.291
		c0.58-1.418,1.162-2.834,1.743-4.248c0.035-0.084,0.074-0.164,0.111-0.246c0.153-0.051,0.3-0.02,0.459-0.029
		c0.04,0.074,0.083,0.139,0.112,0.209c0.592,1.447,1.184,2.895,1.773,4.344c0.034,0.084,0.049,0.174,0.071,0.262
		c-0.204,0-0.408,0-0.612,0c-0.01-0.055-0.011-0.113-0.031-0.162c-0.145-0.367-0.292-0.732-0.441-1.1
		c-0.025-0.059-0.067-0.113-0.096-0.158c-0.438-0.043-1.76-0.031-2.015,0.016c-0.024,0.043-0.056,0.09-0.077,0.143
		c-0.151,0.375-0.302,0.754-0.449,1.131c-0.016,0.041-0.017,0.086-0.025,0.131C179.583,58.479,179.379,58.479,179.173,58.479z
		 M180.506,56.546c0.238,0.059,1.365,0.066,1.693,0.008c-0.017-0.074-0.024-0.15-0.051-0.223c-0.398-1.105-0.644-1.691-0.797-1.904
		c-0.028,0.037-0.06,0.066-0.076,0.104C180.986,55.149,180.548,56.3,180.506,56.546z"/>
	<path fill-rule="evenodd" clip-rule="evenodd" fill="#263B7D" d="M198.518,58.479c0.021-0.088,0.03-0.18,0.064-0.262
		c0.595-1.459,1.192-2.918,1.789-4.375c0.022-0.053,0.054-0.1,0.087-0.162c0.143,0,0.289,0,0.454,0
		c0.037,0.07,0.085,0.145,0.118,0.227c0.585,1.428,1.169,2.854,1.751,4.281c0.038,0.094,0.064,0.193,0.097,0.291
		c-0.204,0-0.408,0-0.613,0c-0.152-0.486-0.366-0.947-0.554-1.406c-0.271-0.045-1.656-0.053-2.019-0.014
		c-0.1,0.084-0.121,0.211-0.17,0.324c-0.154,0.365-0.306,0.73-0.459,1.096C198.882,58.479,198.7,58.479,198.518,58.479z
		 M200.667,54.36c-0.3,0.75-0.569,1.424-0.835,2.096c-0.012,0.029-0.001,0.066-0.001,0.109c0.287,0.053,0.569,0.025,0.852,0.023
		c0.276-0.002,0.558,0.041,0.832-0.031c-0.042-0.273-0.359-1.137-0.729-1.992C200.765,54.517,200.733,54.474,200.667,54.36z"/>
	<path fill-rule="evenodd" clip-rule="evenodd" fill="#263B7D" d="M81.429,58.479c-0.058-0.031-0.113-0.07-0.173-0.094
		c-1.449-0.537-2.115-2.436-1.127-3.822c0.604-0.852,1.589-1.094,2.507-0.814c0.461,0.143,0.808,0.443,1.042,0.883
		c-0.106,0.15-0.257,0.219-0.416,0.303c-0.062-0.082-0.114-0.154-0.168-0.225c-0.26-0.33-0.602-0.508-1.019-0.539
		c-0.726-0.057-1.312,0.275-1.62,0.939c-0.288,0.619-0.291,1.248,0.002,1.873c0.103,0.217,0.247,0.404,0.421,0.57
		c0.671,0.635,1.777,0.523,2.309-0.215c0.04-0.055,0.078-0.109,0.119-0.17c0.169,0.031,0.294,0.123,0.443,0.219
		c-0.02,0.064-0.028,0.133-0.06,0.186c-0.237,0.383-0.593,0.611-1.004,0.773c-0.102,0.039-0.231,0.023-0.303,0.133
		C82.064,58.479,81.746,58.479,81.429,58.479z"/>
	<path fill-rule="evenodd" clip-rule="evenodd" fill="#263B7D" d="M195.862,58.479c-0.057-0.033-0.108-0.076-0.169-0.098
		c-1.367-0.508-2.118-2.336-1.146-3.775c0.59-0.875,1.608-1.148,2.552-0.852c0.403,0.127,0.718,0.381,0.947,0.738
		c0.03,0.045,0.048,0.098,0.077,0.164c-0.068,0.053-0.126,0.105-0.188,0.148c-0.063,0.045-0.134,0.082-0.216,0.131
		c-0.048-0.059-0.093-0.105-0.128-0.16c-0.475-0.729-1.56-0.768-2.121-0.348c-0.224,0.166-0.407,0.361-0.531,0.609
		c-0.329,0.662-0.341,1.33-0.008,1.994c0.104,0.205,0.245,0.381,0.413,0.537c0.659,0.609,1.751,0.51,2.286-0.221
		c0.04-0.055,0.076-0.111,0.11-0.164c0.22,0.047,0.22,0.047,0.47,0.229c-0.038,0.15-0.134,0.273-0.24,0.389
		c-0.234,0.256-0.522,0.43-0.849,0.547c-0.104,0.035-0.204,0.086-0.307,0.131C196.497,58.479,196.18,58.479,195.862,58.479z"/>
	<path fill-rule="evenodd" clip-rule="evenodd" fill="#263B7D" d="M23.394,58.479c-0.059-0.031-0.117-0.064-0.178-0.09
		c-0.965-0.395-1.48-1.129-1.591-2.15c-0.06-0.547,0.064-1.061,0.353-1.531c0.569-0.926,1.598-1.266,2.603-0.959
		c0.464,0.143,0.812,0.443,1.046,0.887c-0.103,0.146-0.257,0.211-0.415,0.299c-0.061-0.08-0.114-0.15-0.168-0.221
		c-0.259-0.334-0.602-0.512-1.019-0.543c-0.727-0.057-1.323,0.273-1.621,0.939c-0.357,0.801-0.296,1.578,0.264,2.273
		c0.691,0.857,1.943,0.727,2.493-0.078c0.032-0.047,0.066-0.09,0.102-0.141c0.167,0.041,0.296,0.129,0.443,0.227
		c-0.024,0.066-0.037,0.131-0.07,0.186c-0.24,0.381-0.594,0.615-1.01,0.768c-0.116,0.043-0.231,0.09-0.347,0.135
		C23.984,58.479,23.689,58.479,23.394,58.479z"/>
	<path fill-rule="evenodd" clip-rule="evenodd" fill="#263B7D" d="M114.123,58.479c-0.059-0.031-0.116-0.064-0.177-0.09
		c-0.966-0.395-1.48-1.129-1.592-2.15c-0.059-0.547,0.065-1.061,0.354-1.531c0.568-0.926,1.598-1.266,2.603-0.959
		c0.464,0.143,0.812,0.443,1.046,0.887c-0.103,0.146-0.257,0.211-0.415,0.299c-0.061-0.08-0.114-0.15-0.169-0.221
		c-0.259-0.334-0.603-0.512-1.019-0.543c-0.727-0.057-1.323,0.273-1.621,0.939c-0.356,0.801-0.295,1.578,0.265,2.273
		c0.691,0.857,1.943,0.727,2.492-0.078c0.032-0.047,0.066-0.09,0.102-0.141c0.054,0.018,0.099,0.023,0.137,0.045
		c0.1,0.053,0.195,0.111,0.309,0.178c-0.024,0.07-0.037,0.135-0.07,0.189c-0.241,0.381-0.595,0.615-1.011,0.768
		c-0.116,0.043-0.231,0.09-0.347,0.135C114.714,58.479,114.419,58.479,114.123,58.479z"/>
	<path fill-rule="evenodd" clip-rule="evenodd" fill="#263B7D" d="M16.174,58.479c0.006-0.113,0.019-0.227,0.019-0.34
		c0.001-1.348,0.001-2.697,0.001-4.045c0-0.123,0-0.248,0-0.381c0.072-0.02,0.125-0.045,0.176-0.047
		c0.941-0.002,1.881,0,2.822,0.002c0.033,0,0.064,0.014,0.109,0.025c0.069,0.148,0.057,0.297,0.005,0.471
		c-0.275,0.021-0.545,0.008-0.814,0.01c-0.284,0.002-0.567,0-0.851,0.002c-0.27,0.002-0.541-0.016-0.822,0.016
		c-0.084,0.277-0.037,0.547-0.042,0.814c-0.005,0.256-0.023,0.516,0.021,0.785c0.367,0.062,0.717,0.021,1.064,0.029
		c0.339,0.006,0.679,0.002,1.014,0.002c0.094,0.156,0.075,0.293,0.023,0.457c-0.693,0.023-1.382-0.006-2.077,0.018
		c-0.088,0.248-0.039,0.486-0.046,0.721c-0.008,0.248-0.004,0.498-0.001,0.746c0.002,0.238,0.009,0.477,0.013,0.715
		C16.583,58.479,16.378,58.479,16.174,58.479z"/>
	<path fill-rule="evenodd" clip-rule="evenodd" fill="#263B7D" d="M184.215,58.479c0.006-0.113,0.018-0.227,0.018-0.34
		c0.001-1.348,0.001-2.697,0.001-4.045c0-0.123,0-0.248,0-0.381c0.072-0.02,0.125-0.045,0.177-0.047c0.94-0.002,1.881,0,2.822,0.002
		c0.032,0,0.063,0.014,0.109,0.025c0.068,0.148,0.056,0.297,0.004,0.471c-0.275,0.021-0.546,0.008-0.814,0.01
		c-0.284,0.002-0.566,0-0.851,0.002c-0.27,0.002-0.541-0.012-0.82,0.012c-0.086,0.281-0.039,0.551-0.044,0.818
		c-0.004,0.258-0.022,0.516,0.021,0.785c0.367,0.062,0.717,0.021,1.064,0.029c0.34,0.006,0.679,0.002,1.011,0.002
		c0.076,0.213,0.076,0.213,0.013,0.457c-0.681,0.023-1.368-0.006-2.063,0.018c-0.088,0.248-0.038,0.486-0.046,0.721
		c-0.01,0.248-0.005,0.498-0.003,0.746c0.003,0.238,0.009,0.477,0.014,0.715C184.623,58.479,184.419,58.479,184.215,58.479z"/>
	<path fill-rule="evenodd" clip-rule="evenodd" fill="#263B7D" d="M154.38,58.479c0.004-0.092,0.012-0.182,0.012-0.271
		c0.001-1.201,0.001-2.402,0.001-3.604c-0.001-0.123-0.007-0.246-0.01-0.387c-0.091-0.016-0.165-0.039-0.239-0.039
		c-0.34-0.004-0.681-0.002-1.02-0.004c-0.111,0-0.224-0.008-0.344-0.014c-0.059-0.154-0.047-0.297-0.018-0.457
		c0.052-0.014,0.104-0.037,0.155-0.037c1.179-0.002,2.356-0.002,3.536,0c0.043,0,0.087,0.014,0.137,0.021
		c0.054,0.15,0.039,0.295,0.012,0.457c-0.074,0.01-0.15,0.027-0.227,0.029c-0.34,0.002-0.68,0-1.02,0.002
		c-0.111,0-0.222,0.01-0.335,0.016c-0.069,0.131-0.048,0.258-0.048,0.379c-0.002,1.156-0.002,2.312,0,3.467
		c0,0.148,0.013,0.295,0.02,0.441C154.788,58.479,154.584,58.479,154.38,58.479z"/>
	<path fill-rule="evenodd" clip-rule="evenodd" fill="#263B7D" d="M64.808,58.479c-0.068-0.129-0.042-0.268-0.042-0.402
		c-0.001-1.156,0-2.312,0-3.469c0-0.123,0-0.246,0-0.389c-0.096-0.018-0.17-0.041-0.245-0.041c-0.34-0.004-0.68-0.002-1.02-0.004
		c-0.112,0-0.224-0.006-0.349-0.01c-0.061-0.162-0.046-0.312-0.013-0.465c0.044-0.014,0.076-0.031,0.107-0.031
		c1.191-0.002,2.38-0.002,3.571-0.002c0.043,0,0.087,0.012,0.137,0.02c0.072,0.146,0.052,0.289,0.021,0.455
		c-0.073,0.012-0.148,0.031-0.222,0.033c-0.34,0.002-0.68,0-1.02,0.002c-0.111,0-0.223,0.01-0.33,0.014
		c-0.085,0.131-0.057,0.258-0.057,0.379c-0.003,0.895-0.002,1.791-0.001,2.686c0,0.408,0.005,0.816,0.008,1.225
		C65.172,58.479,64.989,58.479,64.808,58.479z"/>
	<path fill-rule="evenodd" clip-rule="evenodd" fill="#263B7D" d="M118.482,58.479c-0.067-0.129-0.042-0.268-0.042-0.402
		c-0.002-1.156-0.001-2.312-0.001-3.469c0-0.123,0-0.246,0-0.389c-0.096-0.018-0.17-0.041-0.244-0.041
		c-0.34-0.004-0.68-0.002-1.02-0.004c-0.112,0-0.225-0.006-0.349-0.01c-0.062-0.162-0.047-0.312-0.013-0.465
		c0.044-0.014,0.075-0.031,0.106-0.031c1.19-0.002,2.381-0.002,3.571-0.002c0.043,0,0.087,0.012,0.137,0.02
		c0.072,0.146,0.052,0.289,0.021,0.455c-0.073,0.012-0.147,0.031-0.223,0.033c-0.339,0.002-0.68,0-1.02,0.002
		c-0.111,0-0.223,0.01-0.33,0.014c-0.084,0.131-0.056,0.258-0.056,0.379c-0.004,0.895-0.004,1.791-0.003,2.686
		c0.001,0.408,0.007,0.816,0.01,1.225C118.846,58.479,118.665,58.479,118.482,58.479z"/>
	<path fill-rule="evenodd" clip-rule="evenodd" fill="#263B7D" d="M69.099,58.479c-0.006-0.432-0.014-0.863-0.019-1.293
		c-0.005-0.607,0.036-0.426-0.258-0.922c-0.445-0.754-0.898-1.5-1.346-2.25c-0.057-0.094-0.107-0.191-0.162-0.291
		c0.094-0.086,0.188-0.053,0.273-0.059c0.09-0.006,0.18-0.002,0.289-0.002c0.062,0.096,0.127,0.188,0.183,0.283
		c0.366,0.627,0.729,1.256,1.096,1.883c0.055,0.096,0.118,0.188,0.172,0.273c0.134-0.016,0.157-0.117,0.201-0.189
		c0.381-0.645,0.758-1.291,1.138-1.936c0.057-0.098,0.118-0.193,0.183-0.297c0.184,0,0.362,0,0.539,0
		c0.052,0.096-0.019,0.154-0.057,0.221c-0.465,0.777-0.932,1.557-1.398,2.336c-0.046,0.076-0.087,0.158-0.141,0.232
		c-0.118,0.164-0.15,0.346-0.147,0.545c0.008,0.488,0,0.977,0,1.465C69.462,58.479,69.281,58.479,69.099,58.479z"/>
	<path fill-rule="evenodd" clip-rule="evenodd" fill="#263B7D" d="M100.16,58.479c-0.006-0.148-0.017-0.295-0.017-0.441
		c-0.002-1.146,0-2.289-0.002-3.434c0-0.133,0.022-0.271-0.054-0.412c-0.517-0.045-1.038,0.01-1.566-0.031
		c-0.071-0.154-0.051-0.305-0.017-0.467c0.052-0.01,0.095-0.027,0.138-0.027c1.223,0,2.446,0,3.666,0
		c0.11,0.16,0.074,0.311,0.044,0.486c-0.083,0.008-0.157,0.021-0.233,0.021c-0.339,0.002-0.68,0-1.02,0.002
		c-0.112,0-0.223,0.006-0.318,0.008c-0.102,0.135-0.071,0.264-0.071,0.385c-0.003,1.053-0.002,2.107-0.002,3.162
		c0,0.248-0.002,0.498-0.003,0.748C100.524,58.479,100.341,58.479,100.16,58.479z"/>
	<path fill-rule="evenodd" clip-rule="evenodd" fill="#263B7D" d="M144.366,58.479c0.007-0.113,0.02-0.227,0.02-0.34
		c0.001-1.348,0-2.693,0-4.041c0-0.125,0-0.248,0-0.371c0.189-0.107,0.364-0.047,0.541-0.055c0.057,0.145,0.038,0.27,0.038,0.391
		c0.002,1.156,0.001,2.311,0.002,3.467c0.001,0.121-0.018,0.246,0.028,0.359c0.113,0.076,0.229,0.049,0.34,0.049
		c0.646,0.004,1.291,0.002,1.937,0.004c0.109,0,0.221,0.01,0.335,0.016c0.061,0.186,0.028,0.354,0.029,0.521
		C146.547,58.479,145.456,58.479,144.366,58.479z"/>
	<path fill-rule="evenodd" clip-rule="evenodd" fill="#263B7D" d="M20.125,58.479c0.006-0.113,0.018-0.227,0.018-0.34
		c0.001-1.348,0.001-2.693,0.001-4.041c0-0.125,0-0.248,0-0.371c0.188-0.109,0.363-0.047,0.541-0.055
		c0.058,0.143,0.039,0.27,0.039,0.391c0.001,1.359,0,2.719,0.001,4.076c0,0.113,0.008,0.227,0.013,0.34
		C20.533,58.479,20.329,58.479,20.125,58.479z"/>
	<path fill-rule="evenodd" clip-rule="evenodd" fill="#263B7D" d="M192.66,58.479c-0.009-1.588-0.005-3.172-0.002-4.75
		c0.229-0.078,0.229-0.078,0.524-0.027c0.06,0.121,0.037,0.258,0.037,0.391c0.002,1.156,0.002,2.312,0.001,3.469
		c-0.001,0.305-0.009,0.611-0.016,0.918C193.023,58.479,192.843,58.479,192.66,58.479z"/>
	<path fill-rule="evenodd" clip-rule="evenodd" fill="#263B7D" d="M157.377,58.479c-0.009-1.588-0.007-3.172-0.002-4.75
		c0.229-0.078,0.229-0.078,0.523-0.027c0.06,0.121,0.038,0.258,0.038,0.391c0.001,1.156,0.002,2.312,0,3.469
		c0,0.305-0.01,0.611-0.015,0.918C157.74,58.479,157.56,58.479,157.377,58.479z"/>
	<path fill-rule="evenodd" clip-rule="evenodd" fill="#263B7D" d="M121.412,58.479c-0.008-1.588-0.005-3.172-0.002-4.76
		c0.181-0.086,0.344-0.055,0.514-0.037c0.07,0.141,0.047,0.277,0.048,0.41c0.002,1.156,0.002,2.312,0,3.469
		c-0.001,0.305-0.01,0.611-0.015,0.918C121.776,58.479,121.594,58.479,121.412,58.479z"/>
	<path fill-rule="evenodd" clip-rule="evenodd" fill="#263B7D" d="M12.437,21.666c0.128-0.031,0.256-0.064,0.385-0.092
		c1.29-0.275,2.552-0.641,3.763-1.166c0.889-0.385,1.731-0.85,2.5-1.441c1.025-0.789,1.844-1.744,2.367-2.938
		c0.359-0.819,0.555-1.677,0.598-2.57c0.039-0.821-0.006-1.634-0.227-2.431c-0.39-1.409-1.176-2.542-2.37-3.389
		c-0.835-0.594-1.766-0.971-2.756-1.21c-0.988-0.238-1.993-0.312-3.006-0.295c-1.024,0.017-2.035,0.159-3.043,0.322
		c-0.202,0.033-0.402,0.071-0.603,0.11C9.982,6.58,9.919,6.604,9.843,6.626c-0.01,0.083-0.024,0.159-0.028,0.235
		C9.81,6.964,9.813,7.067,9.813,7.169c0,8.252,0,16.504,0.001,24.756c0,0.58,0,1.158,0.019,1.736
		c0.022,0.682,0.101,1.357,0.262,2.021c0.247,1.018,0.741,1.896,1.469,2.646c0.085,0.088,0.17,0.178,0.251,0.26
		c-0.026,0.092-0.089,0.08-0.142,0.082c-0.091,0.004-0.182,0.002-0.272,0.002c-2.951,0-5.903,0-8.854,0
		c-0.13,0-0.265,0.023-0.424-0.043c0.084-0.092,0.147-0.168,0.216-0.238c0.345-0.348,0.649-0.729,0.9-1.148
		c0.396-0.662,0.626-1.383,0.75-2.139c0.092-0.561,0.143-1.125,0.148-1.693c0.004-0.432,0.013-0.863,0.013-1.295
		c0-7.752,0.001-15.505-0.001-23.258c0-0.556-0.004-1.112-0.025-1.668C4.1,6.554,4.021,5.925,3.87,5.305
		C3.622,4.287,3.124,3.412,2.383,2.672C2.299,2.588,2.192,2.519,2.131,2.391C2.179,2.376,2.208,2.36,2.237,2.359
		c0.113-0.003,0.227-0.003,0.341-0.003c3.984,0,7.968,0,11.952,0c0.817,0,1.634,0.003,2.449,0.078C18.857,2.605,20.678,3,22.396,3.8
		c0.91,0.424,1.757,0.949,2.514,1.61c1.677,1.462,2.682,3.29,2.983,5.498c0.194,1.426,0.1,2.833-0.315,4.21
		c-0.59,1.959-1.739,3.525-3.393,4.724c-1.163,0.843-2.458,1.405-3.842,1.767c-0.836,0.219-1.686,0.354-2.546,0.43
		c-0.794,0.071-1.587,0.079-2.381,0.044C14.417,22.039,13.427,21.914,12.437,21.666z"/>
	<path fill-rule="evenodd" clip-rule="evenodd" fill="#263B7D" d="M112.884,20.955c-0.139-0.008-0.238-0.019-0.339-0.018
		c-1.555,0.001-3.108,0.001-4.664,0.008c-0.704,0.003-1.407,0.04-2.104,0.13c-0.497,0.063-0.983,0.172-1.438,0.394
		c-0.06,0.029-0.124,0.05-0.199,0.081c-0.022-0.078-0.05-0.14-0.058-0.205c-0.168-1.429-0.332-2.859-0.496-4.283
		c0.13-0.088,0.259-0.054,0.38-0.054c0.977-0.003,1.952-0.001,2.929-0.001c1.713,0,3.427,0,5.141,0c0.124,0,0.248,0,0.387,0
		c0.016-0.07,0.041-0.123,0.036-0.174c-0.041-0.554-0.085-1.108-0.13-1.662c-0.028-0.351-0.061-0.701-0.089-1.052
		c-0.089-1.085-0.178-2.171-0.267-3.257c-0.055-0.69-0.104-1.38-0.161-2.07c-0.065-0.803-0.135-1.605-0.203-2.408
		c-0.002-0.021-0.014-0.042-0.028-0.085c-0.05-0.014-0.111-0.037-0.175-0.045c-0.067-0.009-0.137-0.003-0.204-0.003
		c-2.146-0.002-4.29-0.008-6.436-0.003c-0.839,0.003-1.68,0.025-2.519,0.054c-0.521,0.018-1.04,0.078-1.552,0.189
		c-0.356,0.078-0.692,0.212-1.02,0.364c-0.095-0.065-0.089-0.162-0.1-0.246c-0.073-0.608-0.142-1.217-0.212-1.825
		c-0.085-0.732-0.171-1.465-0.255-2.197c-0.006-0.055-0.001-0.111-0.001-0.185c0.066-0.012,0.13-0.03,0.193-0.033
		c0.102-0.006,0.205-0.002,0.307-0.002c6.288,0,12.576,0,18.864,0c0.133,0,0.267,0.005,0.404,0.008c0,0.125-0.088,0.171-0.146,0.233
		c-0.621,0.659-1.042,1.424-1.243,2.309c-0.092,0.399-0.143,0.805-0.163,1.212c-0.038,0.807,0.019,1.61,0.091,2.414
		c0.055,0.622,0.113,1.243,0.17,1.864c0.062,0.667,0.124,1.333,0.185,2c0.054,0.599,0.104,1.198,0.159,1.797
		c0.059,0.644,0.12,1.288,0.179,1.932c0.054,0.599,0.106,1.198,0.161,1.797c0.059,0.655,0.12,1.31,0.181,1.965
		c0.053,0.587,0.104,1.175,0.158,1.763c0.061,0.667,0.123,1.333,0.183,2c0.053,0.576,0.104,1.153,0.156,1.729
		c0.062,0.678,0.125,1.355,0.186,2.034c0.055,0.598,0.105,1.198,0.159,1.797c0.059,0.644,0.12,1.288,0.179,1.931
		c0.054,0.588,0.103,1.176,0.163,1.764c0.086,0.857,0.21,1.709,0.457,2.539c0.341,1.15,0.956,2.125,1.835,2.938
		c0.082,0.074,0.162,0.154,0.267,0.252c-0.061,0.025-0.096,0.049-0.134,0.053c-0.078,0.006-0.158,0.002-0.238,0.002
		c-2.995,0-5.992,0-8.988-0.002c-0.12,0-0.247,0.033-0.376-0.051c0.064-0.078,0.118-0.148,0.179-0.215
		c0.867-0.941,1.292-2.062,1.375-3.328c0.052-0.797,0.015-1.588-0.056-2.379c-0.079-0.895-0.153-1.787-0.234-2.68
		c-0.079-0.87-0.163-1.739-0.243-2.609c-0.057-0.61-0.105-1.221-0.161-1.831c-0.056-0.621-0.116-1.243-0.173-1.864
		c-0.056-0.61-0.108-1.221-0.164-1.83C112.947,21.6,112.917,21.296,112.884,20.955z"/>
	<path fill-rule="evenodd" clip-rule="evenodd" fill="#263B7D" d="M57.749,21.009c0.255-0.047,3.01-0.064,5.834-0.041
		c0.1,0.001,0.199,0.012,0.319,0.02c0.026,0.309,0.049,0.601,0.076,0.892c0.279,3.081,1.219,5.925,3.072,8.428
		c1.514,2.046,3.444,3.566,5.826,4.494c1.17,0.455,2.383,0.729,3.638,0.818c2.739,0.195,5.335-0.307,7.754-1.619
		c2.547-1.381,4.412-3.422,5.672-6.021c0.648-1.336,1.071-2.744,1.317-4.208c0.138-0.818,0.2-1.644,0.241-2.472
		c0.004-0.079,0.01-0.159,0.02-0.237c0.002-0.02,0.019-0.039,0.041-0.077c0.053-0.006,0.119-0.018,0.184-0.019
		c1.5-0.039,5.562-0.018,5.886,0.03c0.077,0.075,0.05,0.169,0.046,0.257c-0.133,2.623-0.807,5.103-2.012,7.433
		c-1.773,3.43-4.302,6.165-7.622,8.147c-1.878,1.123-3.905,1.861-6.047,2.297c-1.892,0.385-3.804,0.488-5.725,0.383
		c-2.627-0.143-5.169-0.691-7.585-1.756c-5.18-2.279-8.524-6.186-10.19-11.564c-0.34-1.098-0.549-2.225-0.668-3.366
		c-0.054-0.519-0.067-1.042-0.095-1.563C57.724,21.178,57.741,21.09,57.749,21.009z"/>
	<path fill-rule="evenodd" clip-rule="evenodd" fill="#787973" d="M125.768,38.604c0.104-0.107,0.174-0.18,0.245-0.252
		c0.832-0.855,1.342-1.873,1.556-3.043c0.126-0.695,0.188-1.395,0.198-2.1c0.006-0.352,0.004-0.703,0.004-1.055
		c0-7.776,0-15.551,0-23.327c0-0.442,0.009-0.886-0.012-1.328c-0.034-0.782-0.104-1.56-0.307-2.321
		c-0.256-0.955-0.732-1.778-1.423-2.481c-0.072-0.072-0.143-0.146-0.212-0.222c-0.007-0.007-0.008-0.021-0.012-0.032
		c0.021-0.075,0.084-0.057,0.137-0.06c0.078-0.002,0.158,0,0.237,0c2.929,0,5.857,0,8.786,0c0.122,0,0.242,0.007,0.394,0.011
		c-0.067,0.147-0.174,0.216-0.257,0.301c-0.563,0.576-1,1.233-1.272,1.994c-0.211,0.59-0.319,1.201-0.392,1.824
		c-0.081,0.702-0.069,1.405-0.069,2.108c-0.002,7.98-0.001,15.959,0,23.939c0,0.375-0.002,0.75,0.011,1.125
		c0.025,0.703,0.107,1.4,0.282,2.086c0.248,0.979,0.733,1.826,1.427,2.557c0.075,0.08,0.177,0.141,0.203,0.254
		c-0.012,0.02-0.015,0.031-0.022,0.037c-0.008,0.008-0.021,0.014-0.031,0.014c-3.109,0.004-6.22,0.006-9.33,0.008
		C125.877,38.642,125.847,38.626,125.768,38.604z"/>
	<path fill-rule="evenodd" clip-rule="evenodd" fill="#263B7D" d="M39.988,21.003c0.349-0.049,5.181-0.065,6.172-0.027
		c0.117,0.055,0.173,0.171,0.247,0.27c1.558,2.078,3.117,4.159,4.674,6.238c1.375,1.834,2.759,3.662,4.119,5.507
		c1.094,1.486,2.32,2.85,3.648,4.127c0.376,0.361,0.761,0.713,1.142,1.07c0.063,0.061,0.121,0.125,0.183,0.189
		c-0.033,0.025-0.049,0.049-0.065,0.049c-0.963,0.051-1.925,0.129-2.889,0.146c-2.276,0.041-4.231-0.779-5.917-2.281
		c-0.528-0.471-0.983-1.006-1.397-1.578c-2.395-3.309-4.79-6.617-7.186-9.926c-0.832-1.149-1.664-2.298-2.495-3.447
		C40.15,21.241,40.082,21.139,39.988,21.003z"/>
	<path fill-rule="evenodd" clip-rule="evenodd" fill="#263B7D" d="M39.541,38.657c-0.098,0.018-0.141,0.033-0.183,0.033
		c-3.166,0-6.332-0.004-9.498-0.008c-0.017,0-0.033-0.025-0.065-0.051c0.061-0.064,0.117-0.133,0.18-0.195
		c0.931-0.914,1.474-2.023,1.683-3.309c0.133-0.82,0.168-1.648,0.172-2.475c0.01-1.884,0.004-3.768,0.004-5.651
		c0-1.861,0-3.722,0-5.583c0-0.134,0.005-0.269,0.008-0.418c0.098-0.013,0.173-0.032,0.249-0.032
		c1.703-0.001,3.405-0.001,5.106-0.001c0.078,0,0.155,0.011,0.253,0.018c0.01,0.075,0.024,0.138,0.027,0.203
		c0.004,0.102,0.001,0.205,0.001,0.306c0,3.598,0,7.195,0,10.792c0,0.693,0.002,1.385,0.07,2.074c0.054,0.555,0.14,1.102,0.3,1.639
		c0.268,0.896,0.738,1.676,1.393,2.346C39.33,38.433,39.414,38.524,39.541,38.657z"/>
	<path fill-rule="evenodd" clip-rule="evenodd" fill="#263B7D" d="M97.364,16.941c-0.362,0.042-5.907,0.041-6.218,0.003
		c-0.062-0.101-0.078-0.224-0.105-0.344c-0.425-1.863-1.127-3.612-2.178-5.213c-1.395-2.125-3.217-3.768-5.526-4.855
		c-0.061-0.029-0.12-0.062-0.175-0.091c0-0.08,0.055-0.068,0.094-0.068c0.25-0.001,0.5,0,0.749,0.001
		c2.438,0.019,4.877,0.037,7.317,0.055c0.057,0,0.114,0.004,0.17,0.001c0.121-0.006,0.219,0.034,0.305,0.12
		c0.146,0.144,0.299,0.278,0.444,0.421c2.165,2.126,3.674,4.649,4.57,7.544c0.215,0.694,0.384,1.399,0.521,2.112
		C97.35,16.725,97.353,16.826,97.364,16.941z"/>
	<path fill-rule="evenodd" clip-rule="evenodd" fill="#263B7D" d="M72.43,6.316c-0.084,0.119-0.193,0.13-0.28,0.168
		c-1.321,0.577-2.52,1.345-3.588,2.315c-1.706,1.551-2.914,3.433-3.697,5.595c-0.263,0.726-0.468,1.469-0.619,2.227
		c-0.015,0.078-0.034,0.155-0.055,0.231c-0.009,0.032-0.028,0.061-0.045,0.098c-0.043,0.007-0.086,0.02-0.13,0.02
		c-1.918,0-3.836,0-5.754-0.002c-0.033,0-0.064-0.018-0.096-0.026c-0.055-0.117-0.007-0.225,0.018-0.334
		c0.522-2.318,1.458-4.457,2.788-6.424c0.901-1.331,1.944-2.541,3.135-3.62c0.059-0.054,0.122-0.103,0.177-0.16
		c0.109-0.115,0.24-0.15,0.398-0.149c0.772,0.008,1.543,0.007,2.315,0.012c1.691,0.012,3.382,0.025,5.073,0.038
		C72.18,6.306,72.289,6.312,72.43,6.316z"/>
	<path fill-rule="evenodd" clip-rule="evenodd" fill="#263B7D" d="M44.225,6.175c0.079,0,0.157,0,0.236,0
		c2.486,0.007,4.972,0.014,7.458,0.022c0.417,0.001,0.357-0.05,0.645,0.324c0.892,1.158,1.441,2.461,1.622,3.914
		c0.168,1.35,0.063,2.672-0.42,3.954c-0.328,0.869-0.812,1.646-1.405,2.357c-0.136,0.162-0.277,0.232-0.493,0.231
		c-1.351-0.009-2.702-0.005-4.053-0.005c-0.477,0-0.953,0-1.43,0c-0.053,0-0.106-0.008-0.207-0.017
		c0.094-0.098,0.15-0.163,0.213-0.22c0.364-0.328,0.696-0.685,0.979-1.085c0.603-0.853,0.935-1.803,1.046-2.841
		c0.096-0.905,0.029-1.793-0.242-2.66c-0.482-1.551-1.467-2.693-2.896-3.453c-0.339-0.18-0.699-0.321-1.049-0.48
		C44.228,6.202,44.227,6.189,44.225,6.175z"/>
	<path fill-rule="evenodd" clip-rule="evenodd" fill="#263B7D" d="M37.911,6.205c-0.128,0.034-0.257,0.068-0.4,0.107
		c-0.01,0.078-0.025,0.153-0.028,0.23c-0.005,0.102-0.002,0.204-0.002,0.306c0,3.221,0,6.442,0,9.664c0,0.135,0,0.271,0,0.391
		c-0.132,0.104-0.261,0.069-0.382,0.069c-1.293,0.002-2.586,0.001-3.879,0.001c-0.34,0-0.681,0.001-1.021,0
		c-0.101-0.001-0.202-0.008-0.322-0.014c-0.015-0.071-0.035-0.133-0.039-0.197c-0.006-0.113-0.003-0.227-0.003-0.34
		c0-2.552,0.004-5.104-0.002-7.655c-0.001-0.646-0.035-1.292-0.057-1.938c-0.004-0.125-0.03-0.248-0.039-0.372
		c-0.006-0.099-0.001-0.198-0.001-0.306c0.055-0.01,0.098-0.025,0.142-0.025c2.007,0.007,4.014,0.017,6.02,0.026
		C37.903,6.169,37.907,6.187,37.911,6.205z"/>
	<path fill-rule="evenodd" clip-rule="evenodd" fill="#263B7D" d="M83.742,2.325c-3.943,0-7.888,0-11.837,0
		c0.353-0.21,2.207-0.581,3.408-0.705C78.509,1.289,81.852,1.715,83.742,2.325z"/>
	<path fill-rule="evenodd" clip-rule="evenodd" fill="#263B7D" d="M177.04,56.384c0.062,0.164,0.045,0.295,0.016,0.441
		c-0.219,0.068-0.435,0.033-0.646,0.039c-0.204,0.006-0.408,0.006-0.612,0c-0.213-0.006-0.429,0.031-0.642-0.035
		c-0.06-0.139-0.046-0.27-0.018-0.424c0.063-0.012,0.125-0.037,0.188-0.037c0.511-0.004,1.021-0.002,1.531-0.002
		C176.913,56.368,176.968,56.376,177.04,56.384z"/>
	<path fill-rule="evenodd" clip-rule="evenodd" fill="#263B7D" d="M34.381,56.396c0.034,0.154,0.034,0.285,0.004,0.414
		c-0.044,0.02-0.075,0.045-0.105,0.045c-0.544,0.004-1.089,0.006-1.634,0.006c-0.054,0-0.108-0.016-0.17-0.027
		c-0.046-0.145-0.043-0.275-0.009-0.426c0.048-0.012,0.1-0.037,0.153-0.037c0.544-0.004,1.089-0.002,1.634,0
		C34.288,56.37,34.321,56.382,34.381,56.396z"/>
</g>
</svg>
