<?xml version="1.0" encoding="utf-8"?>
<!-- Generator: Adobe Illustrator 15.0.0, SVG Export Plug-In . SVG Version: 6.00 Build 0)  -->
<!DOCTYPE svg PUBLIC "-//W3C//DTD SVG 1.1//EN" "http://www.w3.org/Graphics/SVG/1.1/DTD/svg11.dtd">
<svg version="1.1" id="Layer_1" xmlns="http://www.w3.org/2000/svg" xmlns:xlink="http://www.w3.org/1999/xlink" x="0px" y="0px"
	 width="171.5px" height="92px" viewBox="0 0 171.5 92" enable-background="new 0 0 171.5 92" xml:space="preserve">
<g>
	<polygon fill="#231F20" points="170.079,46.135 133.443,60.414 132.154,78.438 110.769,66.191 105.451,77.133 89.037,68.094 
		77.283,90.896 67.6,71.371 46.134,82.297 46.998,70.096 24.342,78.326 34.219,62.08 0,52.916 34.345,43.877 23.257,26.349 
		49.666,25.846 39.955,6.493 71.925,19.978 81.309,6.322 94.816,19.217 120.392,0 120.668,14.479 150.305,2.919 132.896,26.632 
		163.251,23.343 143.982,36.457 	"/>
	<polygon fill="#EF7B10" points="164.395,46.293 129.274,60.98 129.884,75.021 109.141,59.377 104.156,74.07 87.756,61.811 
		77.109,86.557 68.383,64.479 47.655,79.178 51.115,64.104 27.524,75.029 44.704,57.084 5.715,52.955 43.535,41.922 26.323,28.201 
		52.874,27.649 43.573,10.348 72.681,24.988 81.088,8.985 93.863,23.855 118.281,2.918 118.177,20.669 145.73,5.911 128.097,29.21 
		157.119,25.33 133.161,38.531 	"/>
	<g>
		<path fill="#FFFFFF" d="M61.941,35.838c-0.389-2.766-1.925-3.959-4.607-3.584l-4.501,0.633c-2.696,0.379-3.851,1.951-3.462,4.717
			l1.181,8.4c0.378,2.684,1.921,3.84,4.633,3.473L59.44,48.9l1.327,9.443l-4.213,0.57l-1.003-7.277l-4.146,0.604l1.039,7.23
			c0.397,2.834,1.944,4.062,4.641,3.684l4.377-0.615c2.794-0.393,3.993-1.992,3.599-4.799l-1.321-9.402
			c-0.385-2.736-2.009-3.904-4.871-3.502l-4.148,0.582l-1.178-8.379l4.315-0.607l0.876,6.232l4.106-0.576L61.941,35.838z"/>
		<path fill="#231F20" d="M74.878,46.693c2.793-0.395,3.992-2,3.595-4.822l-1.172-8.338c-0.388-2.764-1.944-3.956-4.668-3.573
			l-8.297,1.165l3.35,23.68l4.272-0.602L71,47.238L74.878,46.693z M73.069,34.129l1.172,8.338l-3.999,0.584l-1.175-8.359
			L73.069,34.129z"/>
		<path fill="#FFFFFF" d="M96.338,57.639l-3.691-26.117c-0.389-2.764-1.945-3.956-4.669-3.573l-4.565,0.641
			c-2.695,0.38-3.849,1.952-3.461,4.717l3.65,26.121l4.189-0.588l-1.939-13.65l4.398-0.619l1.919,13.654L96.338,57.639z
			 M88.418,32.137l1.157,8.234l-4.339,0.59l-1.157-8.234L88.418,32.137z"/>
		<path fill="#FFFFFF" d="M111.889,55.453l-0.637-4.375l-1.303-9.277c-0.158-1.125-0.819-1.74-1.981-1.846
			c1.084-0.451,1.552-1.211,1.4-2.281l-1.171-8.338c-0.389-2.764-1.945-3.955-4.669-3.573l-8.463,1.189l4.251,30.246l4.255-0.576
			l-1.854-13.492l4.104-0.598l1.898,13.508L111.889,55.453z M103.965,29.931l1.172,8.338l-4.165,0.605l-1.175-8.357L103.965,29.931z
			"/>
	</g>
	<polygon fill="#FFFFFF" points="128.565,53.109 119.69,37.605 124.208,22.856 120.018,23.445 116.496,35.143 114.952,24.158 
		110.721,24.751 114.995,55.016 119.143,54.434 117.318,41.297 124.417,53.691 	"/>
	<g>
		<path fill="#231F20" d="M67.276,59.287c-0.216-1.537,0.855-2.959,2.393-3.176c1.538-0.215,2.959,0.855,3.176,2.395
			c0.217,1.537-0.854,2.959-2.393,3.174C68.915,61.896,67.493,60.824,67.276,59.287"/>
	</g>
</g>
</svg>
