<?xml version="1.0" encoding="utf-8"?>
<!-- Generator: Adobe Illustrator 15.0.0, SVG Export Plug-In . SVG Version: 6.00 Build 0)  -->
<!DOCTYPE svg PUBLIC "-//W3C//DTD SVG 1.1//EN" "http://www.w3.org/Graphics/SVG/1.1/DTD/svg11.dtd">
<svg version="1.1" id="Layer_1" xmlns="http://www.w3.org/2000/svg" xmlns:xlink="http://www.w3.org/1999/xlink" x="0px" y="0px"
	 width="246px" height="41px" viewBox="0 0 246 41" enable-background="new 0 0 246 41" xml:space="preserve">
<g>
	<path d="M0,0v41h245.996V0H0z M1.438,1.434h204.094v38.13H1.438V1.434z"/>
	<rect x="1.438" y="1.348" fill="#FFFFFF" width="204.093" height="38.3"/>
	<g>
		<path fill="#FFFFFF" d="M231.309,15.974c-2.439-3.626-4.564-8.32-5.974-11.243c-1.407,2.923-3.532,7.616-5.972,11.243
			c-1.82,2.699-3.898,5.353-3.631,9.504c0.189,2.936,2.476,9.379,9.603,9.379c7.129,0,9.412-6.444,9.603-9.379
			C235.198,21.327,233.119,18.672,231.309,15.974z M219.016,26.525c-0.951-5.1,6.08-14.478,6.08-14.478s-4.199,7.964-3.039,12.739
			c0.797,3.285,3.039,4.923,2.604,5.938C224.227,31.736,220.174,32.751,219.016,26.525z"/>
	</g>
	<g>
		<g>
			<path d="M24.509,23.9c0,1.1-0.278,2.07-0.832,2.925c-0.559,0.849-1.361,1.514-2.414,1.983c-1.047,0.475-2.281,0.713-3.691,0.713
				c-1.178,0-2.17-0.088-2.971-0.252c-0.794-0.164-1.629-0.457-2.491-0.865v-4.264c0.909,0.467,1.861,0.834,2.845,1.096
				c0.984,0.264,1.888,0.393,2.71,0.393c0.714,0,1.234-0.123,1.567-0.368c0.329-0.243,0.494-0.562,0.494-0.952
				c0-0.242-0.066-0.451-0.201-0.633c-0.129-0.182-0.345-0.369-0.641-0.552c-0.292-0.187-1.081-0.565-2.353-1.14
				c-1.156-0.524-2.021-1.031-2.601-1.525c-0.577-0.494-1.002-1.059-1.282-1.697c-0.279-0.639-0.418-1.391-0.418-2.265
				c0-1.629,0.594-2.903,1.78-3.812c1.185-0.915,2.813-1.372,4.892-1.372c1.833,0,3.703,0.424,5.606,1.273l-1.463,3.692
				c-1.657-0.759-3.085-1.139-4.288-1.139c-0.621,0-1.075,0.112-1.357,0.33c-0.282,0.22-0.423,0.487-0.423,0.81
				c0,0.351,0.18,0.659,0.539,0.936c0.36,0.276,1.335,0.776,2.924,1.501c1.524,0.685,2.585,1.422,3.18,2.208
				C24.216,21.716,24.509,22.705,24.509,23.9z"/>
			<path d="M38.78,29.275h-4.784V15.481h-4.324v-3.91H43.09v3.91h-4.31V29.275z"/>
			<path d="M59.857,29.275H49.345V11.571h10.512v3.841h-5.728v2.784h5.305v3.84h-5.305v3.343h5.728V29.275z"/>
			<path d="M71.463,22.836v6.439h-4.785V11.571h5.799c4.814,0,7.218,1.743,7.218,5.23c0,2.053-1,3.639-3.001,4.762l5.16,7.713
				h-5.425l-3.756-6.439H71.463z M71.463,19.238h0.892c1.674,0,2.505-0.74,2.505-2.218c0-1.22-0.814-1.827-2.454-1.827h-0.943
				V19.238L71.463,19.238z"/>
			<path d="M87.184,29.275V11.571h4.807v17.705H87.184L87.184,29.275z"/>
			<path d="M114.667,29.275h-5.402l-3.501-6.77l-1.417,0.852v5.918H99.54V11.571h4.807v7.69c0.242-0.477,0.733-1.229,1.469-2.265
				l3.713-5.425h5.237l-5.584,7.931L114.667,29.275z"/>
			<path d="M120.3,29.275V11.571h4.784v13.841h6.818v3.863H120.3z"/>
			<path d="M148.973,29.275h-10.516V11.571h10.516v3.841h-5.729v2.784h5.303v3.84h-5.303v3.343h5.729V29.275z"/>
			<path d="M166.307,29.275h-10.515V11.571h10.515v3.841h-5.734v2.784h5.31v3.84h-5.31v3.343h5.734V29.275z"/>
			<path d="M189.982,29.275h-6.275L177.244,16.8h-0.111c0.154,1.963,0.231,3.46,0.231,4.497v7.979h-4.239V11.571h6.249l6.442,12.307
				h0.076c-0.117-1.784-0.177-3.219-0.177-4.301v-8.006h4.267V29.275z"/>
		</g>
	</g>
</g>
</svg>
