<?xml version="1.0" encoding="utf-8"?>
<!-- Generator: Adobe Illustrator 15.0.0, SVG Export Plug-In . SVG Version: 6.00 Build 0)  -->
<!DOCTYPE svg PUBLIC "-//W3C//DTD SVG 1.1//EN" "http://www.w3.org/Graphics/SVG/1.1/DTD/svg11.dtd">
<svg version="1.1" id="Layer_1" xmlns="http://www.w3.org/2000/svg" xmlns:xlink="http://www.w3.org/1999/xlink" x="0px" y="0px"
	 width="159.5px" height="55.5px" viewBox="0 0 159.5 55.5" enable-background="new 0 0 159.5 55.5" xml:space="preserve">
<g>
	<path fill="#0094AA" d="M25.446,12.327C24.892,5.482,19.939,0,12.733,0C5.719,0,0.031,5.684,0.031,12.695
		c0,6.309,4.196,10.852,9.886,12.325L9.575,26.7l5.423-1.815l-4.283-3.79l-0.189,0.932c-4.294-1.333-7.615-4.763-7.615-9.608
		c0-5.524,4.725-10.055,10.622-10.055c5.873,0,10.232,4.199,10.631,9.964H25.446z"/>
	<path fill="#575756" d="M15.529,12.173l0.343-1.678l-5.427,1.814l4.285,3.791l0.19-0.931c4.297,1.331,7.615,4.762,7.615,9.608
		c0,5.522-4.725,10.052-10.619,10.052c-5.878,0-10.232-4.197-10.635-9.962H0c0.559,6.846,5.507,12.328,12.713,12.328
		c7.017,0,12.705-5.686,12.705-12.698C25.418,18.189,21.218,13.648,15.529,12.173"/>
	<path fill="#0094AA" d="M156.017,25.962c0-2.801-0.961-5.198-2.879-7.171c-1.919-1.976-4.264-2.968-7.017-2.968
		c-1.557,0-3.021,0.364-4.385,1.087c-1.071,0.546-1.999,1.256-2.78,2.129v-1.91c0-0.369-0.15-0.687-0.429-0.932
		c-0.251-0.246-0.562-0.374-0.915-0.374c-0.355,0-0.671,0.131-0.924,0.383c-0.254,0.251-0.381,0.567-0.381,0.923v26.094
		c0,0.355,0.13,0.672,0.381,0.924c0.253,0.25,0.568,0.379,0.924,0.379c0.349,0,0.657-0.123,0.907-0.363
		c0.281-0.248,0.437-0.569,0.437-0.939V32.884c1.817,2.046,4.416,3.254,7.165,3.254c2.756,0,5.101-1.006,7.02-3.007
		C155.056,31.133,156.017,28.737,156.017,25.962 M153.369,25.962c0,4.072-3.096,7.51-7.243,7.568
		c-4.106-0.057-7.17-3.557-7.17-7.568V25.65c0.079-2.013,0.811-3.707,2.199-5.095c1.418-1.392,3.093-2.083,5.045-2.083
		c1.949,0,3.625,0.726,5.045,2.199C152.66,22.109,153.369,23.869,153.369,25.962 M127.406,34.955V17.129
		c0-0.355-0.13-0.672-0.382-0.923c-0.251-0.252-0.566-0.383-0.923-0.383s-0.671,0.131-0.924,0.383
		c-0.25,0.251-0.38,0.567-0.38,0.923v1.949c-0.78-0.875-1.705-1.597-2.771-2.166c-1.34-0.725-2.78-1.089-4.312-1.089
		c-2.68,0-4.971,1.009-6.86,3.012c-1.89,1.998-2.832,4.406-2.832,7.207c0,5.422,4.098,10.217,9.692,10.217
		c1.532,0,2.973-0.362,4.312-1.089c1.069-0.566,1.991-1.298,2.771-2.191v1.977c0,0.727,0.577,1.304,1.304,1.304
		C126.826,36.259,127.406,35.682,127.406,34.955 M124.798,26.042c0,2.124-0.696,3.921-2.088,5.417
		c-1.391,1.468-3.049,2.191-4.996,2.191c-1.918,0-3.58-0.723-4.998-2.19c-1.394-1.495-2.086-3.294-2.086-5.418
		c0-2.122,0.692-3.92,2.084-5.416c1.42-1.499,3.082-2.233,5-2.233C121.881,18.393,124.798,22.058,124.798,26.042 M100.972,34.955
		V24.228c0-2.295-0.827-4.262-2.473-5.883c-1.629-1.656-3.682-2.48-6.129-2.48c-2.162,0-4.016,0.782-5.554,2.33v-1.027
		c0-0.352-0.128-0.661-0.371-0.912c-0.229-0.264-0.539-0.391-0.892-0.391c-0.729,0-1.305,0.578-1.305,1.303
		c0,0,0,18.029,0.049,18.204c0.011,0.069,0.035,0.146,0.083,0.213c0.195,0.363,0.493,0.567,0.886,0.675h0.287
		c0.717,0,1.1-0.451,1.263-1.101V24.237c0.102-3.175,2.571-5.765,5.794-5.765c1.603,0,2.956,0.57,4.075,1.716
		c1.122,1.119,1.681,2.459,1.681,4.039v10.728c0,0.727,0.577,1.304,1.302,1.304C100.396,36.259,100.972,35.682,100.972,34.955
		 M76.878,25.517v-0.174c-0.222-2.686-1.262-4.951-3.127-6.76c-1.864-1.84-4.154-2.76-6.848-2.76c-2.676,0-4.994,1.011-6.937,3.009
		c-1.917,1.999-2.877,4.423-2.877,7.25c0,2.801,0.96,5.213,2.879,7.21c1.945,1.974,4.303,2.967,7.054,2.967
		c1.7,0,3.274-0.418,4.727-1.254c1.471-0.834,2.656-1.963,3.548-3.382c0.419-0.702,0.245-1.362-0.429-1.83
		c-0.693-0.416-1.341-0.268-1.76,0.431c-0.643,1.054-1.502,1.885-2.58,2.503c-1.079,0.616-2.246,0.924-3.506,0.924
		c-3.927,0-6.963-3.077-7.302-6.911h15.855C76.283,26.739,76.878,26.256,76.878,25.517 M74.035,24.174H59.904
		c0.401-1.63,1.222-2.96,2.459-4.006c1.339-1.159,2.874-1.735,4.622-1.735c1.773,0,3.32,0.576,4.658,1.732
		C72.883,21.236,73.678,22.569,74.035,24.174 M48.67,34.351V17.088c0-0.735-0.487-1.107-1.144-1.265h-0.281
		c-0.069,0-0.138,0.021-0.19,0.041h-0.06c-0.16,0.049-0.722,0.259-0.672,0.5c-0.232,0.235-0.263,0.402-0.263,0.724v10.724
		c-0.051,3.215-2.559,5.758-5.794,5.758c-1.576,0-2.914-0.556-4.035-1.675c-1.12-1.12-1.676-2.473-1.676-4.079V17.088
		c0-0.352-0.128-0.662-0.391-0.891c-0.25-0.246-0.561-0.374-0.914-0.374s-0.662,0.128-0.912,0.374
		c-0.266,0.229-0.393,0.539-0.393,0.891v10.728c0,2.295,0.816,4.275,2.436,5.925c1.627,1.626,3.65,2.45,6.047,2.479
		c2.146,0,4.03-0.784,5.632-2.322v0.448c-0.051,3.932-3.199,7.008-7.122,7.008c-1.104,0-2.118-0.252-3.107-0.747
		c-0.713-0.191-1.334-0.03-1.709,0.646c-0.347,0.733-0.056,1.33,0.58,1.742c1.348,0.607,2.751,0.969,4.236,0.969
		C44.321,43.963,48.67,39.777,48.67,34.351"/>
	<path fill="#575756" d="M63.997,44.535v2.899h1.731c0.401,0,0.746-0.14,1.024-0.423c0.285-0.282,0.429-0.619,0.439-1.011
		c-0.011-0.414-0.154-0.763-0.439-1.043c-0.278-0.28-0.623-0.423-1.024-0.423H63.997z M67.868,43.861
		c0.59,0.591,0.884,1.3,0.884,2.131c0,0.828-0.294,1.538-0.884,2.124c-0.592,0.585-1.307,0.879-2.14,0.879h-1.731v3.053
		c0,0.215-0.076,0.398-0.23,0.548c-0.156,0.151-0.341,0.228-0.556,0.228c-0.214,0-0.399-0.076-0.548-0.228
		c-0.15-0.149-0.224-0.333-0.224-0.548v-8.3c0-0.216,0.073-0.397,0.224-0.549c0.148-0.149,0.334-0.224,0.548-0.224h2.518
		C66.562,42.976,67.276,43.27,67.868,43.861"/>
	<path fill="#575756" d="M73.731,47.435c0.404,0,0.747-0.14,1.026-0.423c0.284-0.282,0.423-0.62,0.423-1.02
		c0-0.397-0.139-0.741-0.423-1.025c-0.279-0.287-0.622-0.432-1.026-0.432h-1.73v2.899H73.731z M75.646,48.307
		c0.638,0.487,0.955,1.167,0.955,2.041c-0.009,0.308,0.01,0.583,0.056,0.828c0.246,0.074,0.409,0.236,0.493,0.486
		c0.085,0.249,0.049,0.48-0.109,0.696c-0.162,0.215-0.391,0.321-0.691,0.321h-0.015c-0.421,0-0.753-0.215-0.999-0.646
		c-0.194-0.412-0.293-0.976-0.293-1.687c-0.02-0.433-0.217-0.77-0.592-1.014c-0.247-0.161-0.506-0.271-0.788-0.339h-1.661v3.053
		c0,0.215-0.077,0.398-0.231,0.548c-0.152,0.151-0.339,0.226-0.556,0.226s-0.399-0.074-0.548-0.226
		c-0.149-0.149-0.225-0.333-0.225-0.548v-8.3c0-0.216,0.075-0.397,0.225-0.549c0.148-0.147,0.331-0.224,0.548-0.224h2.518
		c0.836,0,1.546,0.294,2.134,0.886c0.585,0.591,0.878,1.326,0.878,2.209C76.743,46.95,76.377,47.699,75.646,48.307"/>
	<path fill="#575756" d="M80.597,47.759c0,0.947,0.316,1.759,0.943,2.439c0.626,0.68,1.384,1.02,2.27,1.02
		c0.887,0,1.643-0.343,2.266-1.036c0.624-0.685,0.937-1.495,0.937-2.423c0-0.93-0.31-1.739-0.929-2.427
		c-0.62-0.689-1.378-1.033-2.273-1.033c-0.895,0-1.653,0.338-2.276,1.02C80.908,45.999,80.597,46.809,80.597,47.759 M80.393,51.331
		c-0.932-0.994-1.398-2.186-1.398-3.572c0-1.389,0.467-2.579,1.398-3.574c0.933-0.994,2.069-1.491,3.413-1.491
		c1.34,0,2.477,0.504,3.407,1.513c0.936,1.008,1.401,2.196,1.401,3.566c0,1.368-0.474,2.55-1.42,3.545
		c-0.422,0.47-0.929,0.836-1.521,1.104c-0.59,0.268-1.204,0.4-1.842,0.4C82.475,52.821,81.325,52.324,80.393,51.331"/>
	<path fill="#575756" d="M92.948,44.535v2.899h1.73c0.401,0,0.746-0.14,1.027-0.423c0.279-0.282,0.426-0.619,0.436-1.011
		c-0.01-0.414-0.156-0.763-0.436-1.043c-0.281-0.28-0.626-0.423-1.027-0.423H92.948z M96.815,43.861
		c0.592,0.591,0.887,1.3,0.887,2.131c0,0.828-0.295,1.538-0.887,2.124c-0.589,0.585-1.305,0.879-2.137,0.879h-1.73v3.053
		c0,0.215-0.078,0.398-0.232,0.548c-0.156,0.151-0.342,0.228-0.556,0.228c-0.215,0-0.399-0.076-0.548-0.228
		c-0.152-0.149-0.225-0.333-0.225-0.548v-8.3c0-0.216,0.072-0.397,0.225-0.549c0.148-0.149,0.333-0.224,0.548-0.224h2.519
		C95.511,42.976,96.227,43.27,96.815,43.861"/>
	<path fill="#575756" d="M100.361,52.823c-0.214,0-0.399-0.076-0.55-0.228c-0.15-0.15-0.223-0.332-0.223-0.548v-8.3
		c0-0.215,0.072-0.397,0.223-0.549c0.15-0.149,0.336-0.224,0.55-0.224h4.599c0.205,0,0.386,0.074,0.542,0.224
		c0.154,0.151,0.234,0.334,0.234,0.549c0,0.217-0.08,0.402-0.234,0.557c-0.156,0.153-0.337,0.232-0.542,0.232h-3.812v2.572h3.277
		c0.206,0,0.389,0.079,0.542,0.233c0.154,0.155,0.231,0.339,0.231,0.551c0,0.209-0.074,0.392-0.224,0.547
		c-0.151,0.154-0.334,0.232-0.55,0.232h-3.277v2.587h3.812c0.205,0,0.386,0.078,0.542,0.231c0.154,0.157,0.234,0.338,0.234,0.55
		c0,0.211-0.08,0.394-0.234,0.549c-0.156,0.155-0.337,0.233-0.542,0.233h-4.556l-0.029-0.016L100.361,52.823z"/>
	<path fill="#575756" d="M111.022,47.435c0.403,0,0.748-0.14,1.027-0.423c0.281-0.282,0.42-0.62,0.42-1.02
		c0-0.397-0.139-0.741-0.42-1.025c-0.279-0.287-0.624-0.432-1.027-0.432h-1.729v2.899H111.022z M112.938,48.307
		c0.636,0.487,0.956,1.167,0.956,2.041c-0.01,0.308,0.007,0.583,0.056,0.828c0.243,0.074,0.408,0.236,0.493,0.486
		c0.084,0.249,0.046,0.48-0.112,0.696c-0.16,0.215-0.391,0.321-0.689,0.321h-0.017c-0.418,0-0.754-0.215-0.997-0.646
		c-0.196-0.412-0.296-0.976-0.296-1.687c-0.02-0.433-0.214-0.77-0.59-1.014c-0.245-0.161-0.508-0.271-0.79-0.339h-1.657v3.053
		c0,0.215-0.08,0.398-0.234,0.548c-0.153,0.151-0.339,0.226-0.553,0.226c-0.216,0-0.399-0.074-0.55-0.226
		c-0.151-0.149-0.225-0.333-0.225-0.548v-8.3c0-0.216,0.073-0.397,0.225-0.549c0.15-0.147,0.334-0.224,0.55-0.224h2.516
		c0.835,0,1.544,0.294,2.133,0.886c0.587,0.591,0.877,1.326,0.877,2.209C114.032,46.95,113.67,47.699,112.938,48.307"/>
	<path fill="#575756" d="M123.288,43.199c0.149,0.151,0.227,0.334,0.227,0.549c0,0.217-0.08,0.402-0.23,0.557
		c-0.156,0.153-0.338,0.232-0.542,0.232h-2.239v7.511c0,0.216-0.071,0.398-0.224,0.548c-0.149,0.151-0.332,0.226-0.549,0.226
		c-0.216,0-0.399-0.074-0.549-0.226c-0.149-0.149-0.226-0.332-0.226-0.548v-7.511h-2.223c-0.215,0-0.398-0.079-0.549-0.232
		c-0.149-0.154-0.224-0.34-0.224-0.557c0-0.215,0.074-0.397,0.224-0.549c0.15-0.147,0.334-0.224,0.549-0.224h6.009
		C122.956,42.976,123.139,43.052,123.288,43.199"/>
	<path fill="#575756" d="M131.948,43.082c0.21-0.033,0.4,0.013,0.568,0.139c0.169,0.129,0.271,0.296,0.304,0.507
		c0.033,0.212-0.013,0.4-0.135,0.569l-2.884,3.955v3.796c0,0.216-0.074,0.398-0.225,0.548c-0.148,0.151-0.332,0.225-0.541,0.225
		c-0.212,0-0.395-0.073-0.55-0.225c-0.153-0.149-0.232-0.332-0.232-0.548v-3.796l-2.854-3.955c-0.13-0.169-0.183-0.356-0.154-0.561
		c0.029-0.208,0.133-0.377,0.309-0.509c0.18-0.13,0.369-0.179,0.577-0.146c0.207,0.031,0.37,0.137,0.494,0.314l2.404,3.292
		l2.404-3.292C131.565,43.219,131.736,43.113,131.948,43.082"/>
</g>
</svg>
